{
.appVersion = "1352";
DisplayStrings = (
ABCDEFGHIJKLMNOPQRSTUVWXYZ,
"abcdefghijklmnopqrstu/space v/space w/space x/space yz"
);
copyright = "Copyright 2003-2021 The Tapestry Project Authors (https://github.com/googlefonts/tapestry)";
customParameters = (
{
name = panose;
value = (
2,
0,
6,
3,
8,
0,
0,
2,
0,
4
);
},
{
name = blueScale;
value = 0.04329;
},
{
name = fsType;
value = (
);
},
{
name = "Use Typo Metrics";
value = 1;
},
{
name = glyphOrder;
value = (
.notdef,
CR,
.null,
space,
nbspace
);
},
{
name = licenseURL;
value = "https://scripts.sil.org/OFL";
},
{
name = license;
value = "This Font Software is licensed under the SIL Open Font License, Version 1.1. This license is available with a FAQ at: https://scripts.sil.org/OFL";
},
{
name = vendorID;
value = GOOG;
}
);
date = "2022-03-16 17:57:07 +0000";
designer = "Robert E. Leuschke";
designerURL = www.typesetit.com;
familyName = Tapestry;
featurePrefixes = (
{
automatic = 1;
code = "languagesystem DFLT dflt;\012\012languagesystem latn dflt;\012languagesystem latn AZE;\012languagesystem latn CRT;\012languagesystem latn KAZ;\012languagesystem latn TAT;\012languagesystem latn TRK;\012languagesystem latn ROM;\012languagesystem latn MOL;\012languagesystem latn CAT;\012";
name = Languagesystems;
}
);
features = (
{
automatic = 1;
code = "feature locl;\012feature sups;\012feature frac;\012feature ordn;\012feature salt;\012feature ss01;\012";
name = aalt;
},
{
automatic = 1;

glyphs = (
{
glyphname = .notdef;
lastChange = "2022-03-21 18:59:40 +0000";
layers = (
{
background = {
paths = (
{
closed = 1;
nodes = (
"403 0 LINE",
"413 9 LINE",
"413 669 LINE",
"403 679 LINE",
"58 679 LINE",
"51 669 LINE",
"50 669 LINE",
"50 10 LINE",
"58 0 LINE"
);
},
{
closed = 1;
nodes = (
"232 325 LINE",
"368 62 LINE",
"95 62 LINE"
);
},
{
closed = 1;
nodes = (
"92 591 LINE",
"223 340 LINE",
"92 88 LINE"
);
},
{
closed = 1;
nodes = (
"239 340 LINE",
"371 591 LINE",
"371 88 LINE"
);
},
{
closed = 1;
nodes = (
"94 616 LINE",
"369 616 LINE",
"232 353 LINE"
);
}
);
};
layerId = "404CF7D8-B1FB-4D32-849A-66F5CDD10145";
paths = (
{
closed = 1;
nodes = (
"403 0 LINE",
"413 9 LINE",
"413 669 LINE",
"403 679 LINE",
"58 679 LINE",
"51 669 LINE",
"50 669 LINE",
"50 10 LINE",
"58 0 LINE"
);
},
{
closed = 1;
nodes = (
"95 62 LINE",
"232 325 LINE",
"368 62 LINE"
);
},
{
closed = 1;
nodes = (
"92 591 LINE",
"223 340 LINE",
"92 88 LINE"
);
},
{
closed = 1;
nodes = (
"371 88 LINE",
"239 340 LINE",
"371 591 LINE"
);
},
{
closed = 1;
nodes = (
"94 616 LINE",
"369 616 LINE",
"232 353 LINE"
);
}
);
width = 463;
}
);
note = .notdef;
},
{
glyphname = A;
lastChange = "2022-03-21 19:08:41 +0000";
layers = (
{
background = {
paths = (
{
closed = 1;
nodes = (
"770 14 OFFCURVE",
"707 1 OFFCURVE",
"673 132 CURVE SMOOTH",
"634 285 OFFCURVE",
"611 428 OFFCURVE",
"587 584 CURVE SMOOTH",
"583 613 OFFCURVE",
"588 633 OFFCURVE",
"572 633 CURVE SMOOTH",
"541 632 OFFCURVE",
"511 632 OFFCURVE",
"481 631 CURVE SMOOTH",
"453 630 OFFCURVE",
"399 629 OFFCURVE",
"310 634 CURVE",
"299 636 OFFCURVE",
"299 614 OFFCURVE",
"311 617 CURVE",
"336 618 OFFCURVE",
"362 620 OFFCURVE",
"387 620 CURVE SMOOTH",
"452 619 OFFCURVE",
"447 570 OFFCURVE",
"430 529 CURVE SMOOTH",
"414 490 OFFCURVE",
"357 377 OFFCURVE",
"301 272 CURVE",
"243 269 OFFCURVE",
"196 267 OFFCURVE",
"159 261 CURVE",
"142 256 OFFCURVE",
"97 233 OFFCURVE",
"148 237 CURVE SMOOTH",
"204 241 OFFCURVE",
"233 241 OFFCURVE",
"283 239 CURVE",
"249 176 OFFCURVE",
"216 118 OFFCURVE",
"196 86 CURVE SMOOTH",
"144 4 OFFCURVE",
"87 14 OFFCURVE",
"2 17 CURVE SMOOTH",
"-11 18 OFFCURVE",
"-3 0 OFFCURVE",
"8 0 CURVE SMOOTH",
"77 0 OFFCURVE",
"141 6 OFFCURVE",
"205 3 CURVE SMOOTH",
"235 2 OFFCURVE",
"285 0 OFFCURVE",
"354 -3 CURVE SMOOTH",
"364 -4 OFFCURVE",
"380 18 OFFCURVE",
"365 14 CURVE",
"317 12 OFFCURVE",
"226 1 OFFCURVE",
"287 132 CURVE SMOOTH",
"303 168 OFFCURVE",
"320 203 OFFCURVE",
"338 238 CURVE",
"356 238 OFFCURVE",
"378 237 OFFCURVE",
"403 237 CURVE SMOOTH",
"430 237 OFFCURVE",
"456 234 OFFCURVE",
"480 246 CURVE SMOOTH",
"497 254 OFFCURVE",
"528 274 OFFCURVE",
"538 294 CURVE SMOOTH",
"541 301 OFFCURVE",
"540 305 OFFCURVE",
"534 300 CURVE SMOOTH",
"523 291 OFFCURVE",
"460 280 OFFCURVE",
"413 278 CURVE SMOOTH",
"393 277 OFFCURVE",
"374 276 OFFCURVE",
"356 275 CURVE",
"399 357 OFFCURVE",
"444 439 OFFCURVE",
"491 523 CURVE",
"513 445 OFFCURVE",
"573 144 OFFCURVE",
"581 57 CURVE SMOOTH",
"585 11 OFFCURVE",
"517 15 OFFCURVE",
"489 16 CURVE SMOOTH",
"476 17 OFFCURVE",
"488 -1 OFFCURVE",
"499 0 CURVE SMOOTH",
"565 4 OFFCURVE",
"618 3 OFFCURVE",
"685 0 CURVE SMOOTH",
"716 -1 OFFCURVE",
"732 3 OFFCURVE",
"803 0 CURVE SMOOTH",
"813 0 OFFCURVE",
"816 19 OFFCURVE",
"804 16 CURVE"
);
}
);
};
layerId = "404CF7D8-B1FB-4D32-849A-66F5CDD10145";
paths = (
{
closed = 1;
nodes = (
"361 -4 OFFCURVE",
"371 7 OFFCURVE",
"371 12 CURVE SMOOTH",
"371 13 OFFCURVE",
"370 14 OFFCURVE",
"368 14 CURVE SMOOTH",
"365 14 LINE SMOOTH",
"356 14 OFFCURVE",
"345 13 OFFCURVE",
"334 13 CURVE SMOOTH",
"302 13 OFFCURVE",
"267 20 OFFCURVE",
"267 61 CURVE SMOOTH",
"267 78 OFFCURVE",
"273 101 OFFCURVE",
"287 132 CURVE SMOOTH",
"303 168 OFFCURVE",
"320 203 OFFCURVE",
"338 238 CURVE",
"356 238 OFFCURVE",
"378 237 OFFCURVE",
"403 237 CURVE SMOOTH",
"430 237 OFFCURVE",
"456 234 OFFCURVE",
"480 246 CURVE SMOOTH",
"497 254 OFFCURVE",
"528 274 OFFCURVE",
"538 294 CURVE SMOOTH",
"540 299 OFFCURVE",
"540 302 OFFCURVE",
"538 302 CURVE SMOOTH",
"537 302 OFFCURVE",
"536 302 OFFCURVE",
"534 300 CURVE SMOOTH",
"523 291 OFFCURVE",
"460 280 OFFCURVE",
"413 278 CURVE SMOOTH",
"356 275 LINE",
"399 357 OFFCURVE",
"444 439 OFFCURVE",
"491 523 CURVE",
"513 445 OFFCURVE",
"573 144 OFFCURVE",
"581 57 CURVE SMOOTH",
"583 35 OFFCURVE",
"568 15 OFFCURVE",
"515 15 CURVE SMOOTH",
"505 15 OFFCURVE",
"495 16 OFFCURVE",
"488 16 CURVE SMOOTH",
"484 16 OFFCURVE",
"483 14 OFFCURVE",
"483 12 CURVE SMOOTH",
"483 7 OFFCURVE",
"492 0 OFFCURVE",
"498 0 CURVE SMOOTH",
"513 0 OFFCURVE",
"524 2 OFFCURVE",
"585 2 CURVE SMOOTH",
"617 2 OFFCURVE",
"649 2 OFFCURVE",
"685 2 CURVE SMOOTH",
"711 2 OFFCURVE",
"783 0 OFFCURVE",
"803 0 CURVE SMOOTH",
"808 0 OFFCURVE",
"812 6 OFFCURVE",
"812 10 CURVE SMOOTH",
"812 13 OFFCURVE",
"810 17 OFFCURVE",
"806 17 CURVE SMOOTH",
"800 17 OFFCURVE",
"790 15 OFFCURVE",
"780 15 CURVE SMOOTH",
"745 15 OFFCURVE",
"700 28 OFFCURVE",
"673 132 CURVE SMOOTH",
"634 285 OFFCURVE",
"611 428 OFFCURVE",
"587 584 CURVE SMOOTH",
"583 613 OFFCURVE",
"588 633 OFFCURVE",
"572 633 CURVE SMOOTH",
"541 632 OFFCURVE",
"511 632 OFFCURVE",
"481 631 CURVE SMOOTH",
"470 631 OFFCURVE",
"454 630 OFFCURVE",
"433 630 CURVE SMOOTH",
"403 630 OFFCURVE",
"363 631 OFFCURVE",
"310 634 CURVE",
"305 635 OFFCURVE",
"302 630 OFFCURVE",
"302 626 CURVE SMOOTH",
"302 621 OFFCURVE",
"304 617 OFFCURVE",
"309 617 CURVE SMOOTH",
"311 617 LINE SMOOTH",
"336 617 OFFCURVE",
"362 620 OFFCURVE",
"387 620 CURVE SMOOTH",
"428 619 OFFCURVE",
"441 600 OFFCURVE",
"441 575 CURVE SMOOTH",
"441 561 OFFCURVE",
"436 544 OFFCURVE",
"430 529 CURVE SMOOTH",
"414 490 OFFCURVE",
"357 377 OFFCURVE",
"301 272 CURVE",
"243 269 OFFCURVE",
"195 267 OFFCURVE",
"159 261 CURVE SMOOTH",
"149 259 OFFCURVE",
"125 246 OFFCURVE",
"125 241 CURVE SMOOTH",
"125 238 OFFCURVE",
"128 236 OFFCURVE",
"135 236 CURVE SMOOTH",
"145 236 OFFCURVE",
"171 240 OFFCURVE",
"228 240 CURVE SMOOTH",
"245 240 OFFCURVE",
"262 240 OFFCURVE",
"283 239 CURVE",
"249 176 OFFCURVE",
"216 118 OFFCURVE",
"196 86 CURVE SMOOTH",
"157 25 OFFCURVE",
"116 15 OFFCURVE",
"63 15 CURVE SMOOTH",
"44 15 OFFCURVE",
"24 16 OFFCURVE",
"2 17 CURVE SMOOTH",
"-3 17 OFFCURVE",
"-5 15 OFFCURVE",
"-5 12 CURVE SMOOTH",
"-5 7 OFFCURVE",
"1 0 OFFCURVE",
"8 0 CURVE SMOOTH",
"63 0 OFFCURVE",
"115 4 OFFCURVE",
"167 4 CURVE SMOOTH",
"179 4 OFFCURVE",
"192 4 OFFCURVE",
"205 3 CURVE SMOOTH",
"354 -3 LINE"
);
}
);
width = 789;
}
);
note = A;
unicode = 0041;
},
{
glyphname = AE;
lastChange = "2022-03-21 18:59:40 +0000";
layers = (
{
background = {
paths = (
{
closed = 1;
nodes = (
"970 182 OFFCURVE",
"960 190 OFFCURVE",
"957 183 CURVE SMOOTH",
"918 94 OFFCURVE",
"843 32 OFFCURVE",
"741 32 CURVE SMOOTH",
"637 32 OFFCURVE",
"624 64 OFFCURVE",
"628 113 CURVE SMOOTH",
"634 193 OFFCURVE",
"638 240 OFFCURVE",
"646 301 CURVE",
"676 301 OFFCURVE",
"715 299 OFFCURVE",
"774 299 CURVE SMOOTH",
"801 299 OFFCURVE",
"827 303 OFFCURVE",
"851 315 CURVE SMOOTH",
"868 323 OFFCURVE",
"900 343 OFFCURVE",
"909 363 CURVE SMOOTH",
"912 370 OFFCURVE",
"911 374 OFFCURVE",
"906 369 CURVE",
"894 361 OFFCURVE",
"831 349 OFFCURVE",
"784 347 CURVE SMOOTH",
"734 344 OFFCURVE",
"691 349 OFFCURVE",
"652 347 CURVE",
"658 395 OFFCURVE",
"663 445 OFFCURVE",
"674 506 CURVE SMOOTH",
"692 610 OFFCURVE",
"763 596 OFFCURVE",
"852 597 CURVE SMOOTH",
"909 598 OFFCURVE",
"949 550 OFFCURVE",
"942 454 CURVE SMOOTH",
"941 437 OFFCURVE",
"956 436 OFFCURVE",
"957 445 CURVE SMOOTH",
"960 499 OFFCURVE",
"959 524 OFFCURVE",
"964 572 CURVE SMOOTH",
"970 622 OFFCURVE",
"960 639 OFFCURVE",
"915 637 CURVE SMOOTH",
"821 632 OFFCURVE",
"744 631 OFFCURVE",
"651 630 CURVE SMOOTH",
"537 629 OFFCURVE",
"421 628 OFFCURVE",
"307 634 CURVE",
"296 636 OFFCURVE",
"295 614 OFFCURVE",
"308 617 CURVE",
"333 618 OFFCURVE",
"358 620 OFFCURVE",
"384 620 CURVE SMOOTH",
"449 619 OFFCURVE",
"444 570 OFFCURVE",
"427 529 CURVE SMOOTH",
"410 490 OFFCURVE",
"387 438 OFFCURVE",
"331 333 CURVE",
"274 330 OFFCURVE",
"226 327 OFFCURVE",
"190 322 CURVE",
"173 317 OFFCURVE",
"127 294 OFFCURVE",
"179 298 CURVE SMOOTH",
"234 302 OFFCURVE",
"263 301 OFFCURVE",
"313 300 CURVE",
"279 236 OFFCURVE",
"213 118 OFFCURVE",
"193 86 CURVE SMOOTH",
"141 4 OFFCURVE",
"80 12 OFFCURVE",
"-5 16 CURVE SMOOTH",
"-18 17 OFFCURVE",
"-18 -1 OFFCURVE",
"-7 0 CURVE SMOOTH",
"62 4 OFFCURVE",
"138 6 OFFCURVE",
"202 3 CURVE SMOOTH",
"232 2 OFFCURVE",
"282 0 OFFCURVE",
"351 -3 CURVE SMOOTH",
"361 -4 OFFCURVE",
"377 18 OFFCURVE",
"362 14 CURVE",
"314 12 OFFCURVE",
"223 1 OFFCURVE",
"283 132 CURVE SMOOTH",
"300 168 OFFCURVE",
"351 264 OFFCURVE",
"368 298 CURVE",
"397 298 OFFCURVE",
"511 303 OFFCURVE",
"550 303 CURVE",
"541 247 OFFCURVE",
"531 187 OFFCURVE",
"518 132 CURVE SMOOTH",
"487 2 OFFCURVE",
"463 17 OFFCURVE",
"452 17 CURVE SMOOTH",
"444 17 OFFCURVE",
"431 -2 OFFCURVE",
"442 0 CURVE",
"508 -1 OFFCURVE",
"480 2 OFFCURVE",
"511 3 CURVE SMOOTH",
"578 6 OFFCURVE",
"623 8 OFFCURVE",
"687 3 CURVE SMOOTH",
"807 -6 OFFCURVE",
"867 -13 OFFCURVE",
"887 0 CURVE SMOOTH",
"934 31 OFFCURVE",
"956 145 OFFCURVE",
"967 175 CURVE SMOOTH"
);
},
{
closed = 1;
nodes = (
"569 479 OFFCURVE",
"564 413 OFFCURVE",
"555 343 CURVE",
"531 343 OFFCURVE",
"443 338 OFFCURVE",
"387 336 CURVE",
"429 418 OFFCURVE",
"426 407 OFFCURVE",
"472 492 CURVE SMOOTH",
"514 571 OFFCURVE",
"574 688 OFFCURVE",
"570 509 CURVE SMOOTH"
);
}
);
};
layerId = "404CF7D8-B1FB-4D32-849A-66F5CDD10145";
paths = (
{
closed = 1;
nodes = (
"865 -7 OFFCURVE",
"879 -5 OFFCURVE",
"887 0 CURVE SMOOTH",
"934 31 OFFCURVE",
"956 145 OFFCURVE",
"967 175 CURVE SMOOTH",
"969 180 OFFCURVE",
"964 186 OFFCURVE",
"961 186 CURVE SMOOTH",
"959 186 OFFCURVE",
"958 185 OFFCURVE",
"957 183 CURVE SMOOTH",
"918 94 OFFCURVE",
"843 32 OFFCURVE",
"741 32 CURVE SMOOTH",
"637 32 OFFCURVE",
"624 64 OFFCURVE",
"628 113 CURVE SMOOTH",
"634 193 OFFCURVE",
"638 240 OFFCURVE",
"646 301 CURVE",
"676 301 OFFCURVE",
"715 299 OFFCURVE",
"774 299 CURVE SMOOTH",
"801 299 OFFCURVE",
"827 303 OFFCURVE",
"851 315 CURVE SMOOTH",
"868 323 OFFCURVE",
"900 343 OFFCURVE",
"909 363 CURVE SMOOTH",
"911 368 OFFCURVE",
"911 371 OFFCURVE",
"909 371 CURVE",
"909 371 OFFCURVE",
"908 371 OFFCURVE",
"906 369 CURVE",
"894 361 OFFCURVE",
"831 349 OFFCURVE",
"784 347 CURVE SMOOTH",
"772 346 OFFCURVE",
"760 346 OFFCURVE",
"749 346 CURVE SMOOTH",
"722 346 OFFCURVE",
"698 348 OFFCURVE",
"675 348 CURVE SMOOTH",
"667 348 OFFCURVE",
"660 348 OFFCURVE",
"652 347 CURVE",
"658 395 OFFCURVE",
"663 445 OFFCURVE",
"674 506 CURVE SMOOTH",
"688 589 OFFCURVE",
"736 598 OFFCURVE",
"800 598 CURVE SMOOTH",
"817 598 OFFCURVE",
"835 597 OFFCURVE",
"854 597 CURVE SMOOTH",
"906 597 OFFCURVE",
"943 556 OFFCURVE",
"943 475 CURVE SMOOTH",
"943 467 OFFCURVE",
"942 460 OFFCURVE",
"942 452 CURVE SMOOTH",
"942 443 OFFCURVE",
"947 439 OFFCURVE",
"951 439 CURVE SMOOTH",
"954 439 OFFCURVE",
"957 441 OFFCURVE",
"957 445 CURVE SMOOTH",
"960 499 OFFCURVE",
"959 524 OFFCURVE",
"964 572 CURVE SMOOTH",
"965 581 OFFCURVE",
"966 588 OFFCURVE",
"966 595 CURVE SMOOTH",
"966 627 OFFCURVE",
"952 639 OFFCURVE",
"915 637 CURVE SMOOTH",
"821 632 OFFCURVE",
"744 631 OFFCURVE",
"651 630 CURVE SMOOTH",
"608 630 OFFCURVE",
"565 629 OFFCURVE",
"521 629 CURVE SMOOTH",
"450 629 OFFCURVE",
"378 630 OFFCURVE",
"307 634 CURVE",
"302 635 OFFCURVE",
"299 630 OFFCURVE",
"299 625 CURVE SMOOTH",
"299 621 OFFCURVE",
"301 617 OFFCURVE",
"306 617 CURVE SMOOTH",
"308 617 LINE SMOOTH",
"333 618 OFFCURVE",
"358 620 OFFCURVE",
"384 620 CURVE SMOOTH",
"425 619 OFFCURVE",
"438 600 OFFCURVE",
"438 575 CURVE SMOOTH",
"438 561 OFFCURVE",
"433 544 OFFCURVE",
"427 529 CURVE SMOOTH",
"410 490 OFFCURVE",
"387 438 OFFCURVE",
"331 333 CURVE",
"274 330 OFFCURVE",
"226 327 OFFCURVE",
"190 322 CURVE",
"179 319 OFFCURVE",
"155 308 OFFCURVE",
"155 302 CURVE SMOOTH",
"155 299 OFFCURVE",
"159 298 OFFCURVE",
"168 298 CURVE SMOOTH",
"179 298 LINE SMOOTH",
"209 300 OFFCURVE",
"232 301 OFFCURVE",
"254 301 CURVE SMOOTH",
"272 301 OFFCURVE",
"291 300 OFFCURVE",
"313 300 CURVE",
"279 236 OFFCURVE",
"213 118 OFFCURVE",
"193 86 CURVE SMOOTH",
"154 25 OFFCURVE",
"110 14 OFFCURVE",
"55 14 CURVE SMOOTH",
"37 14 OFFCURVE",
"16 16 OFFCURVE",
"-7 16 CURVE SMOOTH",
"-13 16 OFFCURVE",
"-15 12 OFFCURVE",
"-15 8 CURVE SMOOTH",
"-15 4 OFFCURVE",
"-13 0 OFFCURVE",
"-8 0 CURVE SMOOTH",
"-7 0 LINE SMOOTH",
"39 3 OFFCURVE",
"88 4 OFFCURVE",
"135 4 CURVE SMOOTH",
"158 4 OFFCURVE",
"181 4 OFFCURVE",
"202 3 CURVE SMOOTH",
"351 -3 LINE",
"358 -4 OFFCURVE",
"368 7 OFFCURVE",
"368 12 CURVE SMOOTH",
"368 13 OFFCURVE",
"367 14 OFFCURVE",
"365 14 CURVE SMOOTH",
"362 14 LINE SMOOTH",
"353 14 OFFCURVE",
"342 13 OFFCURVE",
"331 13 CURVE SMOOTH",
"298 13 OFFCURVE",
"263 20 OFFCURVE",
"263 61 CURVE SMOOTH",
"263 79 OFFCURVE",
"269 101 OFFCURVE",
"283 132 CURVE SMOOTH",
"300 168 OFFCURVE",
"351 264 OFFCURVE",
"368 298 CURVE",
"397 298 OFFCURVE",
"511 303 OFFCURVE",
"550 303 CURVE",
"541 247 OFFCURVE",
"531 187 OFFCURVE",
"518 132 CURVE SMOOTH",
"487 2 OFFCURVE",
"463 17 OFFCURVE",
"452 17 CURVE SMOOTH",
"446 17 OFFCURVE",
"438 7 OFFCURVE",
"438 3 CURVE SMOOTH",
"438 1 OFFCURVE",
"439 0 OFFCURVE",
"441 0 CURVE SMOOTH",
"442 0 LINE SMOOTH",
"508 -1 OFFCURVE",
"480 2 OFFCURVE",
"511 3 CURVE SMOOTH",
"549 5 OFFCURVE",
"579 6 OFFCURVE",
"610 6 CURVE SMOOTH",
"634 6 OFFCURVE",
"659 5 OFFCURVE",
"687 3 CURVE SMOOTH",
"760 -2 OFFCURVE",
"810 -7 OFFCURVE",
"843 -7 CURVE SMOOTH"
);
},
{
closed = 1;
nodes = (
"429 418 OFFCURVE",
"426 407 OFFCURVE",
"472 492 CURVE SMOOTH",
"498 540 OFFCURVE",
"530 603 OFFCURVE",
"551 603 CURVE SMOOTH",
"562 603 OFFCURVE",
"570 582 OFFCURVE",
"570 525 CURVE SMOOTH",
"570 517 OFFCURVE",
"567 433 OFFCURVE",
"555 343 CURVE",
"531 343 OFFCURVE",
"443 338 OFFCURVE",
"387 336 CURVE"
);
}
);
width = 983;
}
);
note = AE;
unicode = 00C6;
},
{
glyphname = B;
lastChange = "2022-03-21 19:59:07 +0000";
layers = (
{
background = {
paths = (
{
closed = 1;
nodes = (
"588 640 OFFCURVE",
"477 643 OFFCURVE",
"383 636 CURVE SMOOTH",
"347 634 OFFCURVE",
"307 630 OFFCURVE",
"283 630 CURVE SMOOTH",
"217 629 OFFCURVE",
"141 634 OFFCURVE",
"64 634 CURVE SMOOTH",
"53 634 OFFCURVE",
"42 617 OFFCURVE",
"55 617 CURVE SMOOTH",
"70 618 OFFCURVE",
"147 617 OFFCURVE",
"168 613 CURVE SMOOTH",
"211 606 OFFCURVE",
"204 541 OFFCURVE",
"203 509 CURVE SMOOTH",
"202 451 OFFCURVE",
"184 275 OFFCURVE",
"151 132 CURVE SMOOTH",
"120 2 OFFCURVE",
"127 15 OFFCURVE",
"-26 17 CURVE",
"-33 18 OFFCURVE",
"-46 -2 OFFCURVE",
"-36 0 CURVE",
"31 -1 OFFCURVE",
"113 2 OFFCURVE",
"143 3 CURVE SMOOTH",
"222 7 OFFCURVE",
"293 -1 OFFCURVE",
"370 -7 CURVE SMOOTH",
"439 -13 OFFCURVE",
"474 23 OFFCURVE",
"497 40 CURVE SMOOTH",
"572 95 LINE SMOOTH",
"652 154 OFFCURVE",
"638 242 OFFCURVE",
"564 301 CURVE SMOOTH",
"518 338 OFFCURVE",
"448 363 OFFCURVE",
"398 362 CURVE",
"417 372 OFFCURVE",
"439 383 OFFCURVE",
"448 388 CURVE SMOOTH",
"521 428 OFFCURVE",
"588 485 OFFCURVE",
"588 543 CURVE SMOOTH"
);
},
{
closed = 1;
nodes = (
"536 163 OFFCURVE",
"528 80 OFFCURVE",
"465 42 CURVE SMOOTH",
"402 5 OFFCURVE",
"269 16 OFFCURVE",
"261 106 CURVE SMOOTH",
"250 218 OFFCURVE",
"297 467 OFFCURVE",
"310 529 CURVE SMOOTH",
"337 659 OFFCURVE",
"487 637 OFFCURVE",
"483 516 CURVE SMOOTH",
"481 453 OFFCURVE",
"438 379 OFFCURVE",
"342 352 CURVE SMOOTH",
"330 349 OFFCURVE",
"325 339 OFFCURVE",
"339 340 CURVE SMOOTH",
"405 346 OFFCURVE",
"470 289 OFFCURVE",
"503 225 CURVE SMOOTH"
);
}
);
};
layerId = "404CF7D8-B1FB-4D32-849A-66F5CDD10145";
paths = (
{
closed = 1;
nodes = (
"439 -13 OFFCURVE",
"474 23 OFFCURVE",
"497 40 CURVE SMOOTH",
"572 95 LINE SMOOTH",
"609 122 OFFCURVE",
"626 156 OFFCURVE",
"626 190 CURVE SMOOTH",
"626 230 OFFCURVE",
"604 269 OFFCURVE",
"564 301 CURVE SMOOTH",
"518 338 OFFCURVE",
"448 363 OFFCURVE",
"398 362 CURVE",
"448 388 LINE SMOOTH",
"489 409.5 OFFCURVE",
"588 472.5 OFFCURVE",
"588 543 CURVE SMOOTH",
"588 602.5 OFFCURVE",
"547.5 638 OFFCURVE",
"438 638 CURVE SMOOTH",
"420 638 OFFCURVE",
"401 637 OFFCURVE",
"383 636 CURVE SMOOTH",
"347 634 OFFCURVE",
"307 630 OFFCURVE",
"283 630 CURVE SMOOTH",
"217 629 OFFCURVE",
"141 634 OFFCURVE",
"64 634 CURVE SMOOTH",
"57 634 OFFCURVE",
"49 626 OFFCURVE",
"49 621 CURVE SMOOTH",
"49 619 OFFCURVE",
"51 617 OFFCURVE",
"55 617 CURVE SMOOTH",
"70 618 OFFCURVE",
"147 617 OFFCURVE",
"168 613 CURVE SMOOTH",
"194.5 608.5 OFFCURVE",
"204 582.5 OFFCURVE",
"204 541 CURVE SMOOTH",
"204 435 OFFCURVE",
"178.5 251.5 OFFCURVE",
"151 132 CURVE SMOOTH",
"126 29 OFFCURVE",
"126 16 OFFCURVE",
"50 16 CURVE SMOOTH",
"15 16 OFFCURVE",
"-5 17 OFFCURVE",
"-27 17 CURVE SMOOTH",
"-31 17 OFFCURVE",
"-40 7 OFFCURVE",
"-40 2 CURVE SMOOTH",
"-40 0.5 OFFCURVE",
"-39 0 OFFCURVE",
"-37 0 CURVE SMOOTH",
"76.5 0 OFFCURVE",
"153.5 4 OFFCURVE",
"187 4 CURVE SMOOTH",
"249 4 OFFCURVE",
"307 -2 OFFCURVE",
"370 -7 CURVE SMOOTH"
);
},
{
closed = 1;
nodes = (
"302 22 OFFCURVE",
"259 65 OFFCURVE",
"259 127 CURVE SMOOTH",
"259 267 OFFCURVE",
"298 473 OFFCURVE",
"310 529 CURVE SMOOTH",
"323.5 591.5 OFFCURVE",
"362 617 OFFCURVE",
"400 617 CURVE SMOOTH",
"442 617 OFFCURVE",
"483 583 OFFCURVE",
"483 521 CURVE SMOOTH",
"483 457 OFFCURVE",
"441 380 OFFCURVE",
"342 352 CURVE SMOOTH",
"335 350 OFFCURVE",
"330 346 OFFCURVE",
"330 343 CURVE SMOOTH",
"330 341 OFFCURVE",
"332 340 OFFCURVE",
"337 340 CURVE SMOOTH",
"352 340.5 LINE SMOOTH",
"402 342 OFFCURVE",
"468.5 292 OFFCURVE",
"503 225 CURVE SMOOTH",
"515 202 OFFCURVE",
"522 175 OFFCURVE",
"522 149 CURVE SMOOTH",
"522 107 OFFCURVE",
"504 66 OFFCURVE",
"465 42 CURVE SMOOTH",
"443 29 OFFCURVE",
"413 22 OFFCURVE",
"382 22 CURVE SMOOTH"
);
}
);
width = 646;
}
);
note = B;
unicode = 0042;
},
{
glyphname = C;
lastChange = "2022-03-21 19:21:11 +0000";
layers = (
{
background = {
paths = (
{
closed = 1;
nodes = (
"612 192 OFFCURVE",
"609 195 OFFCURVE",
"606 195 CURVE SMOOTH",
"599 195 OFFCURVE",
"594 189 OFFCURVE",
"591 185 CURVE SMOOTH",
"581 173 OFFCURVE",
"572 162 OFFCURVE",
"562 152 CURVE SMOOTH",
"506 100 OFFCURVE",
"427 74 OFFCURVE",
"351 74 CURVE SMOOTH",
"210 74 OFFCURVE",
"85 158 OFFCURVE",
"85 309 CURVE SMOOTH",
"85 477 OFFCURVE",
"242 580 OFFCURVE",
"398 580 CURVE SMOOTH",
"452 580 OFFCURVE",
"531 583 OFFCURVE",
"531 509 CURVE SMOOTH",
"531 485 OFFCURVE",
"524 462 OFFCURVE",
"517 439 CURVE SMOOTH",
"516 437 OFFCURVE",
"516 434 OFFCURVE",
"516 432 CURVE SMOOTH",
"516 428 OFFCURVE",
"518 424 OFFCURVE",
"522 424 CURVE SMOOTH",
"526 424 OFFCURVE",
"529 426 OFFCURVE",
"530 430 CURVE SMOOTH",
"538 452 OFFCURVE",
"544 477 OFFCURVE",
"551 500 CURVE SMOOTH",
"558 522 OFFCURVE",
"565 543 OFFCURVE",
"572 564 CURVE SMOOTH",
"575 572 OFFCURVE",
"577 579 OFFCURVE",
"577 587 CURVE SMOOTH",
"577 638 OFFCURVE",
"512 650 OFFCURVE",
"473 650 CURVE SMOOTH",
"469 650 OFFCURVE",
"465 650 OFFCURVE",
"461 650 CURVE SMOOTH",
"257 639 OFFCURVE",
"2 479 OFFCURVE",
"2 247 CURVE SMOOTH",
"2 209 OFFCURVE",
"11 170 OFFCURVE",
"27 136 CURVE SMOOTH",
"79 28 OFFCURVE",
"190 -16 OFFCURVE",
"304 -16 CURVE SMOOTH",
"348 -16 OFFCURVE",
"395 -12 OFFCURVE",
"437 0 CURVE SMOOTH",
"479 11 OFFCURVE",
"499 40 OFFCURVE",
"521 75 CURVE SMOOTH",
"543 111 OFFCURVE",
"569 143 OFFCURVE",
"600 172 CURVE SMOOTH",
"605 176 OFFCURVE",
"612 182 OFFCURVE",
"612 189 CURVE SMOOTH"
);
}
);
};
layerId = "404CF7D8-B1FB-4D32-849A-66F5CDD10145";
paths = (
{
closed = 1;
nodes = (
"348 -16 OFFCURVE",
"395 -12 OFFCURVE",
"437 0 CURVE SMOOTH",
"479 11 OFFCURVE",
"499 40 OFFCURVE",
"521 75 CURVE SMOOTH",
"543 111 OFFCURVE",
"569 143 OFFCURVE",
"600 172 CURVE SMOOTH",
"605 176 OFFCURVE",
"612 182 OFFCURVE",
"612 189 CURVE SMOOTH",
"612 192 OFFCURVE",
"609 195 OFFCURVE",
"606 195 CURVE SMOOTH",
"599 195 OFFCURVE",
"594 189 OFFCURVE",
"591 185 CURVE SMOOTH",
"581 173 OFFCURVE",
"572 162 OFFCURVE",
"562 152 CURVE SMOOTH",
"506 100 OFFCURVE",
"427 74 OFFCURVE",
"351 74 CURVE SMOOTH",
"210 74 OFFCURVE",
"85 158 OFFCURVE",
"85 309 CURVE SMOOTH",
"85 477 OFFCURVE",
"242 580 OFFCURVE",
"398 580 CURVE SMOOTH",
"452 580 OFFCURVE",
"531 583 OFFCURVE",
"531 509 CURVE SMOOTH",
"531 485 OFFCURVE",
"524 462 OFFCURVE",
"517 439 CURVE SMOOTH",
"516 437 OFFCURVE",
"516 434 OFFCURVE",
"516 432 CURVE SMOOTH",
"516 428 OFFCURVE",
"518 424 OFFCURVE",
"522 424 CURVE SMOOTH",
"526 424 OFFCURVE",
"529 426 OFFCURVE",
"530 430 CURVE SMOOTH",
"538 452 OFFCURVE",
"544 477 OFFCURVE",
"551 500 CURVE SMOOTH",
"572 564 LINE SMOOTH",
"575 572 OFFCURVE",
"577 579 OFFCURVE",
"577 587 CURVE SMOOTH",
"577 638 OFFCURVE",
"512 650 OFFCURVE",
"475 650 CURVE SMOOTH",
"278 650 OFFCURVE",
"2 487 OFFCURVE",
"2 247 CURVE SMOOTH",
"2 88 OFFCURVE",
"132 -16 OFFCURVE",
"304 -16 CURVE SMOOTH"
);
}
);
width = 573;
}
);
note = C;
unicode = 0043;
},
{
glyphname = D;
lastChange = "2022-03-21 19:22:08 +0000";
layers = (
{
background = {
paths = (
{
closed = 1;
nodes = (
"573 687 OFFCURVE",
"435 630 OFFCURVE",
"304 630 CURVE SMOOTH",
"298 630 OFFCURVE",
"291 630 OFFCURVE",
"283 630 CURVE SMOOTH",
"217 629 OFFCURVE",
"141 634 OFFCURVE",
"64 634 CURVE SMOOTH",
"53 634 OFFCURVE",
"42 617 OFFCURVE",
"55 617 CURVE SMOOTH",
"70 618 OFFCURVE",
"147 617 OFFCURVE",
"168 613 CURVE SMOOTH",
"211 606 OFFCURVE",
"204 541 OFFCURVE",
"203 509 CURVE SMOOTH",
"202 451 OFFCURVE",
"184 275 OFFCURVE",
"151 132 CURVE SMOOTH",
"120 2 OFFCURVE",
"127 15 OFFCURVE",
"-26 17 CURVE",
"-33 18 OFFCURVE",
"-46 -2 OFFCURVE",
"-36 0 CURVE",
"31 -1 OFFCURVE",
"113 2 OFFCURVE",
"143 3 CURVE SMOOTH",
"165 3 OFFCURVE",
"181 3 OFFCURVE",
"190 2 CURVE",
"374 -2 OFFCURVE",
"458 -50 OFFCURVE",
"594 85 CURVE SMOOTH",
"667 157 LINE SMOOTH",
"744 233 OFFCURVE",
"810 393 OFFCURVE",
"682 552 CURVE SMOOTH"
);
},
{
closed = 1;
nodes = (
"482 35 OFFCURVE",
"241 -44 OFFCURVE",
"269 208 CURVE SMOOTH",
"275 264 OFFCURVE",
"288 452 OFFCURVE",
"324 548 CURVE SMOOTH",
"353 628 OFFCURVE",
"429 625 OFFCURVE",
"495 588 CURVE SMOOTH",
"675 486 OFFCURVE",
"704 225 OFFCURVE",
"543 87 CURVE SMOOTH"
);
}
);
};
layerId = "404CF7D8-B1FB-4D32-849A-66F5CDD10145";
paths = (
{
closed = 1;
nodes = (
"456 -10 OFFCURVE",
"516 8 OFFCURVE",
"594 85 CURVE SMOOTH",
"667 157 LINE SMOOTH",
"713 202 OFFCURVE",
"754 276 OFFCURVE",
"754 362 CURVE SMOOTH",
"754 422 OFFCURVE",
"734 487 OFFCURVE",
"682 552 CURVE SMOOTH",
"623 625 OFFCURVE",
"555 642 OFFCURVE",
"485 642 CURVE SMOOTH",
"425 642 OFFCURVE",
"364 630 OFFCURVE",
"304 630 CURVE SMOOTH",
"283 630 LINE SMOOTH",
"217 630 OFFCURVE",
"141 634 OFFCURVE",
"64 634 CURVE SMOOTH",
"57 634 OFFCURVE",
"49 626 OFFCURVE",
"49 621 CURVE SMOOTH",
"49 619 OFFCURVE",
"51 617 OFFCURVE",
"55 617 CURVE SMOOTH",
"70 618 OFFCURVE",
"147 617 OFFCURVE",
"168 613 CURVE SMOOTH",
"199 608 OFFCURVE",
"204 573 OFFCURVE",
"204 541 CURVE SMOOTH",
"204 529 OFFCURVE",
"203 518 OFFCURVE",
"203 509 CURVE SMOOTH",
"202 451 OFFCURVE",
"184 275 OFFCURVE",
"151 132 CURVE SMOOTH",
"126 29 OFFCURVE",
"126 16 OFFCURVE",
"50 16 CURVE SMOOTH",
"30 16 OFFCURVE",
"6 17 OFFCURVE",
"-27 17 CURVE SMOOTH",
"-31 17 OFFCURVE",
"-40 7 OFFCURVE",
"-40 2 CURVE SMOOTH",
"-40 1 OFFCURVE",
"-39 0 OFFCURVE",
"-37 0 CURVE SMOOTH",
"-36 0 LINE SMOOTH",
"31 0 OFFCURVE",
"113 2 OFFCURVE",
"143 3 CURVE SMOOTH",
"165 3 OFFCURVE",
"181 3 OFFCURVE",
"190 2 CURVE SMOOTH",
"269 0 OFFCURVE",
"329 -10 OFFCURVE",
"384 -10 CURVE SMOOTH"
);
},
{
closed = 1;
nodes = (
"324 33 OFFCURVE",
"267 65 OFFCURVE",
"267 170 CURVE SMOOTH",
"267 257 OFFCURVE",
"298 478 OFFCURVE",
"324 548 CURVE SMOOTH",
"341 595 OFFCURVE",
"374 613 OFFCURVE",
"411 613 CURVE SMOOTH",
"438 613 OFFCURVE",
"467 603 OFFCURVE",
"495 588 CURVE SMOOTH",
"595 531 OFFCURVE",
"648 425 OFFCURVE",
"648 319 CURVE SMOOTH",
"648 234 OFFCURVE",
"614 148 OFFCURVE",
"543 87 CURVE SMOOTH",
"515 63 OFFCURVE",
"448 33 OFFCURVE",
"387 33 CURVE SMOOTH"
);
}
);
width = 754;
}
);
note = D;
unicode = 0044;
},
{
glyphname = E;
lastChange = "2022-03-21 19:22:35 +0000";
layers = (
{
background = {
paths = (
{
closed = 1;
nodes = (
"602 182 OFFCURVE",
"593 190 OFFCURVE",
"590 183 CURVE SMOOTH",
"551 94 OFFCURVE",
"476 32 OFFCURVE",
"373 32 CURVE SMOOTH",
"270 32 OFFCURVE",
"257 64 OFFCURVE",
"261 113 CURVE SMOOTH",
"267 193 OFFCURVE",
"272 254 OFFCURVE",
"279 315 CURVE",
"310 315 OFFCURVE",
"348 314 OFFCURVE",
"407 313 CURVE SMOOTH",
"434 313 OFFCURVE",
"460 310 OFFCURVE",
"484 322 CURVE SMOOTH",
"501 330 OFFCURVE",
"532 350 OFFCURVE",
"542 370 CURVE SMOOTH",
"545 377 OFFCURVE",
"544 381 OFFCURVE",
"538 376 CURVE SMOOTH",
"527 368 OFFCURVE",
"464 356 OFFCURVE",
"417 354 CURVE SMOOTH",
"367 351 OFFCURVE",
"322 349 OFFCURVE",
"283 347 CURVE",
"289 395 OFFCURVE",
"296 445 OFFCURVE",
"307 506 CURVE SMOOTH",
"325 610 OFFCURVE",
"396 596 OFFCURVE",
"485 597 CURVE SMOOTH",
"542 598 OFFCURVE",
"582 550 OFFCURVE",
"575 454 CURVE SMOOTH",
"574 437 OFFCURVE",
"589 436 OFFCURVE",
"590 445 CURVE SMOOTH",
"593 499 OFFCURVE",
"592 524 OFFCURVE",
"597 572 CURVE SMOOTH",
"603 622 OFFCURVE",
"593 639 OFFCURVE",
"548 637 CURVE SMOOTH",
"453 632 OFFCURVE",
"377 631 OFFCURVE",
"283 630 CURVE SMOOTH",
"217 629 OFFCURVE",
"141 634 OFFCURVE",
"64 634 CURVE SMOOTH",
"53 634 OFFCURVE",
"42 617 OFFCURVE",
"55 617 CURVE SMOOTH",
"70 618 OFFCURVE",
"147 617 OFFCURVE",
"168 613 CURVE SMOOTH",
"211 606 OFFCURVE",
"204 541 OFFCURVE",
"203 509 CURVE SMOOTH",
"202 478 OFFCURVE",
"197 414 OFFCURVE",
"187 340 CURVE",
"178 339 OFFCURVE",
"168 338 OFFCURVE",
"163 337 CURVE SMOOTH",
"146 332 OFFCURVE",
"101 309 OFFCURVE",
"152 313 CURVE SMOOTH",
"161 314 OFFCURVE",
"174 314 OFFCURVE",
"184 315 CURVE",
"176 256 OFFCURVE",
"165 191 OFFCURVE",
"151 132 CURVE SMOOTH",
"121 2 OFFCURVE",
"127 14 OFFCURVE",
"-26 17 CURVE SMOOTH",
"-33 17 OFFCURVE",
"-46 -2 OFFCURVE",
"-36 0 CURVE",
"31 -1 OFFCURVE",
"113 2 OFFCURVE",
"143 3 CURVE SMOOTH",
"210 6 OFFCURVE",
"255 8 OFFCURVE",
"319 3 CURVE SMOOTH",
"440 -6 OFFCURVE",
"500 -13 OFFCURVE",
"519 0 CURVE SMOOTH",
"567 31 OFFCURVE",
"588 145 OFFCURVE",
"600 175 CURVE SMOOTH"
);
}
);
};
layerId = "404CF7D8-B1FB-4D32-849A-66F5CDD10145";
paths = (
{
closed = 1;
nodes = (
"498 -7 OFFCURVE",
"511 -5 OFFCURVE",
"519 0 CURVE SMOOTH",
"567 31 OFFCURVE",
"588 145 OFFCURVE",
"600 175 CURVE",
"601 180 OFFCURVE",
"597 186 OFFCURVE",
"593 186 CURVE SMOOTH",
"592 186 OFFCURVE",
"591 185 OFFCURVE",
"590 183 CURVE SMOOTH",
"551 94 OFFCURVE",
"476 32 OFFCURVE",
"373 32 CURVE SMOOTH",
"270 32 OFFCURVE",
"257 64 OFFCURVE",
"261 113 CURVE SMOOTH",
"267 193 OFFCURVE",
"272 254 OFFCURVE",
"279 315 CURVE",
"314 315 OFFCURVE",
"359 313 OFFCURVE",
"434 313 CURVE SMOOTH",
"451 313 OFFCURVE",
"468 314 OFFCURVE",
"484 322 CURVE SMOOTH",
"501 330 OFFCURVE",
"532 350 OFFCURVE",
"542 370 CURVE SMOOTH",
"544 375 OFFCURVE",
"544 378 OFFCURVE",
"542 378 CURVE SMOOTH",
"541 378 OFFCURVE",
"540 378 OFFCURVE",
"538 376 CURVE SMOOTH",
"527 368 OFFCURVE",
"464 356 OFFCURVE",
"417 354 CURVE SMOOTH",
"367 351 OFFCURVE",
"322 349 OFFCURVE",
"283 347 CURVE",
"289 395 OFFCURVE",
"296 445 OFFCURVE",
"307 506 CURVE SMOOTH",
"321 589 OFFCURVE",
"369 598 OFFCURVE",
"433 598 CURVE SMOOTH",
"450 598 OFFCURVE",
"468 597 OFFCURVE",
"487 597 CURVE SMOOTH",
"539 597 OFFCURVE",
"576 556 OFFCURVE",
"576 475 CURVE SMOOTH",
"576 467 OFFCURVE",
"575 460 OFFCURVE",
"575 452 CURVE SMOOTH",
"575 443 OFFCURVE",
"580 439 OFFCURVE",
"584 439 CURVE SMOOTH",
"587 439 OFFCURVE",
"590 441 OFFCURVE",
"590 445 CURVE SMOOTH",
"593 499 OFFCURVE",
"592 524 OFFCURVE",
"597 572 CURVE SMOOTH",
"598 581 OFFCURVE",
"599 588 OFFCURVE",
"599 595 CURVE SMOOTH",
"599 627 OFFCURVE",
"585 639 OFFCURVE",
"548 637 CURVE SMOOTH",
"447 632 OFFCURVE",
"368 630 OFFCURVE",
"265 630 CURVE SMOOTH",
"203 630 OFFCURVE",
"134 634 OFFCURVE",
"64 634 CURVE SMOOTH",
"57 634 OFFCURVE",
"49 626 OFFCURVE",
"49 621 CURVE SMOOTH",
"49 619 OFFCURVE",
"51 617 OFFCURVE",
"55 617 CURVE SMOOTH",
"70 618 OFFCURVE",
"147 617 OFFCURVE",
"168 613 CURVE SMOOTH",
"199 608 OFFCURVE",
"204 573 OFFCURVE",
"204 541 CURVE SMOOTH",
"204 499 OFFCURVE",
"195 400 OFFCURVE",
"187 340 CURVE",
"178 339 OFFCURVE",
"168 338 OFFCURVE",
"163 337 CURVE SMOOTH",
"152 334 OFFCURVE",
"128 323 OFFCURVE",
"128 317 CURVE SMOOTH",
"128 314 OFFCURVE",
"132 313 OFFCURVE",
"142 313 CURVE SMOOTH",
"152 313 LINE SMOOTH",
"161 314 OFFCURVE",
"174 314 OFFCURVE",
"184 315 CURVE",
"176 256 OFFCURVE",
"165 191 OFFCURVE",
"151 132 CURVE SMOOTH",
"127 30 OFFCURVE",
"126 15 OFFCURVE",
"52 15 CURVE SMOOTH",
"32 15 OFFCURVE",
"7 16 OFFCURVE",
"-26 17 CURVE SMOOTH",
"-31 17 OFFCURVE",
"-40 7 OFFCURVE",
"-40 2 CURVE SMOOTH",
"-40 1 OFFCURVE",
"-39 0 OFFCURVE",
"-37 0 CURVE SMOOTH",
"-36 0 LINE SMOOTH",
"31 -1 OFFCURVE",
"113 2 OFFCURVE",
"143 3 CURVE SMOOTH",
"181 5 OFFCURVE",
"211 6 OFFCURVE",
"242 6 CURVE SMOOTH",
"266 6 OFFCURVE",
"291 5 OFFCURVE",
"319 3 CURVE SMOOTH",
"392 -2 OFFCURVE",
"443 -7 OFFCURVE",
"476 -7 CURVE SMOOTH"
);
}
);
width = 602;
}
);
note = E;
unicode = 0045;
},
{
glyphname = F;
lastChange = "2022-03-21 19:26:56 +0000";
layers = (
{
background = {
paths = (
{
closed = 1;
nodes = (
"603 622 OFFCURVE",
"593 639 OFFCURVE",
"547 637 CURVE SMOOTH",
"453 632 OFFCURVE",
"377 631 OFFCURVE",
"283 630 CURVE SMOOTH",
"217 629 OFFCURVE",
"141 634 OFFCURVE",
"64 634 CURVE SMOOTH",
"53 634 OFFCURVE",
"42 617 OFFCURVE",
"55 617 CURVE SMOOTH",
"70 618 OFFCURVE",
"147 617 OFFCURVE",
"168 613 CURVE SMOOTH",
"211 606 OFFCURVE",
"204 541 OFFCURVE",
"203 509 CURVE SMOOTH",
"202 478 OFFCURVE",
"197 414 OFFCURVE",
"187 340 CURVE",
"178 339 OFFCURVE",
"168 338 OFFCURVE",
"163 337 CURVE SMOOTH",
"146 332 OFFCURVE",
"101 309 OFFCURVE",
"152 313 CURVE SMOOTH",
"161 314 OFFCURVE",
"174 314 OFFCURVE",
"184 315 CURVE",
"176 256 OFFCURVE",
"165 191 OFFCURVE",
"151 132 CURVE SMOOTH",
"121 2 OFFCURVE",
"127 14 OFFCURVE",
"-26 17 CURVE SMOOTH",
"-33 17 OFFCURVE",
"-46 -2 OFFCURVE",
"-36 0 CURVE",
"31 -1 OFFCURVE",
"113 2 OFFCURVE",
"143 3 CURVE SMOOTH",
"210 6 OFFCURVE",
"337 4 OFFCURVE",
"403 0 CURVE SMOOTH",
"414 -1 OFFCURVE",
"425 17 OFFCURVE",
"412 16 CURVE SMOOTH",
"397 15 OFFCURVE",
"328 13 OFFCURVE",
"307 17 CURVE SMOOTH",
"295 19 OFFCURVE",
"270 30 OFFCURVE",
"263 63 CURVE SMOOTH",
"253 107 OFFCURVE",
"263 214 OFFCURVE",
"276 316 CURVE",
"307 315 OFFCURVE",
"346 314 OFFCURVE",
"407 313 CURVE SMOOTH",
"434 313 OFFCURVE",
"459 311 OFFCURVE",
"484 322 CURVE",
"500 331 OFFCURVE",
"532 350 OFFCURVE",
"542 370 CURVE SMOOTH",
"545 377 OFFCURVE",
"544 381 OFFCURVE",
"538 376 CURVE SMOOTH",
"527 368 OFFCURVE",
"463 356 OFFCURVE",
"417 354 CURVE SMOOTH",
"366 351 OFFCURVE",
"320 349 OFFCURVE",
"280 347 CURVE",
"292 428 OFFCURVE",
"304 500 OFFCURVE",
"310 529 CURVE SMOOTH",
"325 597 OFFCURVE",
"385 596 OFFCURVE",
"484 597 CURVE SMOOTH",
"541 598 OFFCURVE",
"581 550 OFFCURVE",
"574 454 CURVE SMOOTH",
"573 437 OFFCURVE",
"588 436 OFFCURVE",
"589 445 CURVE SMOOTH",
"593 499 OFFCURVE",
"592 524 OFFCURVE",
"597 572 CURVE SMOOTH"
);
}
);
};
layerId = "404CF7D8-B1FB-4D32-849A-66F5CDD10145";
paths = (
{
closed = 1;
nodes = (
"-36 0 LINE SMOOTH",
"31 0 OFFCURVE",
"113 2 OFFCURVE",
"143 3 CURVE SMOOTH",
"165 4 OFFCURVE",
"194 4 OFFCURVE",
"226 4 CURVE SMOOTH",
"288 4 OFFCURVE",
"359 3 OFFCURVE",
"403 0 CURVE SMOOTH",
"411 -1 OFFCURVE",
"418 7 OFFCURVE",
"418 12 CURVE SMOOTH",
"418 14 OFFCURVE",
"416 16 OFFCURVE",
"413 16 CURVE SMOOTH",
"412 16 LINE SMOOTH",
"404 16 OFFCURVE",
"379 15 OFFCURVE",
"356 15 CURVE SMOOTH",
"336 15 OFFCURVE",
"317 15 OFFCURVE",
"307 17 CURVE SMOOTH",
"274 22 OFFCURVE",
"259 55 OFFCURVE",
"259 100 CURVE SMOOTH",
"259 167 OFFCURVE",
"267 243 OFFCURVE",
"276 316 CURVE",
"310 315 OFFCURVE",
"355 313 OFFCURVE",
"428 313 CURVE SMOOTH",
"447 313 OFFCURVE",
"466 314 OFFCURVE",
"484 322 CURVE SMOOTH",
"500 331 OFFCURVE",
"532 350 OFFCURVE",
"542 370 CURVE SMOOTH",
"544 375 OFFCURVE",
"544 378 OFFCURVE",
"542 378 CURVE SMOOTH",
"541 378 OFFCURVE",
"540 378 OFFCURVE",
"538 376 CURVE SMOOTH",
"527 368 OFFCURVE",
"463 356 OFFCURVE",
"417 354 CURVE SMOOTH",
"366 351 OFFCURVE",
"320 349 OFFCURVE",
"280 347 CURVE",
"292 428 OFFCURVE",
"304 500 OFFCURVE",
"310 529 CURVE SMOOTH",
"317 561 OFFCURVE",
"334 577 OFFCURVE",
"360 586 CURVE SMOOTH",
"383 594 OFFCURVE",
"420 597 OFFCURVE",
"486 597 CURVE SMOOTH",
"538 597 OFFCURVE",
"575 556 OFFCURVE",
"575 475 CURVE SMOOTH",
"575 467 OFFCURVE",
"574 460 OFFCURVE",
"574 452 CURVE SMOOTH",
"574 443 OFFCURVE",
"579 439 OFFCURVE",
"583 439 CURVE SMOOTH",
"587 439 OFFCURVE",
"590 442 OFFCURVE",
"590 451 CURVE SMOOTH",
"590 508 OFFCURVE",
"599 581 OFFCURVE",
"599 595 CURVE SMOOTH",
"599 626 OFFCURVE",
"585 639 OFFCURVE",
"547 637 CURVE SMOOTH",
"447 632 OFFCURVE",
"368 630 OFFCURVE",
"265 630 CURVE SMOOTH",
"203 630 OFFCURVE",
"134 634 OFFCURVE",
"64 634 CURVE SMOOTH",
"57 634 OFFCURVE",
"49 626 OFFCURVE",
"49 621 CURVE SMOOTH",
"49 619 OFFCURVE",
"51 617 OFFCURVE",
"55 617 CURVE SMOOTH",
"70 618 OFFCURVE",
"147 617 OFFCURVE",
"168 613 CURVE SMOOTH",
"199 608 OFFCURVE",
"204 573 OFFCURVE",
"204 541 CURVE SMOOTH",
"204 499 OFFCURVE",
"195 400 OFFCURVE",
"187 340 CURVE",
"178 339 OFFCURVE",
"168 338 OFFCURVE",
"163 337 CURVE SMOOTH",
"152 334 OFFCURVE",
"128 323 OFFCURVE",
"128 317 CURVE SMOOTH",
"128 314 OFFCURVE",
"132 313 OFFCURVE",
"142 313 CURVE SMOOTH",
"152 313 LINE SMOOTH",
"161 313 OFFCURVE",
"174 314 OFFCURVE",
"184 315 CURVE",
"176 256 OFFCURVE",
"165 191 OFFCURVE",
"148 120 CURVE SMOOTH",
"125 22 OFFCURVE",
"119 15 OFFCURVE",
"49 15 CURVE SMOOTH",
"32 15 OFFCURVE",
"7 16 OFFCURVE",
"-26 17 CURVE SMOOTH",
"-31 17 OFFCURVE",
"-40 7 OFFCURVE",
"-40 2 CURVE SMOOTH",
"-40 1 OFFCURVE",
"-39 0 OFFCURVE",
"-37 0 CURVE SMOOTH"
);
}
);
width = 616;
}
);
note = F;
unicode = 0046;
},
{
glyphname = G;
lastChange = "2022-03-21 19:32:08 +0000";
layers = (
{
background = {
paths = (
{
closed = 1;
nodes = (
"663 275 OFFCURVE",
"583 274 OFFCURVE",
"558 274 CURVE SMOOTH",
"492 274 OFFCURVE",
"444 276 OFFCURVE",
"377 279 CURVE SMOOTH",
"367 280 OFFCURVE",
"354 262 OFFCURVE",
"368 262 CURVE SMOOTH",
"383 263 OFFCURVE",
"461 265 OFFCURVE",
"482 262 CURVE SMOOTH",
"494 260 OFFCURVE",
"515 247 OFFCURVE",
"511 221 CURVE SMOOTH",
"506 183 OFFCURVE",
"504 129 OFFCURVE",
"495 91 CURVE SMOOTH",
"461 -59 OFFCURVE",
"113 30 OFFCURVE",
"112 307 CURVE SMOOTH",
"112 508 OFFCURVE",
"257 583 OFFCURVE",
"421 583 CURVE SMOOTH",
"479 583 OFFCURVE",
"575 578 OFFCURVE",
"575 505 CURVE SMOOTH",
"575 482 OFFCURVE",
"567 459 OFFCURVE",
"560 437 CURVE SMOOTH",
"559 434 OFFCURVE",
"559 432 OFFCURVE",
"559 430 CURVE SMOOTH",
"559 426 OFFCURVE",
"561 422 OFFCURVE",
"566 422 CURVE SMOOTH",
"570 422 OFFCURVE",
"573 424 OFFCURVE",
"574 427 CURVE SMOOTH",
"583 450 OFFCURVE",
"589 473 OFFCURVE",
"597 496 CURVE SMOOTH",
"604 517 OFFCURVE",
"614 537 OFFCURVE",
"619 560 CURVE SMOOTH",
"621 567 OFFCURVE",
"624 574 OFFCURVE",
"624 582 CURVE SMOOTH",
"624 632 OFFCURVE",
"554 644 OFFCURVE",
"512 644 CURVE SMOOTH",
"215 644 OFFCURVE",
"7 458 OFFCURVE",
"7 248 CURVE SMOOTH",
"7 84 OFFCURVE",
"148 -9 OFFCURVE",
"304 -9 CURVE SMOOTH",
"381 -9 OFFCURVE",
"542 26 OFFCURVE",
"573 0 CURVE SMOOTH",
"588 -12 OFFCURVE",
"594 -8 OFFCURVE",
"594 6 CURVE SMOOTH",
"592 57 OFFCURVE",
"600 148 OFFCURVE",
"607 172 CURVE SMOOTH",
"627 242 OFFCURVE",
"636 267 OFFCURVE",
"686 267 CURVE SMOOTH",
"705 267 OFFCURVE",
"728 265 OFFCURVE",
"758 263 CURVE",
"771 260 OFFCURVE",
"770 282 OFFCURVE",
"759 280 CURVE"
);
}
);
};
layerId = "404CF7D8-B1FB-4D32-849A-66F5CDD10145";
paths = (
{
closed = 1;
nodes = (
"360 -9 OFFCURVE",
"461 10 OFFCURVE",
"523 10 CURVE SMOOTH",
"547 10 OFFCURVE",
"565 7 OFFCURVE",
"573 0 CURVE SMOOTH",
"579 -5 OFFCURVE",
"584 -7 OFFCURVE",
"587 -7 CURVE SMOOTH",
"592 -7 OFFCURVE",
"594 -2 OFFCURVE",
"594 6 CURVE SMOOTH",
"592 57 OFFCURVE",
"600 148 OFFCURVE",
"607 172 CURVE SMOOTH",
"627 242 OFFCURVE",
"636 267 OFFCURVE",
"686 267 CURVE SMOOTH",
"716 267 OFFCURVE",
"748 263 OFFCURVE",
"758 263 CURVE SMOOTH",
"765 263 OFFCURVE",
"768 266 OFFCURVE",
"768 271 CURVE SMOOTH",
"768 275 OFFCURVE",
"765 280 OFFCURVE",
"760 280 CURVE SMOOTH",
"752 280 OFFCURVE",
"646 274 OFFCURVE",
"558 274 CURVE SMOOTH",
"441 274 OFFCURVE",
"395 279 OFFCURVE",
"376 279 CURVE SMOOTH",
"370 279 OFFCURVE",
"362 272 OFFCURVE",
"362 266 CURVE SMOOTH",
"362 264 OFFCURVE",
"364 262 OFFCURVE",
"368 262 CURVE SMOOTH",
"376 262 OFFCURVE",
"417 264 OFFCURVE",
"461 264 CURVE SMOOTH",
"493 264 OFFCURVE",
"511 252 OFFCURVE",
"511 227 CURVE SMOOTH",
"511 217 OFFCURVE",
"504 129 OFFCURVE",
"495 91 CURVE SMOOTH",
"484 42 OFFCURVE",
"440 19 OFFCURVE",
"385 19 CURVE SMOOTH",
"271 19 OFFCURVE",
"113 120 OFFCURVE",
"112 307 CURVE SMOOTH",
"112 508 OFFCURVE",
"257 583 OFFCURVE",
"421 583 CURVE SMOOTH",
"479 583 OFFCURVE",
"575 578 OFFCURVE",
"575 505 CURVE SMOOTH",
"575 482 OFFCURVE",
"567 459 OFFCURVE",
"561 440 CURVE SMOOTH",
"560 436 OFFCURVE",
"559 434 OFFCURVE",
"559 430 CURVE SMOOTH",
"559 426 OFFCURVE",
"561 422 OFFCURVE",
"567 422 CURVE SMOOTH",
"571 422 OFFCURVE",
"573 425 OFFCURVE",
"574 427 CURVE SMOOTH",
"583 450 OFFCURVE",
"588 473 OFFCURVE",
"597 496 CURVE SMOOTH",
"608 525 OFFCURVE",
"624 564 OFFCURVE",
"624 582 CURVE SMOOTH",
"624 632 OFFCURVE",
"554 644 OFFCURVE",
"512 644 CURVE SMOOTH",
"215 644 OFFCURVE",
"7 458 OFFCURVE",
"7 248 CURVE SMOOTH",
"7 84 OFFCURVE",
"148 -9 OFFCURVE",
"304 -9 CURVE SMOOTH"
);
}
);
width = 659;
}
);
note = G;
unicode = 0047;
},
{
glyphname = H;
lastChange = "2022-03-21 19:43:03 +0000";
layers = (
{
background = {
paths = (
{
closed = 1;
nodes = (
"897 635 OFFCURVE",
"815 632 OFFCURVE",
"784 631 CURVE SMOOTH",
"760 630 OFFCURVE",
"743 629 OFFCURVE",
"733 629 CURVE SMOOTH",
"668 629 OFFCURVE",
"651 630 OFFCURVE",
"585 634 CURVE SMOOTH",
"575 635 OFFCURVE",
"563 617 OFFCURVE",
"576 618 CURVE SMOOTH",
"591 619 OFFCURVE",
"630 621 OFFCURVE",
"651 618 CURVE SMOOTH",
"663 615 OFFCURVE",
"684 603 OFFCURVE",
"681 577 CURVE SMOOTH",
"674 511 OFFCURVE",
"667 449 OFFCURVE",
"660 388 CURVE SMOOTH",
"658 367 OFFCURVE",
"649 362 OFFCURVE",
"629 362 CURVE SMOOTH",
"362 362 LINE SMOOTH",
"338 362 OFFCURVE",
"337 374 OFFCURVE",
"338 382 CURVE SMOOTH",
"347 448 OFFCURVE",
"358 508 OFFCURVE",
"364 532 CURVE SMOOTH",
"380 600 OFFCURVE",
"396 614 OFFCURVE",
"438 618 CURVE SMOOTH",
"456 620 OFFCURVE",
"472 620 OFFCURVE",
"502 619 CURVE",
"514 615 OFFCURVE",
"513 637 OFFCURVE",
"502 635 CURVE",
"450 633 OFFCURVE",
"393 632 OFFCURVE",
"365 631 CURVE SMOOTH",
"299 628 OFFCURVE",
"190 634 OFFCURVE",
"123 634 CURVE SMOOTH",
"112 634 OFFCURVE",
"101 617 OFFCURVE",
"114 617 CURVE SMOOTH",
"129 618 OFFCURVE",
"206 616 OFFCURVE",
"227 613 CURVE SMOOTH",
"245 610 OFFCURVE",
"264 587 OFFCURVE",
"262 561 CURVE SMOOTH",
"248 412 OFFCURVE",
"232 280 OFFCURVE",
"200 132 CURVE SMOOTH",
"171 1 OFFCURVE",
"176 15 OFFCURVE",
"23 17 CURVE",
"16 18 OFFCURVE",
"3 -2 OFFCURVE",
"14 0 CURVE",
"80 -1 OFFCURVE",
"162 2 OFFCURVE",
"192 3 CURVE SMOOTH",
"259 6 OFFCURVE",
"337 4 OFFCURVE",
"403 0 CURVE SMOOTH",
"414 -1 OFFCURVE",
"426 17 OFFCURVE",
"412 16 CURVE SMOOTH",
"397 15 OFFCURVE",
"352 17 OFFCURVE",
"331 20 CURVE SMOOTH",
"319 23 OFFCURVE",
"299 35 OFFCURVE",
"300 61 CURVE SMOOTH",
"302 104 OFFCURVE",
"317 222 OFFCURVE",
"325 293 CURVE SMOOTH",
"327 309 OFFCURVE",
"333 321 OFFCURVE",
"347 321 CURVE SMOOTH",
"622 321 LINE SMOOTH",
"642 321 OFFCURVE",
"651 321 OFFCURVE",
"648 299 CURVE SMOOTH",
"640 244 OFFCURVE",
"638 190 OFFCURVE",
"625 132 CURVE SMOOTH",
"597 1 OFFCURVE",
"577 13 OFFCURVE",
"502 17 CURVE",
"489 20 OFFCURVE",
"492 -2 OFFCURVE",
"502 0 CURVE",
"573 2 OFFCURVE",
"581 2 OFFCURVE",
"611 3 CURVE SMOOTH",
"678 6 OFFCURVE",
"787 0 OFFCURVE",
"854 0 CURVE SMOOTH",
"864 0 OFFCURVE",
"876 17 OFFCURVE",
"863 16 CURVE SMOOTH",
"848 15 OFFCURVE",
"771 17 OFFCURVE",
"750 20 CURVE SMOOTH",
"738 23 OFFCURVE",
"719 35 OFFCURVE",
"720 61 CURVE SMOOTH",
"724 139 OFFCURVE",
"755 395 OFFCURVE",
"777 501 CURVE SMOOTH",
"804 633 OFFCURVE",
"801 618 OFFCURVE",
"953 616 CURVE",
"961 615 OFFCURVE",
"974 635 OFFCURVE",
"963 633 CURVE"
);
}
);
};
layerId = "404CF7D8-B1FB-4D32-849A-66F5CDD10145";
paths = (
{
closed = 1;
nodes = (
"14 0 LINE SMOOTH",
"80 0 OFFCURVE",
"162 2 OFFCURVE",
"192 3 CURVE SMOOTH",
"214 4 OFFCURVE",
"238 4 OFFCURVE",
"262 4 CURVE SMOOTH",
"310 4 OFFCURVE",
"359 3 OFFCURVE",
"403 0 CURVE SMOOTH",
"411 -1 OFFCURVE",
"418 7 OFFCURVE",
"418 12 CURVE SMOOTH",
"418 14 OFFCURVE",
"417 16 OFFCURVE",
"413 16 CURVE SMOOTH",
"412 16 LINE SMOOTH",
"397 16 OFFCURVE",
"352 16 OFFCURVE",
"331 20 CURVE SMOOTH",
"317 22 OFFCURVE",
"300 35 OFFCURVE",
"300 59 CURVE SMOOTH",
"300 101 OFFCURVE",
"317 221 OFFCURVE",
"325 293 CURVE SMOOTH",
"327 309 OFFCURVE",
"333 321 OFFCURVE",
"347 321 CURVE SMOOTH",
"629 321 LINE SMOOTH",
"644 321 OFFCURVE",
"649 317 OFFCURVE",
"649 306 CURVE SMOOTH",
"649 294 OFFCURVE",
"637 190 OFFCURVE",
"625 132 CURVE SMOOTH",
"604 30 OFFCURVE",
"586 15 OFFCURVE",
"545 15 CURVE SMOOTH",
"522 15 OFFCURVE",
"514 17 OFFCURVE",
"500 17 CURVE SMOOTH",
"496 17 OFFCURVE",
"493 14 OFFCURVE",
"493 10 CURVE SMOOTH",
"493 5 OFFCURVE",
"496 0 OFFCURVE",
"501 0 CURVE SMOOTH",
"509 0 OFFCURVE",
"574 2 OFFCURVE",
"611 3 CURVE SMOOTH",
"624 3 OFFCURVE",
"639 4 OFFCURVE",
"656 4 CURVE SMOOTH",
"720 4 OFFCURVE",
"800 0 OFFCURVE",
"854 0 CURVE SMOOTH",
"861 0 OFFCURVE",
"869 8 OFFCURVE",
"869 12 CURVE SMOOTH",
"869 15 OFFCURVE",
"867 16 OFFCURVE",
"864 16 CURVE SMOOTH",
"848 16 OFFCURVE",
"771 17 OFFCURVE",
"750 20 CURVE SMOOTH",
"738 22 OFFCURVE",
"719 35 OFFCURVE",
"720 61 CURVE SMOOTH",
"724 139 OFFCURVE",
"755 395 OFFCURVE",
"777 501 CURVE SMOOTH",
"798 604 OFFCURVE",
"801 618 OFFCURVE",
"873 618 CURVE SMOOTH",
"894 618 OFFCURVE",
"920 616 OFFCURVE",
"953 616 CURVE",
"959 615 OFFCURVE",
"967 625 OFFCURVE",
"967 630 CURVE SMOOTH",
"967 632 OFFCURVE",
"966 633 OFFCURVE",
"964 633 CURVE SMOOTH",
"963 633 LINE SMOOTH",
"947 633 OFFCURVE",
"930 634 OFFCURVE",
"914 634 CURVE SMOOTH",
"861 634 OFFCURVE",
"768 629 OFFCURVE",
"720 629 CURVE SMOOTH",
"638 629 OFFCURVE",
"597 634 OFFCURVE",
"584 634 CURVE SMOOTH",
"578 634 OFFCURVE",
"570 626 OFFCURVE",
"570 622 CURVE SMOOTH",
"570 619 OFFCURVE",
"572 618 OFFCURVE",
"575 618 CURVE SMOOTH",
"585 618 OFFCURVE",
"603 620 OFFCURVE",
"621 620 CURVE SMOOTH",
"632 620 OFFCURVE",
"643 619 OFFCURVE",
"651 618 CURVE SMOOTH",
"663 615 OFFCURVE",
"684 603 OFFCURVE",
"681 577 CURVE SMOOTH",
"674 511 OFFCURVE",
"667 449 OFFCURVE",
"660 388 CURVE SMOOTH",
"658 367 OFFCURVE",
"649 362 OFFCURVE",
"629 362 CURVE SMOOTH",
"358 362 LINE SMOOTH",
"346 362 OFFCURVE",
"338 368 OFFCURVE",
"338 378 CURVE SMOOTH",
"338 400 OFFCURVE",
"356 499 OFFCURVE",
"364 532 CURVE SMOOTH",
"380 600 OFFCURVE",
"396 614 OFFCURVE",
"438 618 CURVE SMOOTH",
"449 619 OFFCURVE",
"458 620 OFFCURVE",
"471 620 CURVE SMOOTH",
"488 620 OFFCURVE",
"498 618 OFFCURVE",
"505 618 CURVE SMOOTH",
"508 618 OFFCURVE",
"511 621 OFFCURVE",
"511 626 CURVE SMOOTH",
"511 630 OFFCURVE",
"508 635 OFFCURVE",
"503 635 CURVE SMOOTH",
"450 635 OFFCURVE",
"393 632 OFFCURVE",
"365 631 CURVE SMOOTH",
"352 630 OFFCURVE",
"337 630 OFFCURVE",
"321 630 CURVE SMOOTH",
"257 630 OFFCURVE",
"177 634 OFFCURVE",
"123 634 CURVE SMOOTH",
"116 634 OFFCURVE",
"108 626 OFFCURVE",
"108 621 CURVE SMOOTH",
"108 619 OFFCURVE",
"110 617 OFFCURVE",
"114 617 CURVE SMOOTH",
"129 618 OFFCURVE",
"206 616 OFFCURVE",
"227 613 CURVE SMOOTH",
"245 610 OFFCURVE",
"264 587 OFFCURVE",
"262 561 CURVE SMOOTH",
"248 412 OFFCURVE",
"232 280 OFFCURVE",
"200 132 CURVE SMOOTH",
"177 29 OFFCURVE",
"175 16 OFFCURVE",
"101 16 CURVE SMOOTH",
"81 16 OFFCURVE",
"56 17 OFFCURVE",
"23 17 CURVE",
"18 18 OFFCURVE",
"10 8 OFFCURVE",
"10 3 CURVE SMOOTH",
"10 1 OFFCURVE",
"11 0 OFFCURVE",
"13 0 CURVE SMOOTH"
);
}
);
width = 877;
}
);
note = H;
unicode = 0048;
},
{
glyphname = I;
lastChange = "2022-03-21 19:48:07 +0000";
layers = (
{
background = {
paths = (
{
closed = 1;
nodes = (
"477 635 OFFCURVE",
"395 632 OFFCURVE",
"364 631 CURVE SMOOTH",
"298 628 OFFCURVE",
"189 634 OFFCURVE",
"122 634 CURVE SMOOTH",
"112 634 OFFCURVE",
"100 617 OFFCURVE",
"113 617 CURVE SMOOTH",
"128 618 OFFCURVE",
"205 616 OFFCURVE",
"226 613 CURVE SMOOTH",
"244 610 OFFCURVE",
"264 587 OFFCURVE",
"261 561 CURVE SMOOTH",
"247 412 OFFCURVE",
"231 280 OFFCURVE",
"199 132 CURVE SMOOTH",
"170 1 OFFCURVE",
"175 15 OFFCURVE",
"23 17 CURVE",
"15 18 OFFCURVE",
"2 -2 OFFCURVE",
"13 0 CURVE",
"79 -1 OFFCURVE",
"161 2 OFFCURVE",
"192 3 CURVE SMOOTH",
"258 6 OFFCURVE",
"367 0 OFFCURVE",
"434 0 CURVE SMOOTH",
"445 0 OFFCURVE",
"456 17 OFFCURVE",
"443 16 CURVE SMOOTH",
"428 15 OFFCURVE",
"351 17 OFFCURVE",
"330 20 CURVE SMOOTH",
"318 23 OFFCURVE",
"299 35 OFFCURVE",
"300 61 CURVE SMOOTH",
"303 139 OFFCURVE",
"336 395 OFFCURVE",
"357 501 CURVE SMOOTH",
"384 633 OFFCURVE",
"381 618 OFFCURVE",
"534 616 CURVE",
"541 615 OFFCURVE",
"554 635 OFFCURVE",
"543 633 CURVE"
);
}
);
};
layerId = "404CF7D8-B1FB-4D32-849A-66F5CDD10145";
paths = (
{
closed = 1;
nodes = (
"13 0 LINE SMOOTH",
"133 0 OFFCURVE",
"202 4 OFFCURVE",
"236 4 CURVE SMOOTH",
"300 4 OFFCURVE",
"380 0 OFFCURVE",
"434 0 CURVE SMOOTH",
"442 0 OFFCURVE",
"449 8 OFFCURVE",
"449 12 CURVE SMOOTH",
"449 14 OFFCURVE",
"447 16 OFFCURVE",
"444 16 CURVE SMOOTH",
"426 16 OFFCURVE",
"356 16 OFFCURVE",
"330 20 CURVE SMOOTH",
"318 22 OFFCURVE",
"299 35 OFFCURVE",
"300 61 CURVE SMOOTH",
"303 139 OFFCURVE",
"336 395 OFFCURVE",
"357 501 CURVE SMOOTH",
"378 604 OFFCURVE",
"381 618 OFFCURVE",
"454 618 CURVE SMOOTH",
"474 618 OFFCURVE",
"500 616 OFFCURVE",
"534 616 CURVE",
"539 615 OFFCURVE",
"547 625 OFFCURVE",
"547 630 CURVE SMOOTH",
"547 632 OFFCURVE",
"546 634 OFFCURVE",
"544 634 CURVE SMOOTH",
"426 634 OFFCURVE",
"369 630 OFFCURVE",
"320 630 CURVE SMOOTH",
"256 630 OFFCURVE",
"176 634 OFFCURVE",
"122 634 CURVE SMOOTH",
"115 634 OFFCURVE",
"107 626 OFFCURVE",
"107 621 CURVE SMOOTH",
"107 619 OFFCURVE",
"109 617 OFFCURVE",
"113 617 CURVE SMOOTH",
"128 618 OFFCURVE",
"205 616 OFFCURVE",
"226 613 CURVE SMOOTH",
"244 610 OFFCURVE",
"264 587 OFFCURVE",
"261 561 CURVE SMOOTH",
"247 412 OFFCURVE",
"231 280 OFFCURVE",
"199 132 CURVE SMOOTH",
"176 29 OFFCURVE",
"174 16 OFFCURVE",
"101 16 CURVE SMOOTH",
"59 16 OFFCURVE",
"36 17 OFFCURVE",
"22 17 CURVE SMOOTH",
"17 17 OFFCURVE",
"9 8 OFFCURVE",
"9 3 CURVE SMOOTH",
"9 1 OFFCURVE",
"10 0 OFFCURVE",
"12 0 CURVE SMOOTH"
);
}
);
width = 426;
}
);
note = I;
unicode = 0049;
},
{
glyphname = J;
lastChange = "2022-03-21 19:51:11 +0000";
layers = (
{
background = {
paths = (
{
closed = 1;
nodes = (
"517 635 OFFCURVE",
"452 632 OFFCURVE",
"414 631 CURVE SMOOTH",
"389 630 OFFCURVE",
"364 631 OFFCURVE",
"339 631 CURVE SMOOTH",
"285 632 OFFCURVE",
"239 631 OFFCURVE",
"182 634 CURVE SMOOTH",
"172 635 OFFCURVE",
"157 614 OFFCURVE",
"170 616 CURVE SMOOTH",
"187 619 OFFCURVE",
"265 618 OFFCURVE",
"286 615 CURVE SMOOTH",
"298 612 OFFCURVE",
"319 600 OFFCURVE",
"316 574 CURVE SMOOTH",
"301 423 OFFCURVE",
"286 299 OFFCURVE",
"255 151 CURVE SMOOTH",
"244 100 OFFCURVE",
"230 20 OFFCURVE",
"164 18 CURVE SMOOTH",
"129 17 OFFCURVE",
"113 45 OFFCURVE",
"106 76 CURVE SMOOTH",
"102 94 OFFCURVE",
"98 121 OFFCURVE",
"105 139 CURVE SMOOTH",
"109 151 OFFCURVE",
"99 158 OFFCURVE",
"92 144 CURVE SMOOTH",
"88 136 OFFCURVE",
"85 124 OFFCURVE",
"83 118 CURVE SMOOTH",
"69 71 OFFCURVE",
"53 71 OFFCURVE",
"36 48 CURVE SMOOTH",
"29 39 OFFCURVE",
"33 28 OFFCURVE",
"40 19 CURVE SMOOTH",
"75 -25 OFFCURVE",
"161 -20 OFFCURVE",
"210 -12 CURVE SMOOTH",
"265 -3 OFFCURVE",
"303 20 OFFCURVE",
"328 49 CURVE SMOOTH",
"359 87 OFFCURVE",
"357 122 OFFCURVE",
"363 167 CURVE SMOOTH",
"373 244 OFFCURVE",
"387 348 OFFCURVE",
"398 429 CURVE SMOOTH",
"404 474 OFFCURVE",
"410 514 OFFCURVE",
"415 532 CURVE SMOOTH",
"429 580 OFFCURVE",
"452 619 OFFCURVE",
"496 618 CURVE SMOOTH",
"514 618 OFFCURVE",
"536 617 OFFCURVE",
"562 616 CURVE SMOOTH",
"569 615 OFFCURVE",
"582 635 OFFCURVE",
"572 633 CURVE"
);
}
);
};
layerId = "404CF7D8-B1FB-4D32-849A-66F5CDD10145";
paths = (
{
closed = 1;
nodes = (
"170 -17 OFFCURVE",
"193 -15 OFFCURVE",
"210 -12 CURVE SMOOTH",
"265 -3 OFFCURVE",
"303 20 OFFCURVE",
"328 49 CURVE SMOOTH",
"359 87 OFFCURVE",
"357 122 OFFCURVE",
"363 167 CURVE SMOOTH",
"398 429 LINE SMOOTH",
"404 474 OFFCURVE",
"410 514 OFFCURVE",
"415 532 CURVE SMOOTH",
"429 579 OFFCURVE",
"451 618 OFFCURVE",
"494 618 CURVE SMOOTH",
"513 618 OFFCURVE",
"535 617 OFFCURVE",
"562 616 CURVE",
"567 615 OFFCURVE",
"576 626 OFFCURVE",
"576 631 CURVE SMOOTH",
"576 632 OFFCURVE",
"575 633 OFFCURVE",
"573 633 CURVE SMOOTH",
"572 633 LINE SMOOTH",
"556 633 OFFCURVE",
"538 634 OFFCURVE",
"521 634 CURVE SMOOTH",
"464 634 OFFCURVE",
"408 631 OFFCURVE",
"389 631 CURVE SMOOTH",
"339 631 LINE SMOOTH",
"285 631 OFFCURVE",
"239 631 OFFCURVE",
"182 634 CURVE SMOOTH",
"174 635 OFFCURVE",
"165 624 OFFCURVE",
"165 619 CURVE SMOOTH",
"165 617 OFFCURVE",
"166 616 OFFCURVE",
"168 616 CURVE SMOOTH",
"170 616 LINE SMOOTH",
"177 616 OFFCURVE",
"195 618 OFFCURVE",
"215 618 CURVE SMOOTH",
"242 618 OFFCURVE",
"276 618 OFFCURVE",
"289 614 CURVE SMOOTH",
"308 608 OFFCURVE",
"318 593 OFFCURVE",
"316 574 CURVE SMOOTH",
"301 423 OFFCURVE",
"286 299 OFFCURVE",
"255 151 CURVE SMOOTH",
"244 100 OFFCURVE",
"230 18 OFFCURVE",
"162 18 CURVE SMOOTH",
"126 18 OFFCURVE",
"101 53 OFFCURVE",
"101 116 CURVE SMOOTH",
"101 123 OFFCURVE",
"103 132 OFFCURVE",
"105 139 CURVE SMOOTH",
"107 146 OFFCURVE",
"105 152 OFFCURVE",
"101 152 CURVE SMOOTH",
"97 152 OFFCURVE",
"94 148 OFFCURVE",
"92 144 CURVE SMOOTH",
"88 136 OFFCURVE",
"85 124 OFFCURVE",
"83 118 CURVE SMOOTH",
"69 71 OFFCURVE",
"53 71 OFFCURVE",
"36 48 CURVE SMOOTH",
"33 44 OFFCURVE",
"32 41 OFFCURVE",
"32 37 CURVE SMOOTH",
"32 31 OFFCURVE",
"36 25 OFFCURVE",
"40 19 CURVE SMOOTH",
"63 -9 OFFCURVE",
"106 -17 OFFCURVE",
"147 -17 CURVE SMOOTH"
);
}
);
width = 504;
}
);
note = J;
unicode = 004A;
},
{
glyphname = K;
lastChange = "2022-03-21 19:54:35 +0000";
layers = (
{
background = {
paths = (
{
closed = 1;
nodes = (
"739 635 OFFCURVE",
"693 629 OFFCURVE",
"652 629 CURVE SMOOTH",
"623 629 OFFCURVE",
"561 634 OFFCURVE",
"543 634 CURVE SMOOTH",
"521 636 OFFCURVE",
"517 614 OFFCURVE",
"534 618 CURVE",
"549 619 OFFCURVE",
"621 612 OFFCURVE",
"524 500 CURVE SMOOTH",
"457 423 OFFCURVE",
"388 342 OFFCURVE",
"322 267 CURVE",
"336 376 OFFCURVE",
"353 491 OFFCURVE",
"363 529 CURVE SMOOTH",
"382 598 OFFCURVE",
"394 621 OFFCURVE",
"444 620 CURVE SMOOTH",
"462 620 OFFCURVE",
"471 619 OFFCURVE",
"480 618 CURVE SMOOTH",
"489 617 OFFCURVE",
"498 635 OFFCURVE",
"487 634 CURVE SMOOTH",
"436 631 OFFCURVE",
"392 632 OFFCURVE",
"365 631 CURVE SMOOTH",
"299 628 OFFCURVE",
"190 634 OFFCURVE",
"123 634 CURVE SMOOTH",
"112 634 OFFCURVE",
"101 617 OFFCURVE",
"114 617 CURVE SMOOTH",
"129 618 OFFCURVE",
"206 616 OFFCURVE",
"227 613 CURVE SMOOTH",
"245 610 OFFCURVE",
"264 587 OFFCURVE",
"262 561 CURVE SMOOTH",
"248 412 OFFCURVE",
"232 280 OFFCURVE",
"200 132 CURVE SMOOTH",
"171 1 OFFCURVE",
"176 15 OFFCURVE",
"23 17 CURVE",
"16 18 OFFCURVE",
"3 -2 OFFCURVE",
"14 0 CURVE",
"80 -1 OFFCURVE",
"162 2 OFFCURVE",
"193 3 CURVE SMOOTH",
"259 6 OFFCURVE",
"368 4 OFFCURVE",
"435 0 CURVE SMOOTH",
"445 -1 OFFCURVE",
"457 17 OFFCURVE",
"444 16 CURVE SMOOTH",
"429 15 OFFCURVE",
"352 17 OFFCURVE",
"331 20 CURVE SMOOTH",
"319 23 OFFCURVE",
"299 35 OFFCURVE",
"300 61 CURVE SMOOTH",
"302 90 OFFCURVE",
"307 143 OFFCURVE",
"314 203 CURVE",
"334 226 OFFCURVE",
"356 251 OFFCURVE",
"378 276 CURVE",
"409 193 OFFCURVE",
"501 16 OFFCURVE",
"610 -50 CURVE SMOOTH",
"651 -75 OFFCURVE",
"699 -64 OFFCURVE",
"728 -44 CURVE SMOOTH",
"736 -38 OFFCURVE",
"742 -26 OFFCURVE",
"765 -36 CURVE SMOOTH",
"784 -45 OFFCURVE",
"788 -28 OFFCURVE",
"777 -24 CURVE SMOOTH",
"767 -20 OFFCURVE",
"737 -9 OFFCURVE",
"717 3 CURVE SMOOTH",
"667 32 OFFCURVE",
"435 231 OFFCURVE",
"392 291 CURVE",
"481 390 OFFCURVE",
"582 497 OFFCURVE",
"634 546 CURVE SMOOTH",
"671 582 OFFCURVE",
"705 602 OFFCURVE",
"730 611 CURVE SMOOTH",
"747 617 OFFCURVE",
"768 617 OFFCURVE",
"795 616 CURVE SMOOTH",
"803 615 OFFCURVE",
"816 635 OFFCURVE",
"805 633 CURVE"
);
}
);
};
layerId = "404CF7D8-B1FB-4D32-849A-66F5CDD10145";
paths = (
{
closed = 1;
nodes = (
"687 -64 OFFCURVE",
"711 -56 OFFCURVE",
"728 -44 CURVE SMOOTH",
"734 -40 OFFCURVE",
"739 -32 OFFCURVE",
"749 -32 CURVE SMOOTH",
"759 -32 OFFCURVE",
"769 -39 OFFCURVE",
"775 -39 CURVE SMOOTH",
"780 -39 OFFCURVE",
"783 -36 OFFCURVE",
"783 -32 CURVE SMOOTH",
"783 -29 OFFCURVE",
"782 -27 OFFCURVE",
"777 -24 CURVE SMOOTH",
"767 -20 OFFCURVE",
"737 -9 OFFCURVE",
"717 3 CURVE SMOOTH",
"667 32 OFFCURVE",
"435 231 OFFCURVE",
"392 291 CURVE",
"481 390 OFFCURVE",
"582 497 OFFCURVE",
"634 546 CURVE SMOOTH",
"671 582 OFFCURVE",
"705 602 OFFCURVE",
"730 611 CURVE SMOOTH",
"747 617 OFFCURVE",
"769 616 OFFCURVE",
"796 616 CURVE SMOOTH",
"801 616 OFFCURVE",
"809 625 OFFCURVE",
"809 630 CURVE SMOOTH",
"809 632 OFFCURVE",
"808 633 OFFCURVE",
"806 633 CURVE SMOOTH",
"753 633 LINE SMOOTH",
"730 633 OFFCURVE",
"693 629 OFFCURVE",
"652 629 CURVE SMOOTH",
"621 629 OFFCURVE",
"554 634 OFFCURVE",
"541 634 CURVE SMOOTH",
"529 634 OFFCURVE",
"524 628 OFFCURVE",
"524 623 CURVE SMOOTH",
"524 620 OFFCURVE",
"526 618 OFFCURVE",
"530 618 CURVE SMOOTH",
"534 618 LINE SMOOTH",
"543 618 OFFCURVE",
"574 616 OFFCURVE",
"574 589 CURVE SMOOTH",
"574 571 OFFCURVE",
"562 543 OFFCURVE",
"524 500 CURVE SMOOTH",
"457 423 OFFCURVE",
"388 342 OFFCURVE",
"322 267 CURVE",
"336 376 OFFCURVE",
"353 491 OFFCURVE",
"363 529 CURVE SMOOTH",
"385 607 OFFCURVE",
"400 620 OFFCURVE",
"441 620 CURVE SMOOTH",
"462 620 OFFCURVE",
"472 618 OFFCURVE",
"481 618 CURVE SMOOTH",
"487 618 OFFCURVE",
"492 625 OFFCURVE",
"492 630 CURVE SMOOTH",
"492 632 OFFCURVE",
"491 634 OFFCURVE",
"488 634 CURVE SMOOTH",
"483 634 OFFCURVE",
"367 630 OFFCURVE",
"321 630 CURVE SMOOTH",
"257 630 OFFCURVE",
"177 634 OFFCURVE",
"123 634 CURVE SMOOTH",
"116 634 OFFCURVE",
"108 626 OFFCURVE",
"108 621 CURVE SMOOTH",
"108 619 OFFCURVE",
"110 617 OFFCURVE",
"114 617 CURVE SMOOTH",
"129 618 OFFCURVE",
"206 616 OFFCURVE",
"227 613 CURVE SMOOTH",
"245 610 OFFCURVE",
"264 587 OFFCURVE",
"262 561 CURVE SMOOTH",
"248 412 OFFCURVE",
"232 280 OFFCURVE",
"200 132 CURVE SMOOTH",
"177 29 OFFCURVE",
"175 16 OFFCURVE",
"101 16 CURVE SMOOTH",
"56 16 OFFCURVE",
"41 17 OFFCURVE",
"22 17 CURVE SMOOTH",
"17 17 OFFCURVE",
"10 8 OFFCURVE",
"10 3 CURVE SMOOTH",
"10 1 OFFCURVE",
"11 0 OFFCURVE",
"13 0 CURVE SMOOTH",
"14 0 LINE SMOOTH",
"80 0 OFFCURVE",
"162 2 OFFCURVE",
"193 3 CURVE SMOOTH",
"215 4 OFFCURVE",
"242 4 OFFCURVE",
"270 4 CURVE SMOOTH",
"327 4 OFFCURVE",
"390 3 OFFCURVE",
"435 0 CURVE SMOOTH",
"442 -1 OFFCURVE",
"450 8 OFFCURVE",
"450 12 CURVE SMOOTH",
"450 15 OFFCURVE",
"448 16 OFFCURVE",
"445 16 CURVE SMOOTH",
"419 16 OFFCURVE",
"353 17 OFFCURVE",
"331 20 CURVE SMOOTH",
"315 23 OFFCURVE",
"299 38 OFFCURVE",
"300 61 CURVE SMOOTH",
"302 90 OFFCURVE",
"307 143 OFFCURVE",
"314 203 CURVE",
"378 276 LINE",
"409 193 OFFCURVE",
"501 16 OFFCURVE",
"610 -50 CURVE SMOOTH",
"627 -60 OFFCURVE",
"645 -64 OFFCURVE",
"662 -64 CURVE SMOOTH"
);
}
);
width = 786;
}
);
note = K;
unicode = 004B;
},
{
glyphname = L;
lastChange = "2022-03-21 18:59:40 +0000";
layers = (
{
background = {
paths = (
{
closed = 1;
nodes = (
"602 182 OFFCURVE",
"593 190 OFFCURVE",
"590 183 CURVE SMOOTH",
"551 94 OFFCURVE",
"475 32 OFFCURVE",
"373 32 CURVE SMOOTH",
"269 32 OFFCURVE",
"256 64 OFFCURVE",
"260 113 CURVE SMOOTH",
"271 268 OFFCURVE",
"280 353 OFFCURVE",
"306 506 CURVE SMOOTH",
"329 637 OFFCURVE",
"352 628 OFFCURVE",
"503 624 CURVE",
"516 621 OFFCURVE",
"514 643 OFFCURVE",
"503 641 CURVE",
"433 639 OFFCURVE",
"335 634 OFFCURVE",
"304 634 CURVE SMOOTH",
"238 634 OFFCURVE",
"136 636 OFFCURVE",
"70 639 CURVE SMOOTH",
"59 640 OFFCURVE",
"49 622 OFFCURVE",
"62 622 CURVE SMOOTH",
"77 623 OFFCURVE",
"152 624 OFFCURVE",
"174 618 CURVE SMOOTH",
"187 615 OFFCURVE",
"207 604 OFFCURVE",
"207 578 CURVE SMOOTH",
"207 438 OFFCURVE",
"166 184 OFFCURVE",
"151 117 CURVE SMOOTH",
"132 31 OFFCURVE",
"97 16 OFFCURVE",
"48 16 CURVE SMOOTH",
"30 16 OFFCURVE",
"11 15 OFFCURVE",
"-19 17 CURVE",
"-32 20 OFFCURVE",
"-29 -2 OFFCURVE",
"-19 0 CURVE",
"49 0 OFFCURVE",
"119 0 OFFCURVE",
"145 0 CURVE SMOOTH",
"209 0 OFFCURVE",
"281 10 OFFCURVE",
"326 5 CURVE SMOOTH",
"438 -8 OFFCURVE",
"499 -13 OFFCURVE",
"519 0 CURVE SMOOTH",
"566 31 OFFCURVE",
"588 145 OFFCURVE",
"599 175 CURVE SMOOTH"
);
}
);
};
layerId = "404CF7D8-B1FB-4D32-849A-66F5CDD10145";
paths = (
{
closed = 1;
nodes = (
"496 -8 OFFCURVE",
"511 -5 OFFCURVE",
"519 0 CURVE SMOOTH",
"566 31 OFFCURVE",
"588 145 OFFCURVE",
"599 175 CURVE SMOOTH",
"601 180 OFFCURVE",
"597 186 OFFCURVE",
"593 186 CURVE SMOOTH",
"592 186 OFFCURVE",
"591 185 OFFCURVE",
"590 183 CURVE SMOOTH",
"551 94 OFFCURVE",
"475 32 OFFCURVE",
"373 32 CURVE SMOOTH",
"269 32 OFFCURVE",
"256 64 OFFCURVE",
"260 113 CURVE SMOOTH",
"271 268 OFFCURVE",
"280 353 OFFCURVE",
"306 506 CURVE SMOOTH",
"324 610 OFFCURVE",
"343 626 OFFCURVE",
"425 626 CURVE SMOOTH",
"447 626 OFFCURVE",
"472 625 OFFCURVE",
"503 624 CURVE",
"509 623 OFFCURVE",
"512 627 OFFCURVE",
"512 631 CURVE SMOOTH",
"512 636 OFFCURVE",
"509 641 OFFCURVE",
"504 641 CURVE SMOOTH",
"503 641 LINE SMOOTH",
"433 639 OFFCURVE",
"335 634 OFFCURVE",
"304 634 CURVE SMOOTH",
"238 634 OFFCURVE",
"136 636 OFFCURVE",
"70 639 CURVE SMOOTH",
"63 640 OFFCURVE",
"56 632 OFFCURVE",
"56 627 CURVE SMOOTH",
"56 624 OFFCURVE",
"58 622 OFFCURVE",
"62 622 CURVE SMOOTH",
"68 622 OFFCURVE",
"82 623 OFFCURVE",
"99 623 CURVE SMOOTH",
"126 623 OFFCURVE",
"160 622 OFFCURVE",
"174 618 CURVE SMOOTH",
"187 615 OFFCURVE",
"207 604 OFFCURVE",
"207 578 CURVE SMOOTH",
"207 438 OFFCURVE",
"166 184 OFFCURVE",
"151 117 CURVE SMOOTH",
"132 31 OFFCURVE",
"97 16 OFFCURVE",
"48 16 CURVE SMOOTH",
"30 16 OFFCURVE",
"11 15 OFFCURVE",
"-19 17 CURVE SMOOTH",
"-25 18 OFFCURVE",
"-27 14 OFFCURVE",
"-27 10 CURVE SMOOTH",
"-27 5 OFFCURVE",
"-25 0 OFFCURVE",
"-20 0 CURVE",
"-20 0 OFFCURVE",
"-19 0 OFFCURVE",
"-19 0 CURVE",
"145 0 LINE SMOOTH",
"196 0 OFFCURVE",
"253 6 OFFCURVE",
"296 6 CURVE SMOOTH",
"307 6 OFFCURVE",
"317 6 OFFCURVE",
"326 5 CURVE SMOOTH",
"392 -3 OFFCURVE",
"441 -8 OFFCURVE",
"474 -8 CURVE SMOOTH"
);
}
);
width = 602;
}
);
note = L;
unicode = 004C;
},
{
glyphname = M;
lastChange = "2022-03-21 18:59:40 +0000";
layers = (
{
background = {
paths = (
{
closed = 1;
nodes = (
"1065 616 OFFCURVE",
"1063 638 OFFCURVE",
"1052 636 CURVE",
"966 631 OFFCURVE",
"938 629 OFFCURVE",
"911 630 CURVE SMOOTH",
"899 630 OFFCURVE",
"820 635 OFFCURVE",
"811 632 CURVE SMOOTH",
"788 624 OFFCURVE",
"778 587 OFFCURVE",
"737 508 CURVE SMOOTH",
"674 387 OFFCURVE",
"599 242 OFFCURVE",
"539 137 CURVE SMOOTH",
"532 126 OFFCURVE",
"525 125 OFFCURVE",
"521 136 CURVE SMOOTH",
"475 262 OFFCURVE",
"411 525 OFFCURVE",
"402 601 CURVE SMOOTH",
"396 647 OFFCURVE",
"401 634 OFFCURVE",
"297 630 CURVE SMOOTH",
"241 628 OFFCURVE",
"185 631 OFFCURVE",
"129 634 CURVE SMOOTH",
"118 635 OFFCURVE",
"107 618 OFFCURVE",
"120 618 CURVE SMOOTH",
"135 619 OFFCURVE",
"212 621 OFFCURVE",
"233 618 CURVE SMOOTH",
"245 615 OFFCURVE",
"266 603 OFFCURVE",
"263 577 CURVE SMOOTH",
"247 421 OFFCURVE",
"233 285 OFFCURVE",
"199 132 CURVE SMOOTH",
"170 1 OFFCURVE",
"139 16 OFFCURVE",
"12 17 CURVE",
"0 20 OFFCURVE",
"6 0 OFFCURVE",
"17 2 CURVE",
"86 -2 OFFCURVE",
"161 4 OFFCURVE",
"192 5 CURVE SMOOTH",
"258 8 OFFCURVE",
"323 0 OFFCURVE",
"344 0 CURVE SMOOTH",
"355 0 OFFCURVE",
"366 17 OFFCURVE",
"353 16 CURVE SMOOTH",
"338 15 OFFCURVE",
"312 16 OFFCURVE",
"292 20 CURVE SMOOTH",
"279 22 OFFCURVE",
"260 35 OFFCURVE",
"261 61 CURVE SMOOTH",
"265 139 OFFCURVE",
"297 388 OFFCURVE",
"317 494 CURVE",
"365 341 OFFCURVE",
"417 126 OFFCURVE",
"434 45 CURVE SMOOTH",
"440 16 OFFCURVE",
"434 -5 OFFCURVE",
"453 -4 CURVE SMOOTH",
"468 -4 OFFCURVE",
"494 16 OFFCURVE",
"516 31 CURVE SMOOTH",
"533 43 OFFCURVE",
"548 50 OFFCURVE",
"553 54 CURVE",
"567 62 OFFCURVE",
"570 65 OFFCURVE",
"566 76 CURVE SMOOTH",
"564 82 OFFCURVE",
"566 94 OFFCURVE",
"571 106 CURVE SMOOTH",
"597 164 OFFCURVE",
"723 379 OFFCURVE",
"797 492 CURVE",
"786 371 OFFCURVE",
"770 255 OFFCURVE",
"747 132 CURVE SMOOTH",
"723 1 OFFCURVE",
"698 11 OFFCURVE",
"610 14 CURVE",
"597 18 OFFCURVE",
"599 -4 OFFCURVE",
"611 -3 CURVE SMOOTH",
"687 0 OFFCURVE",
"713 -1 OFFCURVE",
"746 0 CURVE SMOOTH",
"817 3 OFFCURVE",
"921 0 OFFCURVE",
"986 0 CURVE SMOOTH",
"997 0 OFFCURVE",
"1008 17 OFFCURVE",
"995 16 CURVE SMOOTH",
"980 15 OFFCURVE",
"905 16 OFFCURVE",
"884 20 CURVE SMOOTH",
"871 22 OFFCURVE",
"850 31 OFFCURVE",
"850 57 CURVE SMOOTH",
"850 146 OFFCURVE",
"892 462 OFFCURVE",
"908 529 CURVE SMOOTH",
"924 598 OFFCURVE",
"932 623 OFFCURVE",
"981 622 CURVE SMOOTH",
"999 622 OFFCURVE",
"1022 620 OFFCURVE",
"1053 619 CURVE"
);
}
);
};
layerId = "404CF7D8-B1FB-4D32-849A-66F5CDD10145";
paths = (
{
closed = 1;
nodes = (
"467 -4 OFFCURVE",
"493 16 OFFCURVE",
"516 31 CURVE SMOOTH",
"533 43 OFFCURVE",
"548 50 OFFCURVE",
"553 54 CURVE SMOOTH",
"563 60 OFFCURVE",
"568 63 OFFCURVE",
"568 69 CURVE SMOOTH",
"568 71 OFFCURVE",
"567 73 OFFCURVE",
"566 76 CURVE SMOOTH",
"564 82 OFFCURVE",
"566 94 OFFCURVE",
"571 106 CURVE SMOOTH",
"597 164 OFFCURVE",
"723 379 OFFCURVE",
"797 492 CURVE",
"786 371 OFFCURVE",
"770 255 OFFCURVE",
"747 132 CURVE SMOOTH",
"728 27 OFFCURVE",
"708 13 OFFCURVE",
"655 13 CURVE SMOOTH",
"642 13 OFFCURVE",
"627 13 OFFCURVE",
"610 14 CURVE",
"604 16 OFFCURVE",
"601 12 OFFCURVE",
"601 7 CURVE SMOOTH",
"601 2 OFFCURVE",
"604 -3 OFFCURVE",
"610 -3 CURVE SMOOTH",
"611 -3 LINE SMOOTH",
"687 0 OFFCURVE",
"713 -1 OFFCURVE",
"746 0 CURVE SMOOTH",
"770 1 OFFCURVE",
"797 1 OFFCURVE",
"825 1 CURVE SMOOTH",
"882 1 OFFCURVE",
"943 0 OFFCURVE",
"986 0 CURVE SMOOTH",
"994 0 OFFCURVE",
"1001 8 OFFCURVE",
"1001 12 CURVE SMOOTH",
"1001 14 OFFCURVE",
"999 16 OFFCURVE",
"996 16 CURVE SMOOTH",
"995 16 LINE SMOOTH",
"980 15 OFFCURVE",
"905 16 OFFCURVE",
"884 20 CURVE SMOOTH",
"871 22 OFFCURVE",
"850 31 OFFCURVE",
"850 57 CURVE SMOOTH",
"850 146 OFFCURVE",
"892 462 OFFCURVE",
"908 529 CURVE SMOOTH",
"924 597 OFFCURVE",
"932 622 OFFCURVE",
"978 622 CURVE SMOOTH",
"997 622 OFFCURVE",
"1020 620 OFFCURVE",
"1053 619 CURVE",
"1058 618 OFFCURVE",
"1061 622 OFFCURVE",
"1061 626 CURVE SMOOTH",
"1061 631 OFFCURVE",
"1058 636 OFFCURVE",
"1053 636 CURVE SMOOTH",
"1052 636 LINE SMOOTH",
"966 631 OFFCURVE",
"938 629 OFFCURVE",
"911 630 CURVE SMOOTH",
"902 630 OFFCURVE",
"853 633 OFFCURVE",
"827 633 CURVE SMOOTH",
"819 633 OFFCURVE",
"813 633 OFFCURVE",
"811 632 CURVE SMOOTH",
"788 624 OFFCURVE",
"778 587 OFFCURVE",
"737 508 CURVE SMOOTH",
"674 387 OFFCURVE",
"599 242 OFFCURVE",
"539 137 CURVE SMOOTH",
"535 131 OFFCURVE",
"532 128 OFFCURVE",
"528 128 CURVE SMOOTH",
"526 128 OFFCURVE",
"523 131 OFFCURVE",
"521 136 CURVE SMOOTH",
"475 262 OFFCURVE",
"411 525 OFFCURVE",
"402 601 CURVE SMOOTH",
"398 628 OFFCURVE",
"399 635 OFFCURVE",
"378 635 CURVE SMOOTH",
"364 635 OFFCURVE",
"339 632 OFFCURVE",
"297 630 CURVE SMOOTH",
"284 630 OFFCURVE",
"272 629 OFFCURVE",
"259 629 CURVE SMOOTH",
"216 629 OFFCURVE",
"172 632 OFFCURVE",
"129 634 CURVE SMOOTH",
"122 635 OFFCURVE",
"114 627 OFFCURVE",
"114 622 CURVE SMOOTH",
"114 620 OFFCURVE",
"116 618 OFFCURVE",
"120 618 CURVE SMOOTH",
"129 619 OFFCURVE",
"161 620 OFFCURVE",
"190 620 CURVE SMOOTH",
"208 620 OFFCURVE",
"225 619 OFFCURVE",
"233 618 CURVE SMOOTH",
"245 615 OFFCURVE",
"266 603 OFFCURVE",
"263 577 CURVE SMOOTH",
"247 421 OFFCURVE",
"233 285 OFFCURVE",
"199 132 CURVE SMOOTH",
"176 28 OFFCURVE",
"152 16 OFFCURVE",
"79 16 CURVE SMOOTH",
"60 16 OFFCURVE",
"38 17 OFFCURVE",
"12 17 CURVE",
"1 20 OFFCURVE",
"5 2 OFFCURVE",
"15 2 CURVE SMOOTH",
"17 2 LINE SMOOTH",
"34 1 OFFCURVE",
"51 1 OFFCURVE",
"68 1 CURVE SMOOTH",
"120 1 OFFCURVE",
"169 4 OFFCURVE",
"192 5 CURVE SMOOTH",
"202 5 OFFCURVE",
"213 6 OFFCURVE",
"223 6 CURVE SMOOTH",
"277 6 OFFCURVE",
"326 0 OFFCURVE",
"344 0 CURVE SMOOTH",
"352 0 OFFCURVE",
"359 8 OFFCURVE",
"359 12 CURVE SMOOTH",
"359 14 OFFCURVE",
"357 16 OFFCURVE",
"354 16 CURVE SMOOTH",
"353 16 LINE SMOOTH",
"338 15 OFFCURVE",
"312 16 OFFCURVE",
"292 20 CURVE SMOOTH",
"279 22 OFFCURVE",
"260 35 OFFCURVE",
"261 61 CURVE SMOOTH",
"265 139 OFFCURVE",
"297 388 OFFCURVE",
"317 494 CURVE",
"365 341 OFFCURVE",
"417 126 OFFCURVE",
"434 45 CURVE SMOOTH",
"440 17 OFFCURVE",
"434 -4 OFFCURVE",
"452 -4 CURVE SMOOTH"
);
}
);
width = 994;
}
);
note = M;
unicode = 004D;
},
{
glyphname = N;
lastChange = "2022-03-21 18:59:40 +0000";
layers = (
{
background = {
paths = (
{
closed = 1;
nodes = (
"853 634 OFFCURVE",
"772 633 OFFCURVE",
"741 632 CURVE SMOOTH",
"674 629 OFFCURVE",
"591 635 OFFCURVE",
"570 635 CURVE SMOOTH",
"560 635 OFFCURVE",
"548 618 OFFCURVE",
"561 619 CURVE SMOOTH",
"592 620 OFFCURVE",
"676 615 OFFCURVE",
"674 568 CURVE SMOOTH",
"671 495 OFFCURVE",
"641 259 OFFCURVE",
"627 181 CURVE",
"585 237 OFFCURVE",
"401 531 OFFCURVE",
"366 606 CURVE SMOOTH",
"352 636 OFFCURVE",
"349 636 OFFCURVE",
"328 634 CURVE SMOOTH",
"310 633 OFFCURVE",
"290 630 OFFCURVE",
"260 630 CURVE SMOOTH",
"204 631 OFFCURVE",
"143 634 OFFCURVE",
"99 634 CURVE SMOOTH",
"89 634 OFFCURVE",
"77 617 OFFCURVE",
"90 617 CURVE SMOOTH",
"105 618 OFFCURVE",
"182 616 OFFCURVE",
"203 613 CURVE SMOOTH",
"222 610 OFFCURVE",
"241 587 OFFCURVE",
"238 561 CURVE SMOOTH",
"224 412 OFFCURVE",
"208 280 OFFCURVE",
"176 132 CURVE SMOOTH",
"148 5 OFFCURVE",
"116 16 OFFCURVE",
"-11 17 CURVE",
"-23 20 OFFCURVE",
"-17 0 OFFCURVE",
"-6 2 CURVE",
"63 -2 OFFCURVE",
"138 4 OFFCURVE",
"169 5 CURVE SMOOTH",
"235 8 OFFCURVE",
"360 0 OFFCURVE",
"381 0 CURVE SMOOTH",
"392 0 OFFCURVE",
"404 16 OFFCURVE",
"390 16 CURVE SMOOTH",
"348 16 OFFCURVE",
"311 17 OFFCURVE",
"288 19 CURVE SMOOTH",
"276 20 OFFCURVE",
"237 35 OFFCURVE",
"238 61 CURVE SMOOTH",
"242 139 OFFCURVE",
"284 441 OFFCURVE",
"293 494 CURVE",
"343 413 OFFCURVE",
"522 142 OFFCURVE",
"609 -21 CURVE SMOOTH",
"616 -35 OFFCURVE",
"655 19 OFFCURVE",
"673 34 CURVE SMOOTH",
"691 50 OFFCURVE",
"701 83 OFFCURVE",
"682 113 CURVE",
"688 176 OFFCURVE",
"718 415 OFFCURVE",
"734 501 CURVE SMOOTH",
"754 605 OFFCURVE",
"757 618 OFFCURVE",
"910 616 CURVE",
"918 615 OFFCURVE",
"931 635 OFFCURVE",
"920 634 CURVE"
);
}
);
};
layerId = "404CF7D8-B1FB-4D32-849A-66F5CDD10145";
paths = (
{
closed = 1;
nodes = (
"616 -35 OFFCURVE",
"655 19 OFFCURVE",
"673 34 CURVE SMOOTH",
"684 44 OFFCURVE",
"692 60 OFFCURVE",
"692 79 CURVE SMOOTH",
"692 90 OFFCURVE",
"689 102 OFFCURVE",
"682 113 CURVE",
"688 176 OFFCURVE",
"718 415 OFFCURVE",
"734 501 CURVE SMOOTH",
"754 605 OFFCURVE",
"757 618 OFFCURVE",
"910 616 CURVE",
"916 615 OFFCURVE",
"924 626 OFFCURVE",
"924 631 CURVE SMOOTH",
"924 633 OFFCURVE",
"923 634 OFFCURVE",
"920 634 CURVE SMOOTH",
"853 634 OFFCURVE",
"772 633 OFFCURVE",
"741 632 CURVE SMOOTH",
"728 631 OFFCURVE",
"714 631 OFFCURVE",
"700 631 CURVE SMOOTH",
"643 631 OFFCURVE",
"587 635 OFFCURVE",
"570 635 CURVE SMOOTH",
"563 635 OFFCURVE",
"555 627 OFFCURVE",
"555 622 CURVE SMOOTH",
"555 620 OFFCURVE",
"557 619 OFFCURVE",
"560 619 CURVE SMOOTH",
"561 619 LINE SMOOTH",
"592 620 OFFCURVE",
"676 615 OFFCURVE",
"674 568 CURVE SMOOTH",
"671 495 OFFCURVE",
"641 259 OFFCURVE",
"627 181 CURVE",
"585 237 OFFCURVE",
"401 531 OFFCURVE",
"366 606 CURVE SMOOTH",
"355 630 OFFCURVE",
"351 635 OFFCURVE",
"339 635 CURVE SMOOTH",
"318 635 OFFCURVE",
"296 630 OFFCURVE",
"260 630 CURVE SMOOTH",
"204 631 OFFCURVE",
"143 634 OFFCURVE",
"99 634 CURVE SMOOTH",
"92 634 OFFCURVE",
"84 626 OFFCURVE",
"84 621 CURVE SMOOTH",
"84 619 OFFCURVE",
"86 617 OFFCURVE",
"90 617 CURVE SMOOTH",
"105 618 OFFCURVE",
"182 616 OFFCURVE",
"203 613 CURVE SMOOTH",
"222 610 OFFCURVE",
"241 587 OFFCURVE",
"238 561 CURVE SMOOTH",
"224 412 OFFCURVE",
"208 280 OFFCURVE",
"176 132 CURVE SMOOTH",
"153 27 OFFCURVE",
"127 16 OFFCURVE",
"47 16 CURVE SMOOTH",
"30 16 OFFCURVE",
"11 17 OFFCURVE",
"-11 17 CURVE",
"-22 20 OFFCURVE",
"-18 2 OFFCURVE",
"-8 2 CURVE SMOOTH",
"-6 2 LINE SMOOTH",
"11 1 OFFCURVE",
"28 1 OFFCURVE",
"45 1 CURVE SMOOTH",
"97 1 OFFCURVE",
"146 4 OFFCURVE",
"169 5 CURVE SMOOTH",
"179 5 OFFCURVE",
"191 6 OFFCURVE",
"204 6 CURVE SMOOTH",
"272 6 OFFCURVE",
"363 0 OFFCURVE",
"381 0 CURVE SMOOTH",
"388 0 OFFCURVE",
"396 7 OFFCURVE",
"396 12 CURVE SMOOTH",
"396 14 OFFCURVE",
"395 16 OFFCURVE",
"390 16 CURVE SMOOTH",
"348 16 OFFCURVE",
"311 17 OFFCURVE",
"288 19 CURVE SMOOTH",
"276 20 OFFCURVE",
"237 35 OFFCURVE",
"238 61 CURVE SMOOTH",
"242 139 OFFCURVE",
"284 441 OFFCURVE",
"293 494 CURVE",
"343 413 OFFCURVE",
"522 142 OFFCURVE",
"609 -21 CURVE SMOOTH"
);
}
);
width = 786;
}
);
note = N;
unicode = 004E;
},
{
color = 6;
glyphname = Eng;
lastChange = "2022-03-21 18:59:40 +0000";
layers = (
{
background = {
paths = (
{
closed = 1;
nodes = (
"853 634 OFFCURVE",
"772 633 OFFCURVE",
"741 632 CURVE SMOOTH",
"674 629 OFFCURVE",
"591 635 OFFCURVE",
"570 635 CURVE SMOOTH",
"560 635 OFFCURVE",
"548 618 OFFCURVE",
"561 619 CURVE SMOOTH",
"592 620 OFFCURVE",
"676 615 OFFCURVE",
"674 568 CURVE SMOOTH",
"671 495 OFFCURVE",
"641 259 OFFCURVE",
"627 181 CURVE",
"585 237 OFFCURVE",
"401 531 OFFCURVE",
"366 606 CURVE SMOOTH",
"352 636 OFFCURVE",
"349 636 OFFCURVE",
"328 634 CURVE SMOOTH",
"310 633 OFFCURVE",
"290 630 OFFCURVE",
"260 630 CURVE SMOOTH",
"204 631 OFFCURVE",
"143 634 OFFCURVE",
"99 634 CURVE SMOOTH",
"89 634 OFFCURVE",
"77 617 OFFCURVE",
"90 617 CURVE SMOOTH",
"105 618 OFFCURVE",
"182 616 OFFCURVE",
"203 613 CURVE SMOOTH",
"222 610 OFFCURVE",
"241 587 OFFCURVE",
"238 561 CURVE SMOOTH",
"224 412 OFFCURVE",
"208 280 OFFCURVE",
"176 132 CURVE SMOOTH",
"148 5 OFFCURVE",
"116 16 OFFCURVE",
"-11 17 CURVE",
"-23 20 OFFCURVE",
"-17 0 OFFCURVE",
"-6 2 CURVE",
"63 -2 OFFCURVE",
"138 4 OFFCURVE",
"169 5 CURVE SMOOTH",
"235 8 OFFCURVE",
"360 0 OFFCURVE",
"381 0 CURVE SMOOTH",
"392 0 OFFCURVE",
"404 16 OFFCURVE",
"390 16 CURVE SMOOTH",
"348 16 OFFCURVE",
"311 17 OFFCURVE",
"288 19 CURVE SMOOTH",
"276 20 OFFCURVE",
"237 35 OFFCURVE",
"238 61 CURVE SMOOTH",
"242 139 OFFCURVE",
"284 441 OFFCURVE",
"293 494 CURVE",
"343 413 OFFCURVE",
"522 142 OFFCURVE",
"609 -21 CURVE",
"682 113 LINE",
"688 176 OFFCURVE",
"718 415 OFFCURVE",
"734 501 CURVE SMOOTH",
"754 605 OFFCURVE",
"757 618 OFFCURVE",
"910 616 CURVE",
"918 615 OFFCURVE",
"931 635 OFFCURVE",
"920 634 CURVE"
);
},
{
closed = 1;
nodes = (
"612 106 OFFCURVE",
"605 64 OFFCURVE",
"598 23 CURVE SMOOTH",
"587 -40 OFFCURVE",
"564 -98 OFFCURVE",
"544 -124 CURVE SMOOTH",
"508 -169 OFFCURVE",
"461 -201 OFFCURVE",
"417 -149 CURVE SMOOTH",
"407 -137 OFFCURVE",
"400 -120 OFFCURVE",
"400 -101 CURVE SMOOTH",
"400 -90 OFFCURVE",
"406 -78 OFFCURVE",
"400 -76 CURVE SMOOTH",
"391 -73 OFFCURVE",
"383 -97 OFFCURVE",
"378 -106 CURVE SMOOTH",
"367 -128 OFFCURVE",
"360 -135 OFFCURVE",
"344 -158 CURVE SMOOTH",
"331 -175 OFFCURVE",
"359 -197 OFFCURVE",
"370 -205 CURVE SMOOTH",
"382 -214 OFFCURVE",
"404 -218 OFFCURVE",
"429 -218 CURVE SMOOTH",
"484 -218 OFFCURVE",
"526 -199 OFFCURVE",
"562 -175 CURVE SMOOTH",
"623 -134 OFFCURVE",
"653 -77 OFFCURVE",
"660 -18 CURVE SMOOTH",
"663 10 OFFCURVE",
"679 85 OFFCURVE",
"682 113 CURVE",
"619 148 LINE"
);
}
);
};
layerId = "404CF7D8-B1FB-4D32-849A-66F5CDD10145";
paths = (
{
closed = 1;
nodes = (
"682 113 LINE",
"688 176 OFFCURVE",
"718 415 OFFCURVE",
"734 501 CURVE SMOOTH",
"754 605 OFFCURVE",
"757 618 OFFCURVE",
"910 616 CURVE",
"916 615 OFFCURVE",
"924 626 OFFCURVE",
"924 631 CURVE SMOOTH",
"924 633 OFFCURVE",
"923 634 OFFCURVE",
"920 634 CURVE SMOOTH",
"853 634 OFFCURVE",
"772 633 OFFCURVE",
"741 632 CURVE SMOOTH",
"728 631 OFFCURVE",
"714 631 OFFCURVE",
"700 631 CURVE SMOOTH",
"643 631 OFFCURVE",
"587 635 OFFCURVE",
"570 635 CURVE SMOOTH",
"563 635 OFFCURVE",
"555 627 OFFCURVE",
"555 622 CURVE SMOOTH",
"555 620 OFFCURVE",
"557 619 OFFCURVE",
"560 619 CURVE SMOOTH",
"561 619 LINE SMOOTH",
"592 620 OFFCURVE",
"676 615 OFFCURVE",
"674 568 CURVE SMOOTH",
"671 495 OFFCURVE",
"641 259 OFFCURVE",
"627 181 CURVE",
"585 237 OFFCURVE",
"401 531 OFFCURVE",
"366 606 CURVE SMOOTH",
"355 630 OFFCURVE",
"351 635 OFFCURVE",
"339 635 CURVE SMOOTH",
"318 635 OFFCURVE",
"296 630 OFFCURVE",
"260 630 CURVE SMOOTH",
"204 631 OFFCURVE",
"143 634 OFFCURVE",
"99 634 CURVE SMOOTH",
"92 634 OFFCURVE",
"84 626 OFFCURVE",
"84 621 CURVE SMOOTH",
"84 619 OFFCURVE",
"86 617 OFFCURVE",
"90 617 CURVE SMOOTH",
"105 618 OFFCURVE",
"182 616 OFFCURVE",
"203 613 CURVE SMOOTH",
"222 610 OFFCURVE",
"241 587 OFFCURVE",
"238 561 CURVE SMOOTH",
"224 412 OFFCURVE",
"208 280 OFFCURVE",
"176 132 CURVE SMOOTH",
"153 27 OFFCURVE",
"127 16 OFFCURVE",
"47 16 CURVE SMOOTH",
"30 16 OFFCURVE",
"11 17 OFFCURVE",
"-11 17 CURVE",
"-22 20 OFFCURVE",
"-18 2 OFFCURVE",
"-8 2 CURVE SMOOTH",
"-6 2 LINE SMOOTH",
"11 1 OFFCURVE",
"28 1 OFFCURVE",
"45 1 CURVE SMOOTH",
"97 1 OFFCURVE",
"146 4 OFFCURVE",
"169 5 CURVE SMOOTH",
"179 5 OFFCURVE",
"191 6 OFFCURVE",
"204 6 CURVE SMOOTH",
"272 6 OFFCURVE",
"363 0 OFFCURVE",
"381 0 CURVE SMOOTH",
"388 0 OFFCURVE",
"396 7 OFFCURVE",
"396 12 CURVE SMOOTH",
"396 14 OFFCURVE",
"395 16 OFFCURVE",
"390 16 CURVE SMOOTH",
"348 16 OFFCURVE",
"311 17 OFFCURVE",
"288 19 CURVE SMOOTH",
"276 20 OFFCURVE",
"237 35 OFFCURVE",
"238 61 CURVE SMOOTH",
"242 139 OFFCURVE",
"284 441 OFFCURVE",
"293 494 CURVE",
"343 413 OFFCURVE",
"522 142 OFFCURVE",
"609 -21 CURVE"
);
},
{
closed = 1;
nodes = (
"484 -218 OFFCURVE",
"526 -199 OFFCURVE",
"562 -175 CURVE SMOOTH",
"623 -134 OFFCURVE",
"653 -77 OFFCURVE",
"660 -18 CURVE SMOOTH",
"663 10 OFFCURVE",
"679 85 OFFCURVE",
"682 113 CURVE",
"619 148 LINE",
"619 148 LINE",
"598 23 LINE SMOOTH",
"587 -40 OFFCURVE",
"564 -98 OFFCURVE",
"544 -124 CURVE SMOOTH",
"521 -153 OFFCURVE",
"494 -176 OFFCURVE",
"466 -176 CURVE SMOOTH",
"450 -176 OFFCURVE",
"433 -168 OFFCURVE",
"417 -149 CURVE SMOOTH",
"407 -137 OFFCURVE",
"400 -120 OFFCURVE",
"400 -101 CURVE SMOOTH",
"400 -94 OFFCURVE",
"403 -86 OFFCURVE",
"403 -81 CURVE SMOOTH",
"403 -78 OFFCURVE",
"402 -76 OFFCURVE",
"398 -76 CURVE SMOOTH",
"390 -76 OFFCURVE",
"383 -98 OFFCURVE",
"378 -106 CURVE SMOOTH",
"367 -128 OFFCURVE",
"360 -135 OFFCURVE",
"344 -158 CURVE SMOOTH",
"342 -161 OFFCURVE",
"341 -164 OFFCURVE",
"341 -168 CURVE SMOOTH",
"341 -183 OFFCURVE",
"361 -198 OFFCURVE",
"370 -205 CURVE SMOOTH",
"382 -214 OFFCURVE",
"404 -218 OFFCURVE",
"429 -218 CURVE SMOOTH"
);
}
);
width = 789;
}
);
unicode = 014A;
},
{
glyphname = O;
lastChange = "2022-03-21 18:59:40 +0000";
layers = (
{
background = {
paths = (
{
closed = 1;
nodes = (
"586 610 OFFCURVE",
"477 654 OFFCURVE",
"369 654 CURVE SMOOTH",
"281 654 OFFCURVE",
"198 614 OFFCURVE",
"133 552 CURVE SMOOTH",
"17 441 OFFCURVE",
"-32 258 OFFCURVE",
"34 133 CURVE SMOOTH",
"92 24 OFFCURVE",
"200 -20 OFFCURVE",
"308 -20 CURVE SMOOTH",
"396 -20 OFFCURVE",
"479 21 OFFCURVE",
"544 82 CURVE SMOOTH",
"660 193 OFFCURVE",
"710 376 OFFCURVE",
"644 501 CURVE SMOOTH"
);
},
{
closed = 1;
nodes = (
"433 41 OFFCURVE",
"293 32 OFFCURVE",
"184 127 CURVE SMOOTH",
"42 250 OFFCURVE",
"83 446 OFFCURVE",
"164 520 CURVE SMOOTH",
"245 594 OFFCURVE",
"384 602 OFFCURVE",
"493 507 CURVE SMOOTH",
"635 384 OFFCURVE",
"594 188 OFFCURVE",
"513 114 CURVE SMOOTH"
);
}
);
};
layerId = "404CF7D8-B1FB-4D32-849A-66F5CDD10145";
paths = (
{
closed = 1;
nodes = (
"396 -20 OFFCURVE",
"479 21 OFFCURVE",
"544 82 CURVE SMOOTH",
"625 159 OFFCURVE",
"673 271 OFFCURVE",
"673 374 CURVE SMOOTH",
"673 420 OFFCURVE",
"664 463 OFFCURVE",
"644 501 CURVE SMOOTH",
"586 610 OFFCURVE",
"477 654 OFFCURVE",
"369 654 CURVE SMOOTH",
"281 654 OFFCURVE",
"198 614 OFFCURVE",
"133 552 CURVE SMOOTH",
"53 475 OFFCURVE",
"4 363 OFFCURVE",
"4 261 CURVE SMOOTH",
"4 215 OFFCURVE",
"14 171 OFFCURVE",
"34 133 CURVE SMOOTH",
"92 24 OFFCURVE",
"200 -20 OFFCURVE",
"308 -20 CURVE SMOOTH"
);
},
{
closed = 1;
nodes = (
"302 57 OFFCURVE",
"239 79 OFFCURVE",
"184 127 CURVE SMOOTH",
"116 186 OFFCURVE",
"90 261 OFFCURVE",
"90 332 CURVE SMOOTH",
"90 409 OFFCURVE",
"122 481 OFFCURVE",
"164 520 CURVE SMOOTH",
"204 556 OFFCURVE",
"258 577 OFFCURVE",
"315 577 CURVE SMOOTH",
"375 577 OFFCURVE",
"438 555 OFFCURVE",
"493 507 CURVE SMOOTH",
"561 448 OFFCURVE",
"587 373 OFFCURVE",
"587 302 CURVE SMOOTH",
"587 225 OFFCURVE",
"555 153 OFFCURVE",
"513 114 CURVE SMOOTH",
"473 78 OFFCURVE",
"419 57 OFFCURVE",
"361 57 CURVE SMOOTH"
);
}
);
width = 691;
}
);
note = O;
unicode = 004F;
},
{
glyphname = Oslash;
lastChange = "2022-03-21 18:59:40 +0000";
layers = (
{
background = {
paths = (
{
closed = 1;
nodes = (
"586 610 OFFCURVE",
"477 654 OFFCURVE",
"369 654 CURVE SMOOTH",
"281 654 OFFCURVE",
"198 614 OFFCURVE",
"133 552 CURVE SMOOTH",
"17 441 OFFCURVE",
"-32 258 OFFCURVE",
"34 133 CURVE SMOOTH",
"92 24 OFFCURVE",
"200 -20 OFFCURVE",
"308 -20 CURVE SMOOTH",
"396 -20 OFFCURVE",
"479 21 OFFCURVE",
"544 82 CURVE SMOOTH",
"660 193 OFFCURVE",
"710 376 OFFCURVE",
"644 501 CURVE SMOOTH"
);
},
{
closed = 1;
nodes = (
"433 41 OFFCURVE",
"293 32 OFFCURVE",
"184 127 CURVE SMOOTH",
"42 250 OFFCURVE",
"83 446 OFFCURVE",
"164 520 CURVE SMOOTH",
"244 594 OFFCURVE",
"384 602 OFFCURVE",
"493 507 CURVE SMOOTH",
"635 384 OFFCURVE",
"594 188 OFFCURVE",
"513 114 CURVE SMOOTH"
);
},
{
closed = 1;
nodes = (
"664 770 OFFCURVE",
"585 753 OFFCURVE",
"577 737 CURVE",
"16 -75 LINE SMOOTH",
"1 -96 OFFCURVE",
"80 -79 OFFCURVE",
"88 -64 CURVE",
"253 180 OFFCURVE",
"611 696 OFFCURVE",
"649 749 CURVE SMOOTH"
);
}
);
};
layerId = "404CF7D8-B1FB-4D32-849A-66F5CDD10145";
paths = (
{
closed = 1;
nodes = (
"46 -85 OFFCURVE",
"83 -74 OFFCURVE",
"88 -64 CURVE",
"253 180 OFFCURVE",
"611 696 OFFCURVE",
"649 749 CURVE SMOOTH",
"654 756 OFFCURVE",
"649 759 OFFCURVE",
"639 759 CURVE SMOOTH",
"619 759 OFFCURVE",
"582 748 OFFCURVE",
"577 737 CURVE",
"16 -75 LINE SMOOTH",
"11 -82 OFFCURVE",
"17 -85 OFFCURVE",
"26 -85 CURVE SMOOTH"
);
},
{
closed = 1;
nodes = (
"396 -20 OFFCURVE",
"479 21 OFFCURVE",
"544 82 CURVE SMOOTH",
"625 159 OFFCURVE",
"673 271 OFFCURVE",
"673 374 CURVE SMOOTH",
"673 420 OFFCURVE",
"664 463 OFFCURVE",
"644 501 CURVE SMOOTH",
"586 610 OFFCURVE",
"477 654 OFFCURVE",
"369 654 CURVE SMOOTH",
"281 654 OFFCURVE",
"198 614 OFFCURVE",
"133 552 CURVE SMOOTH",
"53 475 OFFCURVE",
"4 363 OFFCURVE",
"4 261 CURVE SMOOTH",
"4 215 OFFCURVE",
"14 171 OFFCURVE",
"34 133 CURVE SMOOTH",
"92 24 OFFCURVE",
"200 -20 OFFCURVE",
"308 -20 CURVE SMOOTH"
);
},
{
closed = 1;
nodes = (
"302 57 OFFCURVE",
"239 79 OFFCURVE",
"184 127 CURVE SMOOTH",
"116 186 OFFCURVE",
"90 261 OFFCURVE",
"90 332 CURVE SMOOTH",
"90 409 OFFCURVE",
"122 481 OFFCURVE",
"164 520 CURVE SMOOTH",
"203 556 OFFCURVE",
"257 577 OFFCURVE",
"315 577 CURVE SMOOTH",
"374 577 OFFCURVE",
"438 555 OFFCURVE",
"493 507 CURVE SMOOTH",
"561 448 OFFCURVE",
"587 373 OFFCURVE",
"587 302 CURVE SMOOTH",
"587 225 OFFCURVE",
"555 153 OFFCURVE",
"513 114 CURVE SMOOTH",
"473 78 OFFCURVE",
"419 57 OFFCURVE",
"361 57 CURVE SMOOTH"
);
}
);
width = 677;
}
);
note = Oslash;
unicode = 00D8;
},
{
glyphname = OE;
lastChange = "2022-03-21 18:59:40 +0000";
layers = (
{
background = {
paths = (
{
closed = 1;
nodes = (
"930 182 OFFCURVE",
"920 190 OFFCURVE",
"917 183 CURVE SMOOTH",
"878 94 OFFCURVE",
"803 32 OFFCURVE",
"701 32 CURVE SMOOTH",
"597 32 OFFCURVE",
"584 64 OFFCURVE",
"588 113 CURVE SMOOTH",
"594 193 OFFCURVE",
"599 254 OFFCURVE",
"606 315 CURVE",
"637 315 OFFCURVE",
"675 314 OFFCURVE",
"735 313 CURVE SMOOTH",
"761 313 OFFCURVE",
"787 310 OFFCURVE",
"811 322 CURVE SMOOTH",
"828 330 OFFCURVE",
"860 350 OFFCURVE",
"869 370 CURVE SMOOTH",
"872 377 OFFCURVE",
"871 381 OFFCURVE",
"865 376 CURVE SMOOTH",
"854 368 OFFCURVE",
"791 356 OFFCURVE",
"744 354 CURVE SMOOTH",
"694 351 OFFCURVE",
"649 349 OFFCURVE",
"610 347 CURVE",
"616 395 OFFCURVE",
"623 445 OFFCURVE",
"634 506 CURVE SMOOTH",
"652 610 OFFCURVE",
"723 596 OFFCURVE",
"812 597 CURVE SMOOTH",
"869 598 OFFCURVE",
"909 550 OFFCURVE",
"902 454 CURVE SMOOTH",
"901 437 OFFCURVE",
"916 436 OFFCURVE",
"917 445 CURVE SMOOTH",
"920 499 OFFCURVE",
"919 524 OFFCURVE",
"924 572 CURVE SMOOTH",
"930 622 OFFCURVE",
"920 639 OFFCURVE",
"875 637 CURVE SMOOTH",
"780 632 OFFCURVE",
"704 631 OFFCURVE",
"611 630 CURVE SMOOTH",
"569 629 OFFCURVE",
"523 631 OFFCURVE",
"475 632 CURVE",
"439 645 OFFCURVE",
"399 651 OFFCURVE",
"360 651 CURVE SMOOTH",
"274 651 OFFCURVE",
"191 611 OFFCURVE",
"127 550 CURVE SMOOTH",
"12 440 OFFCURVE",
"-37 259 OFFCURVE",
"28 135 CURVE SMOOTH",
"85 27 OFFCURVE",
"193 -16 OFFCURVE",
"300 -16 CURVE SMOOTH",
"334 -16 OFFCURVE",
"367 -10 OFFCURVE",
"398 0 CURVE",
"429 1 OFFCURVE",
"456 2 OFFCURVE",
"471 3 CURVE SMOOTH",
"538 5 OFFCURVE",
"582 8 OFFCURVE",
"646 3 CURVE SMOOTH",
"767 -6 OFFCURVE",
"827 -13 OFFCURVE",
"846 0 CURVE SMOOTH",
"894 31 OFFCURVE",
"915 145 OFFCURVE",
"927 175 CURVE SMOOTH"
);
},
{
closed = 1;
nodes = (
"524 415 OFFCURVE",
"520 379 OFFCURVE",
"514 340 CURVE",
"505 339 OFFCURVE",
"495 338 OFFCURVE",
"491 337 CURVE SMOOTH",
"473 332 OFFCURVE",
"428 309 OFFCURVE",
"479 313 CURVE SMOOTH",
"488 314 OFFCURVE",
"501 314 OFFCURVE",
"511 315 CURVE",
"503 256 OFFCURVE",
"492 191 OFFCURVE",
"478 132 CURVE SMOOTH",
"474 116 OFFCURVE",
"471 102 OFFCURVE",
"468 90 CURVE",
"387 43 OFFCURVE",
"271 48 OFFCURVE",
"177 129 CURVE SMOOTH",
"37 251 OFFCURVE",
"77 444 OFFCURVE",
"158 518 CURVE SMOOTH",
"237 591 OFFCURVE",
"375 599 OFFCURVE",
"483 505 CURVE SMOOTH",
"505 486 OFFCURVE",
"518 466 OFFCURVE",
"526 446 CURVE"
);
}
);
};
layerId = "404CF7D8-B1FB-4D32-849A-66F5CDD10145";
paths = (
{
closed = 1;
nodes = (
"334 -16 OFFCURVE",
"367 -10 OFFCURVE",
"398 0 CURVE",
"429 1 OFFCURVE",
"456 2 OFFCURVE",
"471 3 CURVE SMOOTH",
"511 4 OFFCURVE",
"543 6 OFFCURVE",
"575 6 CURVE SMOOTH",
"597 6 OFFCURVE",
"620 5 OFFCURVE",
"646 3 CURVE SMOOTH",
"719 -2 OFFCURVE",
"770 -7 OFFCURVE",
"803 -7 CURVE SMOOTH",
"825 -7 OFFCURVE",
"838 -5 OFFCURVE",
"846 0 CURVE SMOOTH",
"894 31 OFFCURVE",
"915 145 OFFCURVE",
"927 175 CURVE SMOOTH",
"929 180 OFFCURVE",
"924 186 OFFCURVE",
"921 186 CURVE SMOOTH",
"919 186 OFFCURVE",
"918 185 OFFCURVE",
"917 183 CURVE SMOOTH",
"878 94 OFFCURVE",
"803 32 OFFCURVE",
"701 32 CURVE SMOOTH",
"597 32 OFFCURVE",
"584 64 OFFCURVE",
"588 113 CURVE SMOOTH",
"594 193 OFFCURVE",
"599 254 OFFCURVE",
"606 315 CURVE",
"641 315 OFFCURVE",
"686 313 OFFCURVE",
"761 313 CURVE SMOOTH",
"778 313 OFFCURVE",
"795 314 OFFCURVE",
"811 322 CURVE SMOOTH",
"828 330 OFFCURVE",
"860 350 OFFCURVE",
"869 370 CURVE SMOOTH",
"871 375 OFFCURVE",
"871 378 OFFCURVE",
"869 378 CURVE SMOOTH",
"868 378 OFFCURVE",
"867 378 OFFCURVE",
"865 376 CURVE SMOOTH",
"854 368 OFFCURVE",
"791 356 OFFCURVE",
"744 354 CURVE SMOOTH",
"694 351 OFFCURVE",
"649 349 OFFCURVE",
"610 347 CURVE",
"616 395 OFFCURVE",
"623 445 OFFCURVE",
"634 506 CURVE SMOOTH",
"648 589 OFFCURVE",
"696 598 OFFCURVE",
"760 598 CURVE SMOOTH",
"777 598 OFFCURVE",
"795 597 OFFCURVE",
"814 597 CURVE SMOOTH",
"866 597 OFFCURVE",
"903 556 OFFCURVE",
"903 475 CURVE SMOOTH",
"903 467 OFFCURVE",
"902 460 OFFCURVE",
"902 452 CURVE SMOOTH",
"902 443 OFFCURVE",
"907 439 OFFCURVE",
"911 439 CURVE SMOOTH",
"914 439 OFFCURVE",
"917 441 OFFCURVE",
"917 445 CURVE SMOOTH",
"920 499 OFFCURVE",
"919 524 OFFCURVE",
"924 572 CURVE SMOOTH",
"925 581 OFFCURVE",
"926 588 OFFCURVE",
"926 595 CURVE SMOOTH",
"926 627 OFFCURVE",
"912 639 OFFCURVE",
"875 637 CURVE SMOOTH",
"772 632 OFFCURVE",
"691 630 OFFCURVE",
"587 630 CURVE SMOOTH",
"551 630 OFFCURVE",
"514 631 OFFCURVE",
"475 632 CURVE",
"439 645 OFFCURVE",
"399 651 OFFCURVE",
"360 651 CURVE SMOOTH",
"274 651 OFFCURVE",
"191 611 OFFCURVE",
"127 550 CURVE SMOOTH",
"47 474 OFFCURVE",
"-1 363 OFFCURVE",
"-1 261 CURVE SMOOTH",
"-1 216 OFFCURVE",
"8 173 OFFCURVE",
"28 135 CURVE SMOOTH",
"85 27 OFFCURVE",
"193 -16 OFFCURVE",
"300 -16 CURVE SMOOTH"
);
},
{
closed = 1;
nodes = (
"295 60 OFFCURVE",
"232 81 OFFCURVE",
"177 129 CURVE SMOOTH",
"110 187 OFFCURVE",
"84 261 OFFCURVE",
"84 331 CURVE SMOOTH",
"84 408 OFFCURVE",
"116 479 OFFCURVE",
"158 518 CURVE SMOOTH",
"197 554 OFFCURVE",
"250 574 OFFCURVE",
"307 574 CURVE SMOOTH",
"366 574 OFFCURVE",
"428 553 OFFCURVE",
"483 505 CURVE SMOOTH",
"505 486 OFFCURVE",
"518 466 OFFCURVE",
"526 446 CURVE",
"524 415 OFFCURVE",
"520 379 OFFCURVE",
"514 340 CURVE",
"505 339 OFFCURVE",
"495 338 OFFCURVE",
"491 337 CURVE SMOOTH",
"479 334 OFFCURVE",
"455 323 OFFCURVE",
"455 316 CURVE SMOOTH",
"455 314 OFFCURVE",
"459 313 OFFCURVE",
"468 313 CURVE SMOOTH",
"479 313 LINE SMOOTH",
"488 314 OFFCURVE",
"501 314 OFFCURVE",
"511 315 CURVE",
"503 256 OFFCURVE",
"492 191 OFFCURVE",
"478 132 CURVE SMOOTH",
"468 90 LINE",
"435 71 OFFCURVE",
"395 60 OFFCURVE",
"354 60 CURVE SMOOTH"
);
}
);
width = 957;
}
);
note = OE;
unicode = 0152;
},
{
glyphname = P;
lastChange = "2022-03-21 18:59:40 +0000";
layers = (
{
background = {
paths = (
{
closed = 1;
nodes = (
"695 588 OFFCURVE",
"612 646 OFFCURVE",
"527 649 CURVE SMOOTH",
"462 652 OFFCURVE",
"391 631 OFFCURVE",
"348 630 CURVE SMOOTH",
"337 630 OFFCURVE",
"342 630 OFFCURVE",
"330 630 CURVE SMOOTH",
"265 630 OFFCURVE",
"179 634 OFFCURVE",
"122 634 CURVE SMOOTH",
"112 634 OFFCURVE",
"100 617 OFFCURVE",
"113 617 CURVE SMOOTH",
"128 618 OFFCURVE",
"205 616 OFFCURVE",
"226 613 CURVE SMOOTH",
"244 610 OFFCURVE",
"264 587 OFFCURVE",
"261 561 CURVE SMOOTH",
"247 412 OFFCURVE",
"231 280 OFFCURVE",
"199 132 CURVE SMOOTH",
"170 1 OFFCURVE",
"175 15 OFFCURVE",
"23 17 CURVE",
"15 18 OFFCURVE",
"2 -2 OFFCURVE",
"13 0 CURVE",
"79 -1 OFFCURVE",
"161 3 OFFCURVE",
"192 3 CURVE SMOOTH",
"236 4 OFFCURVE",
"300 1 OFFCURVE",
"456 -2 CURVE",
"466 -4 OFFCURVE",
"478 18 OFFCURVE",
"469 17 CURVE SMOOTH",
"439 14 OFFCURVE",
"395 15 OFFCURVE",
"370 18 CURVE SMOOTH",
"341 22 OFFCURVE",
"319 44 OFFCURVE",
"314 75 CURVE SMOOTH",
"307 122 OFFCURVE",
"315 208 OFFCURVE",
"317 225 CURVE SMOOTH",
"338 407 OFFCURVE",
"355 482 OFFCURVE",
"363 507 CURVE SMOOTH",
"384 574 OFFCURVE",
"405 623 OFFCURVE",
"467 623 CURVE SMOOTH",
"528 623 OFFCURVE",
"554 566 OFFCURVE",
"554 496 CURVE SMOOTH",
"554 381 OFFCURVE",
"495 249 OFFCURVE",
"408 241 CURVE SMOOTH",
"395 240 OFFCURVE",
"381 241 OFFCURVE",
"368 251 CURVE SMOOTH",
"359 257 OFFCURVE",
"353 269 OFFCURVE",
"343 279 CURVE SMOOTH",
"334 288 OFFCURVE",
"322 261 OFFCURVE",
"337 244 CURVE SMOOTH",
"349 231 OFFCURVE",
"398 209 OFFCURVE",
"488 245 CURVE SMOOTH",
"575 279 OFFCURVE",
"668 373 OFFCURVE",
"680 469 CURVE SMOOTH"
);
}
);
};
layerId = "404CF7D8-B1FB-4D32-849A-66F5CDD10145";
paths = (
{
closed = 1;
nodes = (
"464 -4 OFFCURVE",
"472 9 OFFCURVE",
"472 14 CURVE SMOOTH",
"472 16 OFFCURVE",
"471 17 OFFCURVE",
"469 17 CURVE SMOOTH",
"456 16 OFFCURVE",
"441 15 OFFCURVE",
"426 15 CURVE SMOOTH",
"405 15 OFFCURVE",
"385 16 OFFCURVE",
"370 18 CURVE SMOOTH",
"341 22 OFFCURVE",
"319 44 OFFCURVE",
"314 75 CURVE SMOOTH",
"312 89 OFFCURVE",
"311 106 OFFCURVE",
"311 124 CURVE SMOOTH",
"311 167 OFFCURVE",
"316 213 OFFCURVE",
"317 225 CURVE SMOOTH",
"338 407 OFFCURVE",
"355 482 OFFCURVE",
"363 507 CURVE SMOOTH",
"384 574 OFFCURVE",
"405 623 OFFCURVE",
"467 623 CURVE SMOOTH",
"528 623 OFFCURVE",
"554 566 OFFCURVE",
"554 496 CURVE SMOOTH",
"554 378 OFFCURVE",
"492 241 OFFCURVE",
"401 241 CURVE SMOOTH",
"390 241 OFFCURVE",
"379 243 OFFCURVE",
"368 251 CURVE SMOOTH",
"359 257 OFFCURVE",
"353 269 OFFCURVE",
"343 279 CURVE SMOOTH",
"337 285 OFFCURVE",
"330 275 OFFCURVE",
"330 263 CURVE SMOOTH",
"330 257 OFFCURVE",
"332 250 OFFCURVE",
"337 244 CURVE SMOOTH",
"344 236 OFFCURVE",
"364 225 OFFCURVE",
"399 225 CURVE SMOOTH",
"422 225 OFFCURVE",
"452 230 OFFCURVE",
"488 245 CURVE SMOOTH",
"575 279 OFFCURVE",
"668 373 OFFCURVE",
"680 469 CURVE SMOOTH",
"681 478 OFFCURVE",
"682 488 OFFCURVE",
"682 496 CURVE SMOOTH",
"682 597 OFFCURVE",
"605 646 OFFCURVE",
"527 649 CURVE SMOOTH",
"462 652 OFFCURVE",
"391 631 OFFCURVE",
"348 630 CURVE SMOOTH",
"330 630 LINE SMOOTH",
"265 630 OFFCURVE",
"179 634 OFFCURVE",
"122 634 CURVE SMOOTH",
"115 634 OFFCURVE",
"107 626 OFFCURVE",
"107 621 CURVE SMOOTH",
"107 619 OFFCURVE",
"109 617 OFFCURVE",
"113 617 CURVE SMOOTH",
"128 618 OFFCURVE",
"205 616 OFFCURVE",
"226 613 CURVE SMOOTH",
"244 610 OFFCURVE",
"264 587 OFFCURVE",
"261 561 CURVE SMOOTH",
"247 412 OFFCURVE",
"231 280 OFFCURVE",
"199 132 CURVE SMOOTH",
"176 29 OFFCURVE",
"174 16 OFFCURVE",
"101 16 CURVE SMOOTH",
"81 16 OFFCURVE",
"55 17 OFFCURVE",
"23 17 CURVE",
"17 18 OFFCURVE",
"9 8 OFFCURVE",
"9 3 CURVE SMOOTH",
"9 1 OFFCURVE",
"10 0 OFFCURVE",
"12 0 CURVE SMOOTH",
"13 0 LINE SMOOTH",
"79 -1 OFFCURVE",
"161 3 OFFCURVE",
"192 3 CURVE SMOOTH",
"236 4 OFFCURVE",
"300 1 OFFCURVE",
"456 -2 CURVE"
);
}
);
width = 689;
}
);
note = P;
unicode = 0050;
},
{
glyphname = Thorn;
lastChange = "2022-03-21 18:59:40 +0000";
layers = (
{
background = {
paths = (
{
closed = 1;
nodes = (
"555 574 OFFCURVE",
"522 631 OFFCURVE",
"444 649 CURVE SMOOTH",
"403 659 OFFCURVE",
"366 647 OFFCURVE",
"327 643 CURVE SMOOTH",
"322 642 OFFCURVE",
"317 642 OFFCURVE",
"312 642 CURVE",
"320 716 OFFCURVE",
"322 718 OFFCURVE",
"323 728 CURVE SMOOTH",
"324 739 OFFCURVE",
"328 752 OFFCURVE",
"314 751 CURVE SMOOTH",
"278 749 OFFCURVE",
"235 751 OFFCURVE",
"170 752 CURVE SMOOTH",
"162 752 OFFCURVE",
"120 753 OFFCURVE",
"108 753 CURVE SMOOTH",
"97 754 OFFCURVE",
"80 736 OFFCURVE",
"105 736 CURVE SMOOTH",
"173 736 OFFCURVE",
"203 743 OFFCURVE",
"202 668 CURVE SMOOTH",
"200 512 OFFCURVE",
"181 181 OFFCURVE",
"146 76 CURVE SMOOTH",
"134 41 OFFCURVE",
"116 13 OFFCURVE",
"90 14 CURVE SMOOTH",
"71 14 OFFCURVE",
"56 16 OFFCURVE",
"32 17 CURVE SMOOTH",
"23 18 OFFCURVE",
"25 -3 OFFCURVE",
"35 -2 CURVE SMOOTH",
"72 0 OFFCURVE",
"204 2 OFFCURVE",
"224 2 CURVE SMOOTH",
"290 2 OFFCURVE",
"393 -2 OFFCURVE",
"406 -2 CURVE SMOOTH",
"425 -2 OFFCURVE",
"422 14 OFFCURVE",
"412 13 CURVE SMOOTH",
"389 12 OFFCURVE",
"259 5 OFFCURVE",
"256 49 CURVE SMOOTH",
"253 85 OFFCURVE",
"264 246 OFFCURVE",
"279 367 CURVE SMOOTH",
"282 392 OFFCURVE",
"285 416 OFFCURVE",
"288 437 CURVE SMOOTH",
"300 538 OFFCURVE",
"310 598 OFFCURVE",
"315 611 CURVE",
"323 612 OFFCURVE",
"332 614 OFFCURVE",
"343 617 CURVE",
"327 535 OFFCURVE",
"313 436 OFFCURVE",
"303 361 CURVE SMOOTH",
"292 272 OFFCURVE",
"294 183 OFFCURVE",
"378 183 CURVE SMOOTH",
"541 183 OFFCURVE",
"566 380 OFFCURVE",
"560 481 CURVE SMOOTH"
);
},
{
closed = 1;
nodes = (
"460 458 OFFCURVE",
"495 206 OFFCURVE",
"378 206 CURVE SMOOTH",
"298 206 OFFCURVE",
"318 374 OFFCURVE",
"326 433 CURVE SMOOTH",
"330 462 OFFCURVE",
"340 532 OFFCURVE",
"357 617 CURVE",
"399 628 OFFCURVE",
"432 584 OFFCURVE",
"445 524 CURVE SMOOTH"
);
}
);
};
layerId = "404CF7D8-B1FB-4D32-849A-66F5CDD10145";
paths = (
{
closed = 1;
nodes = (
"35 -2 LINE SMOOTH",
"72 0 OFFCURVE",
"204 2 OFFCURVE",
"224 2 CURVE SMOOTH",
"290 2 OFFCURVE",
"393 -2 OFFCURVE",
"406 -2 CURVE SMOOTH",
"416 -2 OFFCURVE",
"420 2 OFFCURVE",
"420 7 CURVE SMOOTH",
"420 10 OFFCURVE",
"417 13 OFFCURVE",
"413 13 CURVE SMOOTH",
"412 13 LINE SMOOTH",
"406 13 OFFCURVE",
"391 12 OFFCURVE",
"374 12 CURVE SMOOTH",
"327 12 OFFCURVE",
"258 17 OFFCURVE",
"256 49 CURVE SMOOTH",
"253 85 OFFCURVE",
"264 246 OFFCURVE",
"279 367 CURVE SMOOTH",
"288 437 LINE SMOOTH",
"300 538 OFFCURVE",
"310 598 OFFCURVE",
"315 611 CURVE",
"323 612 OFFCURVE",
"332 614 OFFCURVE",
"343 617 CURVE",
"327 535 OFFCURVE",
"313 436 OFFCURVE",
"303 361 CURVE SMOOTH",
"300 338 OFFCURVE",
"298 316 OFFCURVE",
"298 295 CURVE SMOOTH",
"298 233 OFFCURVE",
"315 183 OFFCURVE",
"378 183 CURVE SMOOTH",
"527 183 OFFCURVE",
"561 348 OFFCURVE",
"561 454 CURVE SMOOTH",
"561 563 OFFCURVE",
"529 629 OFFCURVE",
"444 649 CURVE SMOOTH",
"432 652 OFFCURVE",
"421 653 OFFCURVE",
"410 653 CURVE SMOOTH",
"382 653 OFFCURVE",
"355 646 OFFCURVE",
"327 643 CURVE SMOOTH",
"322 642 OFFCURVE",
"317 642 OFFCURVE",
"312 642 CURVE",
"320 716 OFFCURVE",
"322 718 OFFCURVE",
"323 728 CURVE SMOOTH",
"323 733 OFFCURVE",
"324 737 OFFCURVE",
"324 741 CURVE SMOOTH",
"324 747 OFFCURVE",
"323 751 OFFCURVE",
"315 751 CURVE SMOOTH",
"314 751 LINE SMOOTH",
"303 750 OFFCURVE",
"291 750 OFFCURVE",
"278 750 CURVE SMOOTH",
"249 750 OFFCURVE",
"215 751 OFFCURVE",
"170 752 CURVE SMOOTH",
"107 753 LINE SMOOTH",
"100 753 OFFCURVE",
"92 747 OFFCURVE",
"92 742 CURVE SMOOTH",
"92 739 OFFCURVE",
"95 736 OFFCURVE",
"105 736 CURVE SMOOTH",
"135 736 LINE SMOOTH",
"181 736 OFFCURVE",
"202 731 OFFCURVE",
"202 672 CURVE SMOOTH",
"202 517 OFFCURVE",
"181 182 OFFCURVE",
"146 76 CURVE SMOOTH",
"134 42 OFFCURVE",
"117 14 OFFCURVE",
"91 14 CURVE SMOOTH",
"72 14 OFFCURVE",
"57 16 OFFCURVE",
"32 17 CURVE SMOOTH",
"28 17 OFFCURVE",
"26 14 OFFCURVE",
"26 9 CURVE SMOOTH",
"26 4 OFFCURVE",
"29 -2 OFFCURVE",
"34 -2 CURVE SMOOTH"
);
},
{
closed = 1;
nodes = (
"330 206 OFFCURVE",
"318 267 OFFCURVE",
"318 329 CURVE SMOOTH",
"318 369 OFFCURVE",
"323 410 OFFCURVE",
"326 433 CURVE SMOOTH",
"330 462 OFFCURVE",
"340 532 OFFCURVE",
"357 617 CURVE",
"361 618 OFFCURVE",
"366 619 OFFCURVE",
"370 619 CURVE SMOOTH",
"406 619 OFFCURVE",
"433 578 OFFCURVE",
"445 524 CURVE SMOOTH",
"452 495 OFFCURVE",
"462 432 OFFCURVE",
"462 369 CURVE SMOOTH",
"462 287 OFFCURVE",
"444 206 OFFCURVE",
"378 206 CURVE SMOOTH"
);
}
);
width = 572;
}
);
note = Thorn;
unicode = 00DE;
},
{
glyphname = Q;
lastChange = "2022-03-21 18:59:40 +0000";
layers = (
{
background = {
paths = (
{
closed = 1;
nodes = (
"630 -193 OFFCURVE",
"598 -195 OFFCURVE",
"575 -193 CURVE SMOOTH",
"521 -187 OFFCURVE",
"258 -116 OFFCURVE",
"173 -77 CURVE",
"249 -61 OFFCURVE",
"316 -45 OFFCURVE",
"378 -18 CURVE SMOOTH",
"564 61 OFFCURVE",
"741 296 OFFCURVE",
"633 499 CURVE SMOOTH",
"576 607 OFFCURVE",
"468 651 OFFCURVE",
"361 651 CURVE SMOOTH",
"274 651 OFFCURVE",
"192 611 OFFCURVE",
"127 550 CURVE SMOOTH",
"12 440 OFFCURVE",
"-37 259 OFFCURVE",
"29 135 CURVE SMOOTH",
"68 61 OFFCURVE",
"132 17 OFFCURVE",
"202 -3 CURVE SMOOTH",
"233 -12 OFFCURVE",
"266 21 OFFCURVE",
"314 42 CURVE SMOOTH",
"347 57 OFFCURVE",
"339 60 OFFCURVE",
"319 63 CURVE SMOOTH",
"271 70 OFFCURVE",
"222 91 OFFCURVE",
"178 129 CURVE SMOOTH",
"110 188 OFFCURVE",
"85 264 OFFCURVE",
"85 335 CURVE SMOOTH",
"85 467 OFFCURVE",
"171 575 OFFCURVE",
"308 575 CURVE SMOOTH",
"454 575 OFFCURVE",
"579 455 OFFCURVE",
"579 313 CURVE SMOOTH",
"579 190 OFFCURVE",
"484 67 OFFCURVE",
"365 6 CURVE SMOOTH",
"337 -9 OFFCURVE",
"178 -68 OFFCURVE",
"149 -53 CURVE SMOOTH",
"137 -46 OFFCURVE",
"129 -63 OFFCURVE",
"138 -73 CURVE SMOOTH",
"187 -127 OFFCURVE",
"362 -271 OFFCURVE",
"500 -286 CURVE SMOOTH",
"548 -291 OFFCURVE",
"587 -261 OFFCURVE",
"604 -231 CURVE SMOOTH",
"609 -222 OFFCURVE",
"610 -208 OFFCURVE",
"635 -208 CURVE SMOOTH",
"656 -208 OFFCURVE",
"652 -191 OFFCURVE",
"641 -192 CURVE SMOOTH"
);
}
);
};
layerId = "404CF7D8-B1FB-4D32-849A-66F5CDD10145";
paths = (
{
closed = 1;
nodes = (
"548 -291 OFFCURVE",
"587 -261 OFFCURVE",
"604 -231 CURVE SMOOTH",
"609 -222 OFFCURVE",
"610 -208 OFFCURVE",
"635 -208 CURVE SMOOTH",
"646 -208 OFFCURVE",
"650 -203 OFFCURVE",
"650 -199 CURVE SMOOTH",
"650 -195 OFFCURVE",
"647 -192 OFFCURVE",
"642 -192 CURVE SMOOTH",
"641 -192 LINE SMOOTH",
"633 -193 OFFCURVE",
"616 -194 OFFCURVE",
"598 -194 CURVE SMOOTH",
"590 -194 OFFCURVE",
"582 -194 OFFCURVE",
"575 -193 CURVE SMOOTH",
"521 -187 OFFCURVE",
"258 -116 OFFCURVE",
"173 -77 CURVE",
"249 -61 OFFCURVE",
"316 -45 OFFCURVE",
"378 -18 CURVE SMOOTH",
"525 44 OFFCURVE",
"666 204 OFFCURVE",
"666 368 CURVE SMOOTH",
"666 412 OFFCURVE",
"656 456 OFFCURVE",
"633 499 CURVE SMOOTH",
"576 607 OFFCURVE",
"468 651 OFFCURVE",
"361 651 CURVE SMOOTH",
"274 651 OFFCURVE",
"192 611 OFFCURVE",
"127 550 CURVE SMOOTH",
"47 474 OFFCURVE",
"-1 363 OFFCURVE",
"-1 262 CURVE SMOOTH",
"-1 217 OFFCURVE",
"9 173 OFFCURVE",
"29 135 CURVE SMOOTH",
"68 61 OFFCURVE",
"132 17 OFFCURVE",
"202 -3 CURVE SMOOTH",
"206 -4 OFFCURVE",
"209 -5 OFFCURVE",
"213 -5 CURVE SMOOTH",
"241 -5 OFFCURVE",
"272 23 OFFCURVE",
"314 42 CURVE SMOOTH",
"330 49 OFFCURVE",
"336 54 OFFCURVE",
"336 57 CURVE SMOOTH",
"336 60 OFFCURVE",
"329 61 OFFCURVE",
"319 63 CURVE SMOOTH",
"271 70 OFFCURVE",
"222 91 OFFCURVE",
"178 129 CURVE SMOOTH",
"110 188 OFFCURVE",
"85 264 OFFCURVE",
"85 335 CURVE SMOOTH",
"85 467 OFFCURVE",
"171 575 OFFCURVE",
"308 575 CURVE SMOOTH",
"454 575 OFFCURVE",
"579 455 OFFCURVE",
"579 313 CURVE SMOOTH",
"579 190 OFFCURVE",
"484 67 OFFCURVE",
"365 6 CURVE SMOOTH",
"340 -7 OFFCURVE",
"212 -55 OFFCURVE",
"163 -55 CURVE SMOOTH",
"157 -55 OFFCURVE",
"152 -55 OFFCURVE",
"149 -53 CURVE SMOOTH",
"141 -48 OFFCURVE",
"134 -55 OFFCURVE",
"134 -63 CURVE SMOOTH",
"134 -66 OFFCURVE",
"135 -70 OFFCURVE",
"138 -73 CURVE SMOOTH",
"187 -127 OFFCURVE",
"362 -271 OFFCURVE",
"500 -286 CURVE SMOOTH"
);
}
);
width = 666;
}
);
note = Q;
unicode = 0051;
},
{
glyphname = R;
lastChange = "2022-03-21 18:59:40 +0000";
layers = (
{
background = {
paths = (
{
closed = 1;
nodes = (
"766 -20 OFFCURVE",
"737 -9 OFFCURVE",
"716 3 CURVE SMOOTH",
"668 31 OFFCURVE",
"448 219 OFFCURVE",
"396 285 CURVE",
"416 282 OFFCURVE",
"446 285 OFFCURVE",
"494 301 CURVE SMOOTH",
"581 330 OFFCURVE",
"673 410 OFFCURVE",
"685 492 CURVE SMOOTH",
"700 593 OFFCURVE",
"618 646 OFFCURVE",
"532 649 CURVE SMOOTH",
"467 652 OFFCURVE",
"391 630 OFFCURVE",
"348 630 CURVE SMOOTH",
"337 630 OFFCURVE",
"342 630 OFFCURVE",
"330 630 CURVE SMOOTH",
"265 630 OFFCURVE",
"179 634 OFFCURVE",
"122 634 CURVE SMOOTH",
"112 634 OFFCURVE",
"100 617 OFFCURVE",
"113 617 CURVE SMOOTH",
"128 618 OFFCURVE",
"205 616 OFFCURVE",
"226 613 CURVE SMOOTH",
"244 610 OFFCURVE",
"264 587 OFFCURVE",
"261 561 CURVE SMOOTH",
"247 412 OFFCURVE",
"231 280 OFFCURVE",
"199 132 CURVE SMOOTH",
"170 1 OFFCURVE",
"175 15 OFFCURVE",
"23 17 CURVE",
"15 18 OFFCURVE",
"2 -2 OFFCURVE",
"13 0 CURVE",
"79 -1 OFFCURVE",
"161 3 OFFCURVE",
"192 3 CURVE SMOOTH",
"237 3 OFFCURVE",
"297 1 OFFCURVE",
"461 -2 CURVE",
"471 -4 OFFCURVE",
"483 18 OFFCURVE",
"474 17 CURVE SMOOTH",
"445 14 OFFCURVE",
"400 15 OFFCURVE",
"375 18 CURVE SMOOTH",
"346 22 OFFCURVE",
"324 44 OFFCURVE",
"319 75 CURVE SMOOTH",
"311 122 OFFCURVE",
"320 208 OFFCURVE",
"322 225 CURVE SMOOTH",
"343 407 OFFCURVE",
"360 482 OFFCURVE",
"368 507 CURVE SMOOTH",
"389 574 OFFCURVE",
"411 623 OFFCURVE",
"472 623 CURVE SMOOTH",
"533 623 OFFCURVE",
"560 574 OFFCURVE",
"560 514 CURVE SMOOTH",
"560 442 OFFCURVE",
"496 290 OFFCURVE",
"412 299 CURVE SMOOTH",
"372 304 OFFCURVE",
"377 327 OFFCURVE",
"368 330 CURVE SMOOTH",
"357 334 OFFCURVE",
"344 310 OFFCURVE",
"362 300 CURVE SMOOTH",
"373 294 OFFCURVE",
"403 236 OFFCURVE",
"421 191 CURVE SMOOTH",
"455 106 OFFCURVE",
"552 -62 OFFCURVE",
"661 -64 CURVE SMOOTH",
"686 -64 OFFCURVE",
"711 -56 OFFCURVE",
"727 -44 CURVE SMOOTH",
"736 -38 OFFCURVE",
"742 -26 OFFCURVE",
"765 -36 CURVE SMOOTH",
"784 -45 OFFCURVE",
"788 -28 OFFCURVE",
"777 -24 CURVE SMOOTH"
);
}
);
};
layerId = "404CF7D8-B1FB-4D32-849A-66F5CDD10145";
paths = (
{
closed = 1;
nodes = (
"686 -64 OFFCURVE",
"711 -56 OFFCURVE",
"727 -44 CURVE",
"734 -40 OFFCURVE",
"738 -32 OFFCURVE",
"749 -32 CURVE SMOOTH",
"754 -32 OFFCURVE",
"759 -33 OFFCURVE",
"765 -36 CURVE SMOOTH",
"769 -38 OFFCURVE",
"772 -39 OFFCURVE",
"775 -39 CURVE SMOOTH",
"780 -39 OFFCURVE",
"783 -35 OFFCURVE",
"783 -32 CURVE SMOOTH",
"783 -29 OFFCURVE",
"781 -25 OFFCURVE",
"777 -24 CURVE SMOOTH",
"766 -20 OFFCURVE",
"737 -9 OFFCURVE",
"716 3 CURVE SMOOTH",
"668 31 OFFCURVE",
"448 219 OFFCURVE",
"396 285 CURVE",
"400 284 OFFCURVE",
"405 284 OFFCURVE",
"411 284 CURVE SMOOTH",
"430 284 OFFCURVE",
"457 289 OFFCURVE",
"494 301 CURVE SMOOTH",
"581 330 OFFCURVE",
"673 410 OFFCURVE",
"685 492 CURVE SMOOTH",
"686 500 OFFCURVE",
"687 508 OFFCURVE",
"687 516 CURVE SMOOTH",
"687 606 OFFCURVE",
"603 649 OFFCURVE",
"519 649 CURVE SMOOTH",
"457 649 OFFCURVE",
"388 630 OFFCURVE",
"348 630 CURVE SMOOTH",
"330 630 LINE SMOOTH",
"265 630 OFFCURVE",
"179 634 OFFCURVE",
"122 634 CURVE SMOOTH",
"115 634 OFFCURVE",
"107 626 OFFCURVE",
"107 621 CURVE SMOOTH",
"107 619 OFFCURVE",
"109 617 OFFCURVE",
"113 617 CURVE SMOOTH",
"128 618 OFFCURVE",
"205 616 OFFCURVE",
"226 613 CURVE SMOOTH",
"244 610 OFFCURVE",
"264 587 OFFCURVE",
"261 561 CURVE SMOOTH",
"247 412 OFFCURVE",
"231 280 OFFCURVE",
"199 132 CURVE SMOOTH",
"176 29 OFFCURVE",
"174 16 OFFCURVE",
"101 16 CURVE SMOOTH",
"81 16 OFFCURVE",
"55 17 OFFCURVE",
"23 17 CURVE",
"17 18 OFFCURVE",
"9 8 OFFCURVE",
"9 3 CURVE SMOOTH",
"9 1 OFFCURVE",
"10 0 OFFCURVE",
"12 0 CURVE SMOOTH",
"13 0 LINE SMOOTH",
"79 -1 OFFCURVE",
"161 3 OFFCURVE",
"192 3 CURVE SMOOTH",
"237 3 OFFCURVE",
"297 1 OFFCURVE",
"461 -2 CURVE",
"469 -4 OFFCURVE",
"477 9 OFFCURVE",
"477 14 CURVE SMOOTH",
"477 16 OFFCURVE",
"476 17 OFFCURVE",
"474 17 CURVE SMOOTH",
"462 16 OFFCURVE",
"447 15 OFFCURVE",
"432 15 CURVE SMOOTH",
"411 15 OFFCURVE",
"390 16 OFFCURVE",
"375 18 CURVE SMOOTH",
"346 22 OFFCURVE",
"324 44 OFFCURVE",
"319 75 CURVE SMOOTH",
"317 89 OFFCURVE",
"316 106 OFFCURVE",
"316 125 CURVE SMOOTH",
"316 167 OFFCURVE",
"321 213 OFFCURVE",
"322 225 CURVE SMOOTH",
"343 407 OFFCURVE",
"360 482 OFFCURVE",
"368 507 CURVE SMOOTH",
"389 574 OFFCURVE",
"411 623 OFFCURVE",
"472 623 CURVE SMOOTH",
"533 623 OFFCURVE",
"560 574 OFFCURVE",
"560 514 CURVE SMOOTH",
"560 442 OFFCURVE",
"496 290 OFFCURVE",
"412 299 CURVE SMOOTH",
"368 304 OFFCURVE",
"378 331 OFFCURVE",
"365 331 CURVE SMOOTH",
"359 331 OFFCURVE",
"353 323 OFFCURVE",
"353 314 CURVE SMOOTH",
"353 309 OFFCURVE",
"356 304 OFFCURVE",
"362 300 CURVE SMOOTH",
"373 294 OFFCURVE",
"403 236 OFFCURVE",
"421 191 CURVE SMOOTH",
"455 106 OFFCURVE",
"552 -62 OFFCURVE",
"661 -64 CURVE SMOOTH"
);
}
);
width = 696;
}
);
note = R;
unicode = 0052;
},
{
glyphname = S;
lastChange = "2022-03-21 18:59:40 +0000";
layers = (
{
background = {
paths = (
{
closed = 1;
nodes = (
"540 336 OFFCURVE",
"501 374 OFFCURVE",
"391 374 CURVE SMOOTH",
"355 374 OFFCURVE",
"190 361 OFFCURVE",
"190 467 CURVE SMOOTH",
"190 528 OFFCURVE",
"225 567 OFFCURVE",
"268 588 CURVE SMOOTH",
"368 638 OFFCURVE",
"494 557 OFFCURVE",
"462 437 CURVE",
"454 420 OFFCURVE",
"463 404 OFFCURVE",
"473 428 CURVE SMOOTH",
"495 483 OFFCURVE",
"503 494 OFFCURVE",
"527 526 CURVE SMOOTH",
"549 556 OFFCURVE",
"552 571 OFFCURVE",
"527 609 CURVE SMOOTH",
"450 722 OFFCURVE",
"57 607 OFFCURVE",
"57 425 CURVE SMOOTH",
"57 367 OFFCURVE",
"123 312 OFFCURVE",
"222 312 CURVE SMOOTH",
"306 312 OFFCURVE",
"423 298 OFFCURVE",
"423 207 CURVE SMOOTH",
"423 0 OFFCURVE",
"92 -27 OFFCURVE",
"96 214 CURVE SMOOTH",
"96 232 OFFCURVE",
"103 263 OFFCURVE",
"98 266 CURVE SMOOTH",
"85 273 OFFCURVE",
"85 249 OFFCURVE",
"80 233 CURVE SMOOTH",
"59 159 OFFCURVE",
"33 135 OFFCURVE",
"8 99 CURVE SMOOTH",
"-11 72 OFFCURVE",
"28 32 OFFCURVE",
"43 14 CURVE SMOOTH",
"62 -9 OFFCURVE",
"95 -17 OFFCURVE",
"130 -17 CURVE SMOOTH",
"338 -17 OFFCURVE",
"540 144 OFFCURVE",
"540 286 CURVE SMOOTH"
);
}
);
};
layerId = "404CF7D8-B1FB-4D32-849A-66F5CDD10145";
paths = (
{
closed = 1;
nodes = (
"338 -17 OFFCURVE",
"540 144 OFFCURVE",
"540 286 CURVE SMOOTH",
"540 336 OFFCURVE",
"501 374 OFFCURVE",
"391 374 CURVE SMOOTH",
"384 374 OFFCURVE",
"372 373 OFFCURVE",
"357 373 CURVE SMOOTH",
"296 373 OFFCURVE",
"190 382 OFFCURVE",
"190 467 CURVE SMOOTH",
"190 528 OFFCURVE",
"225 567 OFFCURVE",
"268 588 CURVE SMOOTH",
"289 598 OFFCURVE",
"310 603 OFFCURVE",
"331 603 CURVE SMOOTH",
"402 603 OFFCURVE",
"467 550 OFFCURVE",
"467 474 CURVE SMOOTH",
"467 462 OFFCURVE",
"465 450 OFFCURVE",
"462 437 CURVE",
"460 432 OFFCURVE",
"459 428 OFFCURVE",
"459 424 CURVE SMOOTH",
"459 419 OFFCURVE",
"461 416 OFFCURVE",
"463 416 CURVE SMOOTH",
"466 416 OFFCURVE",
"469 419 OFFCURVE",
"473 428 CURVE SMOOTH",
"495 483 OFFCURVE",
"503 494 OFFCURVE",
"527 526 CURVE SMOOTH",
"538 541 OFFCURVE",
"545 553 OFFCURVE",
"545 566 CURVE SMOOTH",
"545 578 OFFCURVE",
"539 591 OFFCURVE",
"527 609 CURVE SMOOTH",
"506 640 OFFCURVE",
"461 654 OFFCURVE",
"407 654 CURVE SMOOTH",
"264 654 OFFCURVE",
"57 557 OFFCURVE",
"57 425 CURVE SMOOTH",
"57 367 OFFCURVE",
"123 312 OFFCURVE",
"222 312 CURVE SMOOTH",
"306 312 OFFCURVE",
"423 298 OFFCURVE",
"423 207 CURVE SMOOTH",
"423 101 OFFCURVE",
"337 42 OFFCURVE",
"253 42 CURVE SMOOTH",
"173 42 OFFCURVE",
"96 95 OFFCURVE",
"96 210 CURVE SMOOTH",
"96 222 OFFCURVE",
"100 245 OFFCURVE",
"100 258 CURVE SMOOTH",
"100 262 OFFCURVE",
"99 265 OFFCURVE",
"98 266 CURVE",
"85 273 OFFCURVE",
"85 249 OFFCURVE",
"80 233 CURVE SMOOTH",
"59 159 OFFCURVE",
"33 135 OFFCURVE",
"8 99 CURVE SMOOTH",
"4 94 OFFCURVE",
"3 88 OFFCURVE",
"3 83 CURVE SMOOTH",
"3 58 OFFCURVE",
"31 29 OFFCURVE",
"43 14 CURVE SMOOTH",
"62 -9 OFFCURVE",
"95 -17 OFFCURVE",
"130 -17 CURVE SMOOTH"
);
}
);
width = 551;
}
);
note = S;
unicode = 0053;
},
{
color = 6;
glyphname = Germandbls;
lastChange = "2022-03-21 18:59:40 +0000";
layers = (
{
background = {
paths = (
{
closed = 1;
nodes = (
"103 257 OFFCURVE",
"44 -154 OFFCURVE",
"-10 -187 CURVE SMOOTH",
"-23 -195 OFFCURVE",
"-19 -202 OFFCURVE",
"-5 -198 CURVE SMOOTH",
"5 -195 OFFCURVE",
"26 -189 OFFCURVE",
"32 -187 CURVE SMOOTH",
"96 -169 OFFCURVE",
"128 -149 OFFCURVE",
"134 -113 CURVE SMOOTH",
"167 98 OFFCURVE",
"192 320 OFFCURVE",
"236 529 CURVE SMOOTH",
"263 659 OFFCURVE",
"413 637 OFFCURVE",
"409 516 CURVE SMOOTH",
"407 470 OFFCURVE",
"353 420 OFFCURVE",
"307 382 CURVE SMOOTH",
"285 365 OFFCURVE",
"270 337 OFFCURVE",
"305 316 CURVE SMOOTH",
"341 295 OFFCURVE",
"409 264 OFFCURVE",
"429 225 CURVE SMOOTH",
"462 163 OFFCURVE",
"454 79 OFFCURVE",
"391 42 CURVE SMOOTH",
"327 4 OFFCURVE",
"259 42 OFFCURVE",
"219 88 CURVE SMOOTH",
"204 106 OFFCURVE",
"196 36 OFFCURVE",
"218 18 CURVE SMOOTH",
"241 0 OFFCURVE",
"269 -5 OFFCURVE",
"296 -7 CURVE SMOOTH",
"364 -13 OFFCURVE",
"399 23 OFFCURVE",
"422 40 CURVE SMOOTH",
"498 95 LINE SMOOTH",
"578 153 OFFCURVE",
"564 242 OFFCURVE",
"490 301 CURVE SMOOTH",
"462 324 OFFCURVE",
"398 341 OFFCURVE",
"363 351 CURVE SMOOTH",
"329 361 OFFCURVE",
"334 384 OFFCURVE",
"377 404 CURVE SMOOTH",
"442 435 OFFCURVE",
"514 485 OFFCURVE",
"514 543 CURVE SMOOTH",
"514 640 OFFCURVE",
"402 642 OFFCURVE",
"309 636 CURVE SMOOTH",
"166 626 OFFCURVE",
"141 570 OFFCURVE",
"126 458 CURVE",
"123 434 OFFCURVE",
"121 410 OFFCURVE",
"108 303 CURVE"
);
}
);
};
layerId = "404CF7D8-B1FB-4D32-849A-66F5CDD10145";
paths = (
{
closed = 1;
nodes = (
"-10 -199 OFFCURVE",
"-8 -199 OFFCURVE",
"-5 -198 CURVE SMOOTH",
"32 -187 LINE SMOOTH",
"96 -169 OFFCURVE",
"128 -149 OFFCURVE",
"134 -113 CURVE SMOOTH",
"167 98 OFFCURVE",
"192 320 OFFCURVE",
"236 529 CURVE SMOOTH",
"249 589 OFFCURVE",
"288 617 OFFCURVE",
"326 617 CURVE SMOOTH",
"368 617 OFFCURVE",
"409 583 OFFCURVE",
"409 521 CURVE SMOOTH",
"409 473 OFFCURVE",
"354 421 OFFCURVE",
"307 382 CURVE SMOOTH",
"294 372 OFFCURVE",
"284 359 OFFCURVE",
"284 345 CURVE SMOOTH",
"284 335 OFFCURVE",
"290 325 OFFCURVE",
"305 316 CURVE SMOOTH",
"341 295 OFFCURVE",
"409 264 OFFCURVE",
"429 225 CURVE SMOOTH",
"441 202 OFFCURVE",
"448 175 OFFCURVE",
"448 149 CURVE SMOOTH",
"448 106 OFFCURVE",
"430 65 OFFCURVE",
"391 42 CURVE SMOOTH",
"373 31 OFFCURVE",
"354 26 OFFCURVE",
"336 26 CURVE SMOOTH",
"290 26 OFFCURVE",
"248 55 OFFCURVE",
"219 88 CURVE SMOOTH",
"211 98 OFFCURVE",
"204 81 OFFCURVE",
"204 60 CURVE SMOOTH",
"204 44 OFFCURVE",
"208 26 OFFCURVE",
"218 18 CURVE SMOOTH",
"245 -3 OFFCURVE",
"280 -8 OFFCURVE",
"311 -8 CURVE SMOOTH",
"369 -8 OFFCURVE",
"401 24 OFFCURVE",
"422 40 CURVE SMOOTH",
"498 95 LINE SMOOTH",
"535 122 OFFCURVE",
"552 156 OFFCURVE",
"552 190 CURVE SMOOTH",
"552 229 OFFCURVE",
"530 269 OFFCURVE",
"490 301 CURVE SMOOTH",
"462 324 OFFCURVE",
"398 341 OFFCURVE",
"363 351 CURVE SMOOTH",
"348 355 OFFCURVE",
"341 362 OFFCURVE",
"341 370 CURVE SMOOTH",
"341 381 OFFCURVE",
"353 393 OFFCURVE",
"377 404 CURVE SMOOTH",
"442 435 OFFCURVE",
"514 485 OFFCURVE",
"514 543 CURVE SMOOTH",
"514 622 OFFCURVE",
"440 638 OFFCURVE",
"362 638 CURVE SMOOTH",
"344 638 OFFCURVE",
"326 637 OFFCURVE",
"309 636 CURVE SMOOTH",
"166 626 OFFCURVE",
"141 570 OFFCURVE",
"126 458 CURVE SMOOTH",
"123 434 OFFCURVE",
"121 410 OFFCURVE",
"108 303 CURVE SMOOTH",
"103 257 OFFCURVE",
"44 -154 OFFCURVE",
"-10 -187 CURVE SMOOTH",
"-15 -190 OFFCURVE",
"-18 -193 OFFCURVE",
"-18 -196 CURVE SMOOTH",
"-18 -198 OFFCURVE",
"-16 -199 OFFCURVE",
"-12 -199 CURVE SMOOTH"
);
}
);
width = 552;
}
);
unicode = 1E9E;
},
{
glyphname = Schwa;
lastChange = "2022-03-21 18:59:40 +0000";
layers = (
{
background = {
paths = (
{
closed = 1;
nodes = (
"15 439 OFFCURVE",
"18 436 OFFCURVE",
"21 436 CURVE SMOOTH",
"28 436 OFFCURVE",
"33 442 OFFCURVE",
"36 446 CURVE SMOOTH",
"46 458 OFFCURVE",
"55 469 OFFCURVE",
"65 479 CURVE SMOOTH",
"121 531 OFFCURVE",
"200 557 OFFCURVE",
"276 557 CURVE SMOOTH",
"417 557 OFFCURVE",
"542 473 OFFCURVE",
"542 322 CURVE SMOOTH",
"542 151 OFFCURVE",
"418 31 OFFCURVE",
"252 34 CURVE SMOOTH",
"168 34 OFFCURVE",
"123 86 OFFCURVE",
"123 144 CURVE SMOOTH",
"125 297 OFFCURVE",
"401 350 OFFCURVE",
"572 294 CURVE SMOOTH",
"576 293 OFFCURVE",
"585 351 OFFCURVE",
"581 351 CURVE SMOOTH",
"494 351 OFFCURVE",
"273 346 OFFCURVE",
"202 319 CURVE SMOOTH",
"58 265 OFFCURVE",
"16 199 OFFCURVE",
"16 103 CURVE SMOOTH",
"16 27 OFFCURVE",
"79 -19 OFFCURVE",
"202 -19 CURVE SMOOTH",
"370 -19 OFFCURVE",
"625 152 OFFCURVE",
"625 384 CURVE SMOOTH",
"625 422 OFFCURVE",
"616 461 OFFCURVE",
"600 495 CURVE SMOOTH",
"548 603 OFFCURVE",
"437 647 OFFCURVE",
"323 647 CURVE SMOOTH",
"279 647 OFFCURVE",
"232 643 OFFCURVE",
"190 631 CURVE SMOOTH",
"148 620 OFFCURVE",
"128 591 OFFCURVE",
"106 556 CURVE SMOOTH",
"84 520 OFFCURVE",
"58 488 OFFCURVE",
"27 459 CURVE SMOOTH",
"22 455 OFFCURVE",
"15 449 OFFCURVE",
"15 442 CURVE SMOOTH"
);
}
);
};
layerId = "404CF7D8-B1FB-4D32-849A-66F5CDD10145";
paths = (
{
closed = 1;
nodes = (
"370 -19 OFFCURVE",
"625 152 OFFCURVE",
"625 384 CURVE SMOOTH",
"625 422 OFFCURVE",
"616 461 OFFCURVE",
"600 495 CURVE SMOOTH",
"548 603 OFFCURVE",
"437 647 OFFCURVE",
"323 647 CURVE SMOOTH",
"279 647 OFFCURVE",
"232 643 OFFCURVE",
"190 631 CURVE SMOOTH",
"148 620 OFFCURVE",
"128 591 OFFCURVE",
"106 556 CURVE SMOOTH",
"84 520 OFFCURVE",
"58 488 OFFCURVE",
"27 459 CURVE SMOOTH",
"22 455 OFFCURVE",
"15 449 OFFCURVE",
"15 442 CURVE SMOOTH",
"15 439 OFFCURVE",
"18 436 OFFCURVE",
"21 436 CURVE SMOOTH",
"28 436 OFFCURVE",
"33 442 OFFCURVE",
"36 446 CURVE SMOOTH",
"46 458 OFFCURVE",
"55 469 OFFCURVE",
"65 479 CURVE SMOOTH",
"121 531 OFFCURVE",
"200 557 OFFCURVE",
"276 557 CURVE SMOOTH",
"417 557 OFFCURVE",
"542 473 OFFCURVE",
"542 322 CURVE SMOOTH",
"542 151 OFFCURVE",
"418 31 OFFCURVE",
"252 34 CURVE SMOOTH",
"168 34 OFFCURVE",
"123 86 OFFCURVE",
"123 144 CURVE SMOOTH",
"124 257 OFFCURVE",
"276 316 OFFCURVE",
"424 316 CURVE SMOOTH",
"476 316 OFFCURVE",
"528 309 OFFCURVE",
"572 294 CURVE SMOOTH",
"576 293 OFFCURVE",
"585 351 OFFCURVE",
"581 351 CURVE SMOOTH",
"494 351 OFFCURVE",
"273 346 OFFCURVE",
"202 319 CURVE SMOOTH",
"58 265 OFFCURVE",
"16 199 OFFCURVE",
"16 103 CURVE SMOOTH",
"16 27 OFFCURVE",
"79 -19 OFFCURVE",
"202 -19 CURVE SMOOTH"
);
}
);
width = 660;
}
);
unicode = 018F;
},
{
glyphname = T;
lastChange = "2022-03-21 18:59:40 +0000";
layers = (
{
background = {
paths = (
{
closed = 1;
nodes = (
"625 622 OFFCURVE",
"615 639 OFFCURVE",
"570 637 CURVE SMOOTH",
"475 632 OFFCURVE",
"434 628 OFFCURVE",
"340 629 CURVE SMOOTH",
"264 630 OFFCURVE",
"188 636 OFFCURVE",
"141 639 CURVE SMOOTH",
"86 643 OFFCURVE",
"82 590 OFFCURVE",
"64 531 CURVE SMOOTH",
"54 498 OFFCURVE",
"48 468 OFFCURVE",
"43 452 CURVE SMOOTH",
"41 445 OFFCURVE",
"52 437 OFFCURVE",
"54 444 CURVE SMOOTH",
"85 534 OFFCURVE",
"131 590 OFFCURVE",
"212 590 CURVE SMOOTH",
"285 590 OFFCURVE",
"297 577 OFFCURVE",
"289 508 CURVE SMOOTH",
"283 454 OFFCURVE",
"274 382 OFFCURVE",
"263 312 CURVE SMOOTH",
"255 256 OFFCURVE",
"242 178 OFFCURVE",
"233 133 CURVE SMOOTH",
"208 13 OFFCURVE",
"211 15 OFFCURVE",
"58 17 CURVE",
"51 18 OFFCURVE",
"38 -2 OFFCURVE",
"49 0 CURVE",
"115 -1 OFFCURVE",
"197 2 OFFCURVE",
"227 3 CURVE SMOOTH",
"294 6 OFFCURVE",
"450 0 OFFCURVE",
"517 0 CURVE SMOOTH",
"527 0 OFFCURVE",
"539 19 OFFCURVE",
"526 18 CURVE SMOOTH",
"495 17 OFFCURVE",
"390 19 OFFCURVE",
"369 23 CURVE SMOOTH",
"331 29 OFFCURVE",
"336 82 OFFCURVE",
"339 110 CURVE",
"339 110 OFFCURVE",
"344 202 OFFCURVE",
"359 304 CURVE SMOOTH",
"374 402 OFFCURVE",
"390 512 OFFCURVE",
"390 512 CURVE",
"398 565 OFFCURVE",
"407 580 OFFCURVE",
"506 581 CURVE SMOOTH",
"564 581 OFFCURVE",
"603 550 OFFCURVE",
"596 454 CURVE SMOOTH",
"595 437 OFFCURVE",
"610 436 OFFCURVE",
"611 445 CURVE SMOOTH",
"614 499 OFFCURVE",
"613 524 OFFCURVE",
"619 572 CURVE SMOOTH"
);
}
);
};
layerId = "404CF7D8-B1FB-4D32-849A-66F5CDD10145";
paths = (
{
closed = 1;
nodes = (
"49 0 LINE SMOOTH",
"115 -1 OFFCURVE",
"197 2 OFFCURVE",
"227 3 CURVE SMOOTH",
"240 4 OFFCURVE",
"257 4 OFFCURVE",
"276 4 CURVE SMOOTH",
"353 4 OFFCURVE",
"463 0 OFFCURVE",
"517 0 CURVE SMOOTH",
"524 0 OFFCURVE",
"532 9 OFFCURVE",
"532 14 CURVE SMOOTH",
"532 16 OFFCURVE",
"530 18 OFFCURVE",
"527 18 CURVE SMOOTH",
"526 18 LINE SMOOTH",
"495 17 OFFCURVE",
"390 19 OFFCURVE",
"369 23 CURVE SMOOTH",
"343 27 OFFCURVE",
"337 54 OFFCURVE",
"337 79 CURVE SMOOTH",
"337 90 OFFCURVE",
"338 101 OFFCURVE",
"339 110 CURVE",
"339 110 OFFCURVE",
"344 202 OFFCURVE",
"359 304 CURVE SMOOTH",
"374 402 OFFCURVE",
"390 512 OFFCURVE",
"390 512 CURVE",
"398 565 OFFCURVE",
"407 580 OFFCURVE",
"506 581 CURVE SMOOTH",
"559 581 OFFCURVE",
"597 555 OFFCURVE",
"597 475 CURVE SMOOTH",
"597 468 OFFCURVE",
"596 459 OFFCURVE",
"596 452 CURVE SMOOTH",
"596 443 OFFCURVE",
"601 439 OFFCURVE",
"605 439 CURVE SMOOTH",
"608 439 OFFCURVE",
"611 441 OFFCURVE",
"611 445 CURVE SMOOTH",
"614 499 OFFCURVE",
"613 524 OFFCURVE",
"619 572 CURVE SMOOTH",
"620 581 OFFCURVE",
"621 588 OFFCURVE",
"621 595 CURVE SMOOTH",
"621 627 OFFCURVE",
"607 639 OFFCURVE",
"570 637 CURVE SMOOTH",
"485 633 OFFCURVE",
"443 629 OFFCURVE",
"368 629 CURVE SMOOTH",
"283 629 OFFCURVE",
"194 636 OFFCURVE",
"141 639 CURVE SMOOTH",
"86 643 OFFCURVE",
"82 590 OFFCURVE",
"64 531 CURVE SMOOTH",
"54 498 OFFCURVE",
"48 468 OFFCURVE",
"43 452 CURVE SMOOTH",
"42 447 OFFCURVE",
"47 441 OFFCURVE",
"51 441 CURVE SMOOTH",
"52 441 OFFCURVE",
"53 442 OFFCURVE",
"54 444 CURVE SMOOTH",
"85 534 OFFCURVE",
"131 590 OFFCURVE",
"212 590 CURVE SMOOTH",
"273 590 OFFCURVE",
"291 581 OFFCURVE",
"291 539 CURVE SMOOTH",
"291 530 OFFCURVE",
"290 520 OFFCURVE",
"289 508 CURVE SMOOTH",
"283 454 OFFCURVE",
"274 382 OFFCURVE",
"263 312 CURVE SMOOTH",
"255 256 OFFCURVE",
"242 178 OFFCURVE",
"233 133 CURVE SMOOTH",
"211 28 OFFCURVE",
"211 16 OFFCURVE",
"109 16 CURVE SMOOTH",
"95 16 OFFCURVE",
"78 17 OFFCURVE",
"58 17 CURVE",
"53 18 OFFCURVE",
"45 8 OFFCURVE",
"45 3 CURVE SMOOTH",
"45 1 OFFCURVE",
"46 0 OFFCURVE",
"48 0 CURVE SMOOTH"
);
}
);
width = 616;
}
);
note = T;
unicode = 0054;
},
{
glyphname = U;
lastChange = "2022-03-21 18:59:40 +0000";
layers = (
{
background = {
paths = (
{
closed = 1;
nodes = (
"697 634 OFFCURVE",
"615 632 OFFCURVE",
"585 632 CURVE SMOOTH",
"519 631 OFFCURVE",
"520 632 OFFCURVE",
"454 635 CURVE SMOOTH",
"444 636 OFFCURVE",
"432 619 OFFCURVE",
"445 619 CURVE SMOOTH",
"460 620 OFFCURVE",
"470 621 OFFCURVE",
"491 618 CURVE SMOOTH",
"503 615 OFFCURVE",
"524 603 OFFCURVE",
"521 577 CURVE SMOOTH",
"508 448 OFFCURVE",
"486 261 OFFCURVE",
"462 130 CURVE SMOOTH",
"449 56 OFFCURVE",
"389 19 OFFCURVE",
"331 17 CURVE",
"327 16 OFFCURVE",
"291 17 OFFCURVE",
"286 17 CURVE SMOOTH",
"222 20 OFFCURVE",
"163 65 OFFCURVE",
"172 148 CURVE SMOOTH",
"182 239 OFFCURVE",
"201 417 OFFCURVE",
"227 529 CURVE SMOOTH",
"246 613 OFFCURVE",
"263 621 OFFCURVE",
"344 618 CURVE",
"356 614 OFFCURVE",
"355 636 OFFCURVE",
"344 635 CURVE SMOOTH",
"300 632 OFFCURVE",
"251 632 OFFCURVE",
"229 631 CURVE SMOOTH",
"162 628 OFFCURVE",
"54 634 OFFCURVE",
"-14 634 CURVE SMOOTH",
"-24 634 OFFCURVE",
"-36 617 OFFCURVE",
"-23 617 CURVE SMOOTH",
"-8 618 OFFCURVE",
"69 616 OFFCURVE",
"90 613 CURVE SMOOTH",
"109 610 OFFCURVE",
"127 587 OFFCURVE",
"125 561 CURVE SMOOTH",
"113 440 OFFCURVE",
"97 319 OFFCURVE",
"78 198 CURVE SMOOTH",
"54 38 OFFCURVE",
"168 -14 OFFCURVE",
"284 -16 CURVE SMOOTH",
"288 -16 OFFCURVE",
"323 -16 OFFCURVE",
"327 -16 CURVE SMOOTH",
"457 -14 OFFCURVE",
"545 16 OFFCURVE",
"569 148 CURVE SMOOTH",
"577 194 OFFCURVE",
"578 242 OFFCURVE",
"583 284 CURVE SMOOTH",
"593 364 OFFCURVE",
"607 452 OFFCURVE",
"616 501 CURVE SMOOTH",
"636 605 OFFCURVE",
"661 618 OFFCURVE",
"754 616 CURVE",
"761 615 OFFCURVE",
"774 635 OFFCURVE",
"764 634 CURVE"
);
}
);
};
layerId = "404CF7D8-B1FB-4D32-849A-66F5CDD10145";
paths = (
{
closed = 1;
nodes = (
"327 -16 LINE SMOOTH",
"457 -14 OFFCURVE",
"545 16 OFFCURVE",
"569 148 CURVE SMOOTH",
"577 194 OFFCURVE",
"578 242 OFFCURVE",
"583 284 CURVE SMOOTH",
"593 364 OFFCURVE",
"607 452 OFFCURVE",
"616 501 CURVE SMOOTH",
"636 605 OFFCURVE",
"661 618 OFFCURVE",
"754 616 CURVE",
"759 615 OFFCURVE",
"768 626 OFFCURVE",
"768 631 CURVE SMOOTH",
"768 633 OFFCURVE",
"767 634 OFFCURVE",
"764 634 CURVE SMOOTH",
"697 634 OFFCURVE",
"615 632 OFFCURVE",
"585 632 CURVE SMOOTH",
"546 632 LINE SMOOTH",
"515 632 OFFCURVE",
"504 633 OFFCURVE",
"454 635 CURVE SMOOTH",
"447 636 OFFCURVE",
"439 628 OFFCURVE",
"439 623 CURVE SMOOTH",
"439 621 OFFCURVE",
"441 619 OFFCURVE",
"445 619 CURVE SMOOTH",
"453 620 OFFCURVE",
"459 620 OFFCURVE",
"466 620 CURVE SMOOTH",
"473 620 OFFCURVE",
"481 620 OFFCURVE",
"491 618 CURVE SMOOTH",
"503 615 OFFCURVE",
"524 603 OFFCURVE",
"521 577 CURVE SMOOTH",
"508 448 OFFCURVE",
"486 261 OFFCURVE",
"462 130 CURVE SMOOTH",
"449 56 OFFCURVE",
"389 19 OFFCURVE",
"331 17 CURVE",
"327 16 OFFCURVE",
"291 17 OFFCURVE",
"286 17 CURVE SMOOTH",
"226 20 OFFCURVE",
"171 59 OFFCURVE",
"171 132 CURVE SMOOTH",
"171 137 OFFCURVE",
"171 142 OFFCURVE",
"172 148 CURVE SMOOTH",
"182 239 OFFCURVE",
"201 417 OFFCURVE",
"227 529 CURVE SMOOTH",
"246 613 OFFCURVE",
"263 621 OFFCURVE",
"344 618 CURVE",
"350 616 OFFCURVE",
"353 620 OFFCURVE",
"353 625 CURVE SMOOTH",
"353 630 OFFCURVE",
"350 635 OFFCURVE",
"345 635 CURVE SMOOTH",
"344 635 LINE SMOOTH",
"300 632 OFFCURVE",
"251 632 OFFCURVE",
"229 631 CURVE SMOOTH",
"216 630 OFFCURVE",
"201 630 OFFCURVE",
"185 630 CURVE SMOOTH",
"120 630 OFFCURVE",
"40 634 OFFCURVE",
"-14 634 CURVE SMOOTH",
"-21 634 OFFCURVE",
"-29 626 OFFCURVE",
"-29 621 CURVE SMOOTH",
"-29 619 OFFCURVE",
"-27 617 OFFCURVE",
"-23 617 CURVE SMOOTH",
"-8 618 OFFCURVE",
"69 616 OFFCURVE",
"90 613 CURVE SMOOTH",
"109 610 OFFCURVE",
"127 587 OFFCURVE",
"125 561 CURVE SMOOTH",
"113 440 OFFCURVE",
"97 319 OFFCURVE",
"78 198 CURVE SMOOTH",
"76 183 OFFCURVE",
"75 170 OFFCURVE",
"75 157 CURVE SMOOTH",
"75 29 OFFCURVE",
"179 -14 OFFCURVE",
"284 -16 CURVE SMOOTH"
);
}
);
width = 703;
}
);
note = U;
unicode = 0055;
},
{
color = 11;
glyphname = Uhorn;
lastChange = "2022-03-21 18:59:40 +0000";
layers = (
{
background = {
paths = (
{
closed = 1;
nodes = (
"790 761 OFFCURVE",
"779 707 OFFCURVE",
"763 683 CURVE SMOOTH",
"752 666 OFFCURVE",
"721 634 OFFCURVE",
"689 633 CURVE SMOOTH",
"644 632 OFFCURVE",
"619 631 OFFCURVE",
"593 631 CURVE SMOOTH",
"561 631 OFFCURVE",
"528 632 OFFCURVE",
"454 635 CURVE SMOOTH",
"447 635 OFFCURVE",
"439 627 OFFCURVE",
"439 623 CURVE SMOOTH",
"439 621 OFFCURVE",
"441 619 OFFCURVE",
"445 619 CURVE SMOOTH",
"453 620 OFFCURVE",
"459 620 OFFCURVE",
"466 620 CURVE SMOOTH",
"473 620 OFFCURVE",
"481 620 OFFCURVE",
"491 618 CURVE SMOOTH",
"503 615 OFFCURVE",
"524 603 OFFCURVE",
"521 577 CURVE SMOOTH",
"508 448 OFFCURVE",
"486 261 OFFCURVE",
"462 130 CURVE SMOOTH",
"449 56 OFFCURVE",
"389 19 OFFCURVE",
"331 17 CURVE",
"327 16 OFFCURVE",
"291 17 OFFCURVE",
"286 17 CURVE SMOOTH",
"226 20 OFFCURVE",
"171 59 OFFCURVE",
"171 132 CURVE SMOOTH",
"171 137 OFFCURVE",
"171 142 OFFCURVE",
"172 148 CURVE SMOOTH",
"182 239 OFFCURVE",
"201 417 OFFCURVE",
"227 529 CURVE SMOOTH",
"246 613 OFFCURVE",
"263 621 OFFCURVE",
"344 618 CURVE",
"350 616 OFFCURVE",
"353 620 OFFCURVE",
"353 625 CURVE SMOOTH",
"353 630 OFFCURVE",
"350 636 OFFCURVE",
"344 635 CURVE SMOOTH",
"300 632 OFFCURVE",
"251 632 OFFCURVE",
"229 631 CURVE SMOOTH",
"216 630 OFFCURVE",
"201 630 OFFCURVE",
"185 630 CURVE SMOOTH",
"120 630 OFFCURVE",
"40 634 OFFCURVE",
"-14 634 CURVE SMOOTH",
"-21 634 OFFCURVE",
"-29 626 OFFCURVE",
"-29 621 CURVE SMOOTH",
"-29 619 OFFCURVE",
"-27 617 OFFCURVE",
"-23 617 CURVE SMOOTH",
"-8 618 OFFCURVE",
"69 616 OFFCURVE",
"90 613 CURVE SMOOTH",
"109 610 OFFCURVE",
"127 587 OFFCURVE",
"125 561 CURVE SMOOTH",
"113 440 OFFCURVE",
"97 319 OFFCURVE",
"78 198 CURVE SMOOTH",
"76 183 OFFCURVE",
"75 170 OFFCURVE",
"75 157 CURVE SMOOTH",
"75 29 OFFCURVE",
"179 -16 OFFCURVE",
"284 -16 CURVE SMOOTH",
"327 -16 LINE SMOOTH",
"457 -16 OFFCURVE",
"545 16 OFFCURVE",
"569 148 CURVE SMOOTH",
"577 194 OFFCURVE",
"578 242 OFFCURVE",
"583 284 CURVE SMOOTH",
"593 364 OFFCURVE",
"607 452 OFFCURVE",
"616 501 CURVE SMOOTH",
"629 569 OFFCURVE",
"644 598 OFFCURVE",
"679 610 CURVE",
"692 608 OFFCURVE",
"704 608 OFFCURVE",
"715 608 CURVE SMOOTH",
"754 608 OFFCURVE",
"784 618 OFFCURVE",
"809 641 CURVE SMOOTH",
"846 675 OFFCURVE",
"865 722 OFFCURVE",
"865 761 CURVE SMOOTH",
"865 775 OFFCURVE",
"829 790 OFFCURVE",
"790 790 CURVE"
);
}
);
};
layerId = "404CF7D8-B1FB-4D32-849A-66F5CDD10145";
paths = (
{
closed = 1;
nodes = (
"327 -16 LINE SMOOTH",
"457 -16 OFFCURVE",
"545 16 OFFCURVE",
"569 148 CURVE SMOOTH",
"577 194 OFFCURVE",
"578 242 OFFCURVE",
"583 284 CURVE SMOOTH",
"593 364 OFFCURVE",
"607 452 OFFCURVE",
"616 501 CURVE SMOOTH",
"629 569 OFFCURVE",
"644 598 OFFCURVE",
"679 610 CURVE",
"692 608 OFFCURVE",
"704 608 OFFCURVE",
"715 608 CURVE SMOOTH",
"754 608 OFFCURVE",
"784 618 OFFCURVE",
"809 641 CURVE SMOOTH",
"846 675 OFFCURVE",
"865 722 OFFCURVE",
"865 761 CURVE SMOOTH",
"865 775 OFFCURVE",
"829 790 OFFCURVE",
"790 790 CURVE",
"790 761 OFFCURVE",
"779 707 OFFCURVE",
"763 683 CURVE SMOOTH",
"752 666 OFFCURVE",
"721 634 OFFCURVE",
"689 633 CURVE SMOOTH",
"644 632 OFFCURVE",
"619 631 OFFCURVE",
"593 631 CURVE SMOOTH",
"561 631 OFFCURVE",
"528 632 OFFCURVE",
"454 635 CURVE SMOOTH",
"447 635 OFFCURVE",
"439 627 OFFCURVE",
"439 623 CURVE SMOOTH",
"439 621 OFFCURVE",
"441 619 OFFCURVE",
"445 619 CURVE SMOOTH",
"453 620 OFFCURVE",
"459 620 OFFCURVE",
"466 620 CURVE SMOOTH",
"473 620 OFFCURVE",
"481 620 OFFCURVE",
"491 618 CURVE SMOOTH",
"503 615 OFFCURVE",
"524 603 OFFCURVE",
"521 577 CURVE SMOOTH",
"508 448 OFFCURVE",
"486 261 OFFCURVE",
"462 130 CURVE SMOOTH",
"449 56 OFFCURVE",
"389 19 OFFCURVE",
"331 17 CURVE",
"327 16 OFFCURVE",
"291 17 OFFCURVE",
"286 17 CURVE SMOOTH",
"226 20 OFFCURVE",
"171 59 OFFCURVE",
"171 132 CURVE SMOOTH",
"171 137 OFFCURVE",
"171 142 OFFCURVE",
"172 148 CURVE SMOOTH",
"182 239 OFFCURVE",
"201 417 OFFCURVE",
"227 529 CURVE SMOOTH",
"246 613 OFFCURVE",
"263 621 OFFCURVE",
"344 618 CURVE",
"350 616 OFFCURVE",
"353 620 OFFCURVE",
"353 625 CURVE SMOOTH",
"353 630 OFFCURVE",
"350 635 OFFCURVE",
"345 635 CURVE SMOOTH",
"344 635 LINE SMOOTH",
"300 632 OFFCURVE",
"251 632 OFFCURVE",
"229 631 CURVE SMOOTH",
"216 630 OFFCURVE",
"201 630 OFFCURVE",
"185 630 CURVE SMOOTH",
"120 630 OFFCURVE",
"40 634 OFFCURVE",
"-14 634 CURVE SMOOTH",
"-21 634 OFFCURVE",
"-29 626 OFFCURVE",
"-29 621 CURVE SMOOTH",
"-29 619 OFFCURVE",
"-27 617 OFFCURVE",
"-23 617 CURVE SMOOTH",
"-8 618 OFFCURVE",
"69 616 OFFCURVE",
"90 613 CURVE SMOOTH",
"109 610 OFFCURVE",
"127 587 OFFCURVE",
"125 561 CURVE SMOOTH",
"113 440 OFFCURVE",
"97 319 OFFCURVE",
"78 198 CURVE SMOOTH",
"76 183 OFFCURVE",
"75 170 OFFCURVE",
"75 157 CURVE SMOOTH",
"75 29 OFFCURVE",
"179 -16 OFFCURVE",
"284 -16 CURVE SMOOTH"
);
}
);
width = 703;
}
);
unicode = 01AF;
},
{
glyphname = V;
lastChange = "2022-03-21 18:59:40 +0000";
layers = (
{
background = {
paths = (
{
closed = 1;
nodes = (
"699 634 OFFCURVE",
"636 630 OFFCURVE",
"598 631 CURVE SMOOTH",
"568 631 OFFCURVE",
"531 633 OFFCURVE",
"462 635 CURVE",
"452 637 OFFCURVE",
"435 615 OFFCURVE",
"450 619 CURVE",
"499 621 OFFCURVE",
"580 625 OFFCURVE",
"526 500 CURVE SMOOTH",
"474 381 OFFCURVE",
"402 222 OFFCURVE",
"345 117 CURVE SMOOTH",
"330 90 OFFCURVE",
"321 93 OFFCURVE",
"315 117 CURVE SMOOTH",
"289 228 OFFCURVE",
"236 499 OFFCURVE",
"230 575 CURVE SMOOTH",
"226 621 OFFCURVE",
"305 618 OFFCURVE",
"333 617 CURVE SMOOTH",
"346 616 OFFCURVE",
"350 634 OFFCURVE",
"340 633 CURVE SMOOTH",
"273 630 OFFCURVE",
"197 628 OFFCURVE",
"130 631 CURVE SMOOTH",
"99 632 OFFCURVE",
"83 631 OFFCURVE",
"13 634 CURVE SMOOTH",
"2 634 OFFCURVE",
"-11 617 OFFCURVE",
"3 617 CURVE SMOOTH",
"37 618 OFFCURVE",
"104 632 OFFCURVE",
"138 500 CURVE SMOOTH",
"177 347 OFFCURVE",
"203 185 OFFCURVE",
"227 30 CURVE SMOOTH",
"231 1 OFFCURVE",
"225 -20 OFFCURVE",
"241 -20 CURVE SMOOTH",
"266 -19 OFFCURVE",
"294 18 OFFCURVE",
"328 32 CURVE SMOOTH",
"391 57 OFFCURVE",
"358 55 OFFCURVE",
"374 86 CURVE SMOOTH",
"410 157 OFFCURVE",
"559 457 OFFCURVE",
"618 546 CURVE SMOOTH",
"672 628 OFFCURVE",
"730 615 OFFCURVE",
"745 616 CURVE",
"753 615 OFFCURVE",
"766 635 OFFCURVE",
"755 634 CURVE"
);
}
);
};
layerId = "404CF7D8-B1FB-4D32-849A-66F5CDD10145";
paths = (
{
closed = 1;
nodes = (
"266 -19 OFFCURVE",
"294 18 OFFCURVE",
"328 32 CURVE SMOOTH",
"374 50 OFFCURVE",
"369 54 OFFCURVE",
"369 67 CURVE SMOOTH",
"369 71 OFFCURVE",
"370 77 OFFCURVE",
"374 86 CURVE SMOOTH",
"410 157 OFFCURVE",
"559 457 OFFCURVE",
"618 546 CURVE SMOOTH",
"672 628 OFFCURVE",
"730 615 OFFCURVE",
"745 616 CURVE",
"751 615 OFFCURVE",
"759 626 OFFCURVE",
"759 631 CURVE SMOOTH",
"759 633 OFFCURVE",
"758 634 OFFCURVE",
"755 634 CURVE SMOOTH",
"705 634 OFFCURVE",
"650 631 OFFCURVE",
"612 631 CURVE SMOOTH",
"579 631 OFFCURVE",
"542 633 OFFCURVE",
"462 635 CURVE",
"455 637 OFFCURVE",
"444 626 OFFCURVE",
"444 621 CURVE SMOOTH",
"444 620 OFFCURVE",
"445 619 OFFCURVE",
"447 619 CURVE SMOOTH",
"450 619 LINE SMOOTH",
"488 621 OFFCURVE",
"544 623 OFFCURVE",
"544 568 CURVE SMOOTH",
"544 551 OFFCURVE",
"539 529 OFFCURVE",
"526 500 CURVE SMOOTH",
"474 381 OFFCURVE",
"402 222 OFFCURVE",
"345 117 CURVE SMOOTH",
"338 104 OFFCURVE",
"332 98 OFFCURVE",
"327 98 CURVE SMOOTH",
"322 98 OFFCURVE",
"318 105 OFFCURVE",
"315 117 CURVE SMOOTH",
"289 228 OFFCURVE",
"236 499 OFFCURVE",
"230 575 CURVE SMOOTH",
"226 622 OFFCURVE",
"308 617 OFFCURVE",
"335 617 CURVE SMOOTH",
"342 617 OFFCURVE",
"346 623 OFFCURVE",
"346 628 CURVE SMOOTH",
"346 631 OFFCURVE",
"344 633 OFFCURVE",
"340 633 CURVE SMOOTH",
"296 631 OFFCURVE",
"249 630 OFFCURVE",
"203 630 CURVE SMOOTH",
"178 630 OFFCURVE",
"153 630 OFFCURVE",
"130 631 CURVE SMOOTH",
"99 632 OFFCURVE",
"83 631 OFFCURVE",
"13 634 CURVE SMOOTH",
"5 634 OFFCURVE",
"-3 626 OFFCURVE",
"-3 621 CURVE SMOOTH",
"-3 619 OFFCURVE",
"-1 617 OFFCURVE",
"3 617 CURVE SMOOTH",
"37 618 OFFCURVE",
"104 632 OFFCURVE",
"138 500 CURVE SMOOTH",
"177 347 OFFCURVE",
"203 185 OFFCURVE",
"227 30 CURVE SMOOTH",
"231 1 OFFCURVE",
"225 -20 OFFCURVE",
"241 -20 CURVE SMOOTH"
);
}
);
width = 572;
}
);
note = V;
unicode = 0056;
},
{
glyphname = W;
lastChange = "2022-03-21 18:59:40 +0000";
layers = (
{
background = {
paths = (
{
closed = 1;
nodes = (
"1079 634 OFFCURVE",
"1016 630 OFFCURVE",
"978 631 CURVE SMOOTH",
"948 631 OFFCURVE",
"890 634 OFFCURVE",
"820 629 CURVE",
"810 631 OFFCURVE",
"793 609 OFFCURVE",
"808 613 CURVE",
"857 615 OFFCURVE",
"970 632 OFFCURVE",
"906 500 CURVE SMOOTH",
"847 380 OFFCURVE",
"783 221 OFFCURVE",
"726 116 CURVE SMOOTH",
"711 89 OFFCURVE",
"702 92 OFFCURVE",
"696 117 CURVE SMOOTH",
"670 227 OFFCURVE",
"618 476 OFFCURVE",
"612 552 CURVE SMOOTH",
"608 598 OFFCURVE",
"706 611 OFFCURVE",
"740 616 CURVE SMOOTH",
"748 617 OFFCURVE",
"755 631 OFFCURVE",
"747 631 CURVE SMOOTH",
"680 627 OFFCURVE",
"572 625 OFFCURVE",
"505 628 CURVE SMOOTH",
"475 629 OFFCURVE",
"471 631 OFFCURVE",
"401 633 CURVE",
"390 635 OFFCURVE",
"389 613 OFFCURVE",
"401 616 CURVE",
"477 614 OFFCURVE",
"495 584 OFFCURVE",
"510 526 CURVE SMOOTH",
"516 502 OFFCURVE",
"521 489 OFFCURVE",
"501 447 CURVE SMOOTH",
"449 336 OFFCURVE",
"395 207 OFFCURVE",
"346 116 CURVE SMOOTH",
"331 89 OFFCURVE",
"322 92 OFFCURVE",
"316 117 CURVE SMOOTH",
"290 227 OFFCURVE",
"236 499 OFFCURVE",
"230 575 CURVE SMOOTH",
"226 621 OFFCURVE",
"305 618 OFFCURVE",
"333 617 CURVE SMOOTH",
"346 616 OFFCURVE",
"350 634 OFFCURVE",
"340 633 CURVE SMOOTH",
"273 630 OFFCURVE",
"197 628 OFFCURVE",
"130 631 CURVE SMOOTH",
"99 632 OFFCURVE",
"83 631 OFFCURVE",
"13 634 CURVE SMOOTH",
"2 634 OFFCURVE",
"-11 617 OFFCURVE",
"3 617 CURVE SMOOTH",
"37 618 OFFCURVE",
"104 632 OFFCURVE",
"138 500 CURVE SMOOTH",
"177 347 OFFCURVE",
"204 185 OFFCURVE",
"227 30 CURVE SMOOTH",
"232 0 OFFCURVE",
"226 -20 OFFCURVE",
"242 -20 CURVE SMOOTH",
"266 -19 OFFCURVE",
"295 18 OFFCURVE",
"328 31 CURVE SMOOTH",
"392 57 OFFCURVE",
"362 54 OFFCURVE",
"375 86 CURVE SMOOTH",
"396 136 OFFCURVE",
"476 294 OFFCURVE",
"540 408 CURVE",
"568 283 OFFCURVE",
"589 154 OFFCURVE",
"608 30 CURVE SMOOTH",
"612 0 OFFCURVE",
"606 -20 OFFCURVE",
"622 -20 CURVE SMOOTH",
"647 -19 OFFCURVE",
"675 18 OFFCURVE",
"708 31 CURVE SMOOTH",
"772 57 OFFCURVE",
"742 54 OFFCURVE",
"755 86 CURVE SMOOTH",
"783 153 OFFCURVE",
"939 457 OFFCURVE",
"998 546 CURVE SMOOTH",
"1052 628 OFFCURVE",
"1110 615 OFFCURVE",
"1125 616 CURVE",
"1132 615 OFFCURVE",
"1145 635 OFFCURVE",
"1135 634 CURVE"
);
}
);
};
layerId = "404CF7D8-B1FB-4D32-849A-66F5CDD10145";
paths = (
{
closed = 1;
nodes = (
"266 -19 OFFCURVE",
"295 18 OFFCURVE",
"328 31 CURVE SMOOTH",
"376 50 OFFCURVE",
"371 54 OFFCURVE",
"371 67 CURVE SMOOTH",
"371 72 OFFCURVE",
"372 78 OFFCURVE",
"375 86 CURVE SMOOTH",
"396 136 OFFCURVE",
"476 294 OFFCURVE",
"540 408 CURVE",
"568 283 OFFCURVE",
"589 154 OFFCURVE",
"608 30 CURVE SMOOTH",
"612 0 OFFCURVE",
"606 -20 OFFCURVE",
"622 -20 CURVE SMOOTH",
"647 -19 OFFCURVE",
"675 18 OFFCURVE",
"708 31 CURVE SMOOTH",
"756 50 OFFCURVE",
"751 54 OFFCURVE",
"751 67 CURVE SMOOTH",
"751 72 OFFCURVE",
"752 78 OFFCURVE",
"755 86 CURVE SMOOTH",
"783 153 OFFCURVE",
"939 457 OFFCURVE",
"998 546 CURVE SMOOTH",
"1052 628 OFFCURVE",
"1110 615 OFFCURVE",
"1125 616 CURVE",
"1130 615 OFFCURVE",
"1139 626 OFFCURVE",
"1139 631 CURVE SMOOTH",
"1139 633 OFFCURVE",
"1138 634 OFFCURVE",
"1135 634 CURVE SMOOTH",
"1079 634 OFFCURVE",
"1016 630 OFFCURVE",
"978 631 CURVE SMOOTH",
"962 631 OFFCURVE",
"937 632 OFFCURVE",
"907 632 CURVE SMOOTH",
"881 632 OFFCURVE",
"852 631 OFFCURVE",
"820 629 CURVE",
"813 631 OFFCURVE",
"802 620 OFFCURVE",
"802 615 CURVE SMOOTH",
"802 614 OFFCURVE",
"803 613 OFFCURVE",
"805 613 CURVE SMOOTH",
"808 613 LINE SMOOTH",
"819 614 OFFCURVE",
"834 615 OFFCURVE",
"849 615 CURVE SMOOTH",
"886 615 OFFCURVE",
"925 607 OFFCURVE",
"925 565 CURVE SMOOTH",
"925 549 OFFCURVE",
"920 528 OFFCURVE",
"906 500 CURVE SMOOTH",
"847 380 OFFCURVE",
"783 221 OFFCURVE",
"726 116 CURVE SMOOTH",
"719 103 OFFCURVE",
"713 97 OFFCURVE",
"708 97 CURVE SMOOTH",
"703 97 OFFCURVE",
"699 104 OFFCURVE",
"696 117 CURVE SMOOTH",
"670 227 OFFCURVE",
"618 476 OFFCURVE",
"612 552 CURVE SMOOTH",
"608 598 OFFCURVE",
"706 611 OFFCURVE",
"740 616 CURVE SMOOTH",
"746 617 OFFCURVE",
"751 624 OFFCURVE",
"751 628 CURVE SMOOTH",
"751 630 OFFCURVE",
"749 631 OFFCURVE",
"747 631 CURVE SMOOTH",
"702 628 OFFCURVE",
"639 627 OFFCURVE",
"583 627 CURVE SMOOTH",
"554 627 OFFCURVE",
"527 627 OFFCURVE",
"505 628 CURVE SMOOTH",
"475 629 OFFCURVE",
"471 631 OFFCURVE",
"401 633 CURVE",
"396 634 OFFCURVE",
"392 629 OFFCURVE",
"392 624 CURVE SMOOTH",
"392 620 OFFCURVE",
"394 616 OFFCURVE",
"399 616 CURVE SMOOTH",
"401 616 LINE SMOOTH",
"477 614 OFFCURVE",
"495 584 OFFCURVE",
"510 526 CURVE SMOOTH",
"513 515 OFFCURVE",
"515 506 OFFCURVE",
"515 496 CURVE SMOOTH",
"515 484 OFFCURVE",
"512 470 OFFCURVE",
"501 447 CURVE SMOOTH",
"449 336 OFFCURVE",
"395 207 OFFCURVE",
"346 116 CURVE SMOOTH",
"339 103 OFFCURVE",
"333 97 OFFCURVE",
"328 97 CURVE SMOOTH",
"323 97 OFFCURVE",
"319 104 OFFCURVE",
"316 117 CURVE SMOOTH",
"290 227 OFFCURVE",
"236 499 OFFCURVE",
"230 575 CURVE SMOOTH",
"226 622 OFFCURVE",
"308 617 OFFCURVE",
"335 617 CURVE SMOOTH",
"342 617 OFFCURVE",
"346 623 OFFCURVE",
"346 628 CURVE SMOOTH",
"346 631 OFFCURVE",
"344 633 OFFCURVE",
"340 633 CURVE SMOOTH",
"296 631 OFFCURVE",
"249 630 OFFCURVE",
"203 630 CURVE SMOOTH",
"178 630 OFFCURVE",
"153 630 OFFCURVE",
"130 631 CURVE SMOOTH",
"99 632 OFFCURVE",
"83 631 OFFCURVE",
"13 634 CURVE SMOOTH",
"5 634 OFFCURVE",
"-3 626 OFFCURVE",
"-3 621 CURVE SMOOTH",
"-3 619 OFFCURVE",
"-1 617 OFFCURVE",
"3 617 CURVE SMOOTH",
"37 618 OFFCURVE",
"104 632 OFFCURVE",
"138 500 CURVE SMOOTH",
"177 347 OFFCURVE",
"204 185 OFFCURVE",
"227 30 CURVE SMOOTH",
"232 0 OFFCURVE",
"226 -20 OFFCURVE",
"242 -20 CURVE SMOOTH"
);
}
);
width = 1014;
}
);
note = W;
unicode = 0057;
},
{
glyphname = X;
lastChange = "2022-03-21 18:59:40 +0000";
layers = (
{
background = {
paths = (
{
closed = 1;
nodes = (
"730 634 OFFCURVE",
"667 630 OFFCURVE",
"629 631 CURVE SMOOTH",
"599 631 OFFCURVE",
"562 633 OFFCURVE",
"493 635 CURVE",
"484 637 OFFCURVE",
"466 618 OFFCURVE",
"482 619 CURVE SMOOTH",
"519 621 OFFCURVE",
"643 632 OFFCURVE",
"532 500 CURVE SMOOTH",
"497 459 OFFCURVE",
"462 417 OFFCURVE",
"427 376 CURVE",
"404 418 OFFCURVE",
"383 460 OFFCURVE",
"362 500 CURVE SMOOTH",
"293 632 OFFCURVE",
"389 621 OFFCURVE",
"433 619 CURVE",
"447 615 OFFCURVE",
"458 637 OFFCURVE",
"450 635 CURVE",
"387 633 OFFCURVE",
"254 629 OFFCURVE",
"227 630 CURVE SMOOTH",
"213 631 OFFCURVE",
"99 632 OFFCURVE",
"79 634 CURVE SMOOTH",
"69 634 OFFCURVE",
"59 615 OFFCURVE",
"69 616 CURVE SMOOTH",
"113 621 OFFCURVE",
"157 614 OFFCURVE",
"192 579 CURVE SMOOTH",
"221 550 OFFCURVE",
"295 420 OFFCURVE",
"359 300 CURVE",
"295 227 OFFCURVE",
"229 156 OFFCURVE",
"160 87 CURVE SMOOTH",
"78 5 OFFCURVE",
"30 18 OFFCURVE",
"16 17 CURVE SMOOTH",
"6 16 OFFCURVE",
"-7 2 OFFCURVE",
"3 2 CURVE SMOOTH",
"24 2 OFFCURVE",
"79 -2 OFFCURVE",
"131 0 CURVE SMOOTH",
"187 2 OFFCURVE",
"254 0 OFFCURVE",
"316 -2 CURVE",
"324 -4 OFFCURVE",
"340 19 OFFCURVE",
"325 15 CURVE",
"280 13 OFFCURVE",
"151 2 OFFCURVE",
"262 133 CURVE SMOOTH",
"301 179 OFFCURVE",
"339 224 OFFCURVE",
"376 267 CURVE",
"417 189 OFFCURVE",
"451 120 OFFCURVE",
"463 90 CURVE SMOOTH",
"489 26 OFFCURVE",
"449 18 OFFCURVE",
"397 13 CURVE",
"382 13 OFFCURVE",
"380 -6 OFFCURVE",
"388 -4 CURVE",
"451 0 OFFCURVE",
"546 -3 OFFCURVE",
"573 -2 CURVE SMOOTH",
"632 1 OFFCURVE",
"702 0 OFFCURVE",
"746 0 CURVE SMOOTH",
"756 0 OFFCURVE",
"767 17 OFFCURVE",
"756 17 CURVE SMOOTH",
"740 16 OFFCURVE",
"657 13 OFFCURVE",
"588 107 CURVE SMOOTH",
"536 179 OFFCURVE",
"489 261 OFFCURVE",
"444 343 CURVE",
"500 406 OFFCURVE",
"558 469 OFFCURVE",
"619 537 CURVE SMOOTH",
"666 588 OFFCURVE",
"722 612 OFFCURVE",
"747 616 CURVE SMOOTH",
"760 618 OFFCURVE",
"771 616 OFFCURVE",
"776 616 CURVE SMOOTH",
"784 615 OFFCURVE",
"797 635 OFFCURVE",
"786 634 CURVE"
);
}
);
};
layerId = "404CF7D8-B1FB-4D32-849A-66F5CDD10145";
paths = (
{
closed = 1;
nodes = (
"388 -4 LINE SMOOTH",
"415 -2 OFFCURVE",
"449 -2 OFFCURVE",
"480 -2 CURVE SMOOTH",
"521 -2 OFFCURVE",
"558 -3 OFFCURVE",
"573 -2 CURVE SMOOTH",
"608 0 OFFCURVE",
"648 0 OFFCURVE",
"683 0 CURVE SMOOTH",
"746 0 LINE SMOOTH",
"753 0 OFFCURVE",
"761 8 OFFCURVE",
"761 13 CURVE SMOOTH",
"761 16 OFFCURVE",
"759 17 OFFCURVE",
"756 17 CURVE SMOOTH",
"740 16 OFFCURVE",
"657 13 OFFCURVE",
"588 107 CURVE SMOOTH",
"536 179 OFFCURVE",
"489 261 OFFCURVE",
"444 343 CURVE",
"500 406 OFFCURVE",
"558 469 OFFCURVE",
"619 537 CURVE SMOOTH",
"666 588 OFFCURVE",
"722 612 OFFCURVE",
"747 616 CURVE SMOOTH",
"760 618 OFFCURVE",
"771 616 OFFCURVE",
"776 616 CURVE SMOOTH",
"782 615 OFFCURVE",
"790 626 OFFCURVE",
"790 631 CURVE SMOOTH",
"790 633 OFFCURVE",
"789 634 OFFCURVE",
"786 634 CURVE SMOOTH",
"736 634 OFFCURVE",
"681 631 OFFCURVE",
"643 631 CURVE SMOOTH",
"610 631 OFFCURVE",
"573 633 OFFCURVE",
"493 635 CURVE",
"486 636 OFFCURVE",
"476 627 OFFCURVE",
"476 622 CURVE SMOOTH",
"476 620 OFFCURVE",
"477 619 OFFCURVE",
"481 619 CURVE SMOOTH",
"482 619 LINE SMOOTH",
"508 620 OFFCURVE",
"577 626 OFFCURVE",
"577 584 CURVE SMOOTH",
"577 566 OFFCURVE",
"565 539 OFFCURVE",
"532 500 CURVE SMOOTH",
"427 376 LINE",
"404 418 OFFCURVE",
"383 460 OFFCURVE",
"362 500 CURVE SMOOTH",
"345 533 OFFCURVE",
"338 557 OFFCURVE",
"338 574 CURVE SMOOTH",
"338 614 OFFCURVE",
"373 620 OFFCURVE",
"404 620 CURVE SMOOTH",
"415 620 OFFCURVE",
"425 619 OFFCURVE",
"433 619 CURVE",
"443 616 OFFCURVE",
"453 628 OFFCURVE",
"453 633 CURVE SMOOTH",
"453 634 OFFCURVE",
"452 635 OFFCURVE",
"451 635 CURVE SMOOTH",
"450 635 LINE SMOOTH",
"394 633 OFFCURVE",
"282 630 OFFCURVE",
"239 630 CURVE SMOOTH",
"278 630 OFFCURVE",
"104 631 OFFCURVE",
"79 634 CURVE SMOOTH",
"72 634 OFFCURVE",
"65 625 OFFCURVE",
"65 619 CURVE SMOOTH",
"65 617 OFFCURVE",
"66 616 OFFCURVE",
"69 616 CURVE SMOOTH",
"77 617 OFFCURVE",
"85 617 OFFCURVE",
"93 617 CURVE SMOOTH",
"129 617 OFFCURVE",
"163 608 OFFCURVE",
"192 579 CURVE SMOOTH",
"221 550 OFFCURVE",
"295 420 OFFCURVE",
"359 300 CURVE",
"295 227 OFFCURVE",
"229 156 OFFCURVE",
"160 87 CURVE SMOOTH",
"82 9 OFFCURVE",
"34 17 OFFCURVE",
"18 17 CURVE SMOOTH",
"11 17 OFFCURVE",
"-1 8 OFFCURVE",
"-1 4 CURVE SMOOTH",
"-1 3 OFFCURVE",
"0 2 OFFCURVE",
"3 2 CURVE SMOOTH",
"20 2 OFFCURVE",
"58 -1 OFFCURVE",
"100 -1 CURVE SMOOTH",
"110 -1 OFFCURVE",
"121 0 OFFCURVE",
"131 0 CURVE SMOOTH",
"147 1 OFFCURVE",
"165 1 OFFCURVE",
"183 1 CURVE SMOOTH",
"226 1 OFFCURVE",
"272 -1 OFFCURVE",
"316 -2 CURVE",
"321 -4 OFFCURVE",
"331 7 OFFCURVE",
"331 12 CURVE SMOOTH",
"331 14 OFFCURVE",
"330 15 OFFCURVE",
"328 15 CURVE SMOOTH",
"325 15 LINE SMOOTH",
"317 15 OFFCURVE",
"306 14 OFFCURVE",
"294 14 CURVE SMOOTH",
"260 14 OFFCURVE",
"218 19 OFFCURVE",
"218 52 CURVE SMOOTH",
"218 70 OFFCURVE",
"230 95 OFFCURVE",
"262 133 CURVE SMOOTH",
"301 179 OFFCURVE",
"339 224 OFFCURVE",
"376 267 CURVE",
"417 189 OFFCURVE",
"451 120 OFFCURVE",
"463 90 CURVE SMOOTH",
"469 76 OFFCURVE",
"471 65 OFFCURVE",
"471 56 CURVE SMOOTH",
"471 23 OFFCURVE",
"438 17 OFFCURVE",
"397 13 CURVE SMOOTH",
"388 13 OFFCURVE",
"383 6 OFFCURVE",
"383 1 CURVE SMOOTH",
"383 -2 OFFCURVE",
"385 -4 OFFCURVE",
"387 -4 CURVE SMOOTH"
);
}
);
width = 757;
}
);
note = X;
unicode = 0058;
},
{
glyphname = Y;
lastChange = "2022-03-21 18:59:40 +0000";
layers = (
{
background = {
paths = (
{
closed = 1;
nodes = (
"652 634 OFFCURVE",
"590 630 OFFCURVE",
"551 631 CURVE SMOOTH",
"522 631 OFFCURVE",
"484 633 OFFCURVE",
"415 635 CURVE",
"406 637 OFFCURVE",
"389 615 OFFCURVE",
"404 619 CURVE",
"452 621 OFFCURVE",
"544 632 OFFCURVE",
"480 500 CURVE SMOOTH",
"454 446 OFFCURVE",
"415 380 OFFCURVE",
"387 344 CURVE SMOOTH",
"378 333 OFFCURVE",
"361 311 OFFCURVE",
"353 357 CURVE SMOOTH",
"300 668 OFFCURVE",
"232 643 OFFCURVE",
"207 641 CURVE SMOOTH",
"141 635 OFFCURVE",
"75 627 OFFCURVE",
"8 624 CURVE SMOOTH",
"-2 624 OFFCURVE",
"-14 605 OFFCURVE",
"0 607 CURVE SMOOTH",
"88 619 OFFCURVE",
"138 614 OFFCURVE",
"188 534 CURVE SMOOTH",
"203 510 OFFCURVE",
"219 477 OFFCURVE",
"234 435 CURVE SMOOTH",
"246 399 OFFCURVE",
"267 340 OFFCURVE",
"276 276 CURVE SMOOTH",
"277 267 OFFCURVE",
"276 238 OFFCURVE",
"275 230 CURVE SMOOTH",
"271 197 OFFCURVE",
"263 165 OFFCURVE",
"256 132 CURVE SMOOTH",
"227 1 OFFCURVE",
"232 15 OFFCURVE",
"80 17 CURVE",
"72 18 OFFCURVE",
"59 -2 OFFCURVE",
"70 0 CURVE",
"136 -1 OFFCURVE",
"218 2 OFFCURVE",
"249 3 CURVE SMOOTH",
"316 6 OFFCURVE",
"432 0 OFFCURVE",
"498 0 CURVE SMOOTH",
"509 0 OFFCURVE",
"521 17 OFFCURVE",
"508 16 CURVE SMOOTH",
"493 15 OFFCURVE",
"416 17 OFFCURVE",
"395 20 CURVE SMOOTH",
"383 23 OFFCURVE",
"357 35 OFFCURVE",
"358 68 CURVE SMOOTH",
"360 103 OFFCURVE",
"361 155 OFFCURVE",
"374 229 CURVE SMOOTH",
"377 245 OFFCURVE",
"382 259 OFFCURVE",
"389 273 CURVE SMOOTH",
"438 362 OFFCURVE",
"518 477 OFFCURVE",
"562 538 CURVE SMOOTH",
"619 619 OFFCURVE",
"684 615 OFFCURVE",
"698 616 CURVE",
"706 615 OFFCURVE",
"719 635 OFFCURVE",
"708 634 CURVE"
);
}
);
};
layerId = "404CF7D8-B1FB-4D32-849A-66F5CDD10145";
paths = (
{
closed = 1;
nodes = (
"70 0 LINE SMOOTH",
"136 -1 OFFCURVE",
"218 2 OFFCURVE",
"249 3 CURVE SMOOTH",
"262 4 OFFCURVE",
"278 4 OFFCURVE",
"294 4 CURVE SMOOTH",
"360 4 OFFCURVE",
"445 0 OFFCURVE",
"498 0 CURVE SMOOTH",
"506 0 OFFCURVE",
"514 8 OFFCURVE",
"514 13 CURVE SMOOTH",
"514 15 OFFCURVE",
"512 16 OFFCURVE",
"509 16 CURVE SMOOTH",
"508 16 LINE SMOOTH",
"493 15 OFFCURVE",
"416 17 OFFCURVE",
"395 20 CURVE SMOOTH",
"383 23 OFFCURVE",
"357 35 OFFCURVE",
"358 68 CURVE SMOOTH",
"360 103 OFFCURVE",
"361 155 OFFCURVE",
"374 229 CURVE SMOOTH",
"377 245 OFFCURVE",
"382 259 OFFCURVE",
"389 273 CURVE SMOOTH",
"438 362 OFFCURVE",
"518 477 OFFCURVE",
"562 538 CURVE SMOOTH",
"619 619 OFFCURVE",
"684 615 OFFCURVE",
"698 616 CURVE",
"704 615 OFFCURVE",
"712 626 OFFCURVE",
"712 631 CURVE SMOOTH",
"712 633 OFFCURVE",
"711 634 OFFCURVE",
"708 634 CURVE SMOOTH",
"658 634 OFFCURVE",
"604 631 OFFCURVE",
"565 631 CURVE SMOOTH",
"534 631 OFFCURVE",
"496 633 OFFCURVE",
"415 635 CURVE",
"409 637 OFFCURVE",
"398 626 OFFCURVE",
"398 621 CURVE SMOOTH",
"398 620 OFFCURVE",
"399 619 OFFCURVE",
"401 619 CURVE SMOOTH",
"404 619 LINE SMOOTH",
"413 620 OFFCURVE",
"424 620 OFFCURVE",
"435 620 CURVE SMOOTH",
"467 620 OFFCURVE",
"502 614 OFFCURVE",
"502 573 CURVE SMOOTH",
"502 556 OFFCURVE",
"496 532 OFFCURVE",
"480 500 CURVE SMOOTH",
"454 446 OFFCURVE",
"415 380 OFFCURVE",
"387 344 CURVE SMOOTH",
"382 338 OFFCURVE",
"375 329 OFFCURVE",
"368 329 CURVE SMOOTH",
"362 329 OFFCURVE",
"357 336 OFFCURVE",
"353 357 CURVE SMOOTH",
"309 617 OFFCURVE",
"254 642 OFFCURVE",
"222 642 CURVE SMOOTH",
"216 642 OFFCURVE",
"211 641 OFFCURVE",
"207 641 CURVE SMOOTH",
"141 635 OFFCURVE",
"75 627 OFFCURVE",
"8 624 CURVE SMOOTH",
"2 624 OFFCURVE",
"-6 615 OFFCURVE",
"-6 610 CURVE SMOOTH",
"-6 608 OFFCURVE",
"-5 607 OFFCURVE",
"-2 607 CURVE SMOOTH",
"0 607 LINE SMOOTH",
"22 610 OFFCURVE",
"41 612 OFFCURVE",
"59 612 CURVE SMOOTH",
"113 612 OFFCURVE",
"150 594 OFFCURVE",
"188 534 CURVE SMOOTH",
"203 510 OFFCURVE",
"219 477 OFFCURVE",
"234 435 CURVE SMOOTH",
"246 399 OFFCURVE",
"267 340 OFFCURVE",
"276 276 CURVE SMOOTH",
"277 267 OFFCURVE",
"276 238 OFFCURVE",
"275 230 CURVE SMOOTH",
"271 197 OFFCURVE",
"263 165 OFFCURVE",
"256 132 CURVE SMOOTH",
"233 29 OFFCURVE",
"231 16 OFFCURVE",
"158 16 CURVE SMOOTH",
"138 16 OFFCURVE",
"112 17 OFFCURVE",
"80 17 CURVE",
"74 18 OFFCURVE",
"66 8 OFFCURVE",
"66 3 CURVE SMOOTH",
"66 1 OFFCURVE",
"67 0 OFFCURVE",
"69 0 CURVE SMOOTH"
);
}
);
width = 683;
}
);
note = Y;
unicode = 0059;
},
{
glyphname = Z;
lastChange = "2022-03-21 18:59:40 +0000";
layers = (
{
background = {
paths = (
{
closed = 1;
nodes = (
"629 639 OFFCURVE",
"567 633 OFFCURVE",
"552 633 CURVE SMOOTH",
"444 631 OFFCURVE",
"275 633 OFFCURVE",
"182 637 CURVE SMOOTH",
"132 639 OFFCURVE",
"120 622 OFFCURVE",
"121 572 CURVE SMOOTH",
"122 524 OFFCURVE",
"117 499 OFFCURVE",
"116 445 CURVE SMOOTH",
"115 436 OFFCURVE",
"132 437 OFFCURVE",
"133 454 CURVE SMOOTH",
"136 550 OFFCURVE",
"184 598 OFFCURVE",
"248 597 CURVE SMOOTH",
"346 596 OFFCURVE",
"457 615 OFFCURVE",
"401 534 CURVE SMOOTH",
"152 174 LINE SMOOTH",
"84 75 OFFCURVE",
"56 53 OFFCURVE",
"27 30 CURVE SMOOTH",
"16 21 OFFCURVE",
"-11 -20 OFFCURVE",
"53 -8 CURVE SMOOTH",
"127 5 OFFCURVE",
"247 0 OFFCURVE",
"310 0 CURVE SMOOTH",
"432 0 OFFCURVE",
"501 -13 OFFCURVE",
"520 0 CURVE SMOOTH",
"565 31 OFFCURVE",
"579 145 OFFCURVE",
"589 175 CURVE SMOOTH",
"591 182 OFFCURVE",
"582 190 OFFCURVE",
"579 183 CURVE SMOOTH",
"546 94 OFFCURVE",
"476 32 OFFCURVE",
"373 32 CURVE SMOOTH",
"270 32 OFFCURVE",
"188 48 OFFCURVE",
"225 100 CURVE",
"225 100 OFFCURVE",
"389 382 OFFCURVE",
"538 545 CURVE SMOOTH",
"577 588 OFFCURVE",
"588 604 OFFCURVE",
"603 616 CURVE SMOOTH"
);
}
);
};
layerId = "404CF7D8-B1FB-4D32-849A-66F5CDD10145";
paths = (
{
closed = 1;
nodes = (
"38 -10 OFFCURVE",
"45 -10 OFFCURVE",
"53 -8 CURVE SMOOTH",
"95 -1 OFFCURVE",
"151 1 OFFCURVE",
"204 1 CURVE SMOOTH",
"244 1 OFFCURVE",
"283 0 OFFCURVE",
"310 0 CURVE SMOOTH",
"391 0 OFFCURVE",
"449 -6 OFFCURVE",
"484 -6 CURVE SMOOTH",
"502 -6 OFFCURVE",
"514 -4 OFFCURVE",
"520 0 CURVE SMOOTH",
"565 31 OFFCURVE",
"579 145 OFFCURVE",
"589 175 CURVE SMOOTH",
"590 180 OFFCURVE",
"586 186 OFFCURVE",
"582 186 CURVE SMOOTH",
"581 186 OFFCURVE",
"580 185 OFFCURVE",
"579 183 CURVE SMOOTH",
"546 94 OFFCURVE",
"476 32 OFFCURVE",
"373 32 CURVE SMOOTH",
"287 32 OFFCURVE",
"216 43 OFFCURVE",
"216 77 CURVE SMOOTH",
"216 84 OFFCURVE",
"219 91 OFFCURVE",
"225 100 CURVE",
"225 100 OFFCURVE",
"389 382 OFFCURVE",
"538 545 CURVE SMOOTH",
"577 588 OFFCURVE",
"588 604 OFFCURVE",
"603 616 CURVE SMOOTH",
"607 620 OFFCURVE",
"609 623 OFFCURVE",
"609 625 CURVE SMOOTH",
"609 632 OFFCURVE",
"594 634 OFFCURVE",
"579 634 CURVE SMOOTH",
"568 634 OFFCURVE",
"557 633 OFFCURVE",
"552 633 CURVE SMOOTH",
"523 632 OFFCURVE",
"490 632 OFFCURVE",
"455 632 CURVE SMOOTH",
"359 632 OFFCURVE",
"250 634 OFFCURVE",
"182 637 CURVE SMOOTH",
"134 639 OFFCURVE",
"121 623 OFFCURVE",
"121 577 CURVE SMOOTH",
"121 526 OFFCURVE",
"117 501 OFFCURVE",
"116 445 CURVE SMOOTH",
"115 436 OFFCURVE",
"132 437 OFFCURVE",
"133 454 CURVE SMOOTH",
"136 549 OFFCURVE",
"183 597 OFFCURVE",
"246 597 CURVE SMOOTH",
"278 597 OFFCURVE",
"310 598 OFFCURVE",
"338 598 CURVE SMOOTH",
"383 598 OFFCURVE",
"416 594 OFFCURVE",
"416 570 CURVE SMOOTH",
"416 561 OFFCURVE",
"411 549 OFFCURVE",
"401 534 CURVE SMOOTH",
"152 174 LINE SMOOTH",
"84 75 OFFCURVE",
"56 53 OFFCURVE",
"27 30 CURVE SMOOTH",
"21 25 OFFCURVE",
"12 13 OFFCURVE",
"12 3 CURVE SMOOTH",
"12 -4 OFFCURVE",
"17 -10 OFFCURVE",
"33 -10 CURVE SMOOTH"
);
}
);
width = 602;
}
);
note = Z;
unicode = 005A;
},
{
glyphname = a;
lastChange = "2022-03-21 18:59:40 +0000";
layers = (
{
background = {
paths = (
{
closed = 1;
nodes = (
"509 16 OFFCURVE",
"463 17 OFFCURVE",
"441 21 CURVE SMOOTH",
"397 28 OFFCURVE",
"415 126 OFFCURVE",
"418 156 CURVE SMOOTH",
"423 214 OFFCURVE",
"433 272 OFFCURVE",
"446 330 CURVE SMOOTH",
"467 425 OFFCURVE",
"381 473 OFFCURVE",
"285 467 CURVE SMOOTH",
"227 464 OFFCURVE",
"117 434 OFFCURVE",
"83 378 CURVE SMOOTH",
"77 368 OFFCURVE",
"74 327 OFFCURVE",
"70 298 CURVE SMOOTH",
"64 254 OFFCURVE",
"104 274 OFFCURVE",
"117 282 CURVE SMOOTH",
"138 295 OFFCURVE",
"150 296 OFFCURVE",
"167 313 CURVE SMOOTH",
"189 333 OFFCURVE",
"183 390 OFFCURVE",
"220 425 CURVE SMOOTH",
"236 439 OFFCURVE",
"260 453 OFFCURVE",
"285 453 CURVE SMOOTH",
"353 453 OFFCURVE",
"332 313 OFFCURVE",
"327 268 CURVE",
"325 259 OFFCURVE",
"315 256 OFFCURVE",
"309 259 CURVE",
"309 259 OFFCURVE",
"313 289 OFFCURVE",
"315 310 CURVE SMOOTH",
"318 343 OFFCURVE",
"316 380 OFFCURVE",
"303 400 CURVE SMOOTH",
"298 408 OFFCURVE",
"293 413 OFFCURVE",
"286 410 CURVE SMOOTH",
"276 406 OFFCURVE",
"288 393 OFFCURVE",
"291 389 CURVE SMOOTH",
"304 368 OFFCURVE",
"305 335 OFFCURVE",
"304 311 CURVE SMOOTH",
"303 292 OFFCURVE",
"298 259 OFFCURVE",
"298 259 CURVE",
"200 261 OFFCURVE",
"17 239 OFFCURVE",
"17 93 CURVE SMOOTH",
"17 69 OFFCURVE",
"31 -6 OFFCURVE",
"82 -6 CURVE SMOOTH",
"187 -6 LINE SMOOTH",
"234 -6 OFFCURVE",
"295 135 OFFCURVE",
"308 249 CURVE",
"314 247 OFFCURVE",
"325 246 OFFCURVE",
"323 235 CURVE SMOOTH",
"320 216 OFFCURVE",
"304 87 OFFCURVE",
"288 28 CURVE SMOOTH",
"281 0 OFFCURVE",
"277 -1 OFFCURVE",
"305 0 CURVE SMOOTH",
"376 4 OFFCURVE",
"445 0 OFFCURVE",
"515 0 CURVE SMOOTH",
"527 0 OFFCURVE",
"539 18 OFFCURVE",
"525 17 CURVE SMOOTH"
);
},
{
closed = 1;
nodes = (
"296 237 OFFCURVE",
"281 128 OFFCURVE",
"239 80 CURVE SMOOTH",
"213 50 OFFCURVE",
"159 46 OFFCURVE",
"141 88 CURVE SMOOTH",
"121 134 OFFCURVE",
"149 196 OFFCURVE",
"188 224 CURVE SMOOTH",
"215 243 OFFCURVE",
"253 256 OFFCURVE",
"298 250 CURVE"
);
}
);
};
layerId = "404CF7D8-B1FB-4D32-849A-66F5CDD10145";
paths = (
{
closed = 1;
nodes = (
"187 -6 LINE SMOOTH",
"234 -6 OFFCURVE",
"295 135 OFFCURVE",
"308 249 CURVE",
"314 247 OFFCURVE",
"323 246 OFFCURVE",
"323 237 CURVE SMOOTH",
"323 235 LINE SMOOTH",
"320 216 OFFCURVE",
"304 87 OFFCURVE",
"288 28 CURVE SMOOTH",
"285 17 OFFCURVE",
"283 10 OFFCURVE",
"283 6 CURVE SMOOTH",
"283 1 OFFCURVE",
"286 0 OFFCURVE",
"295 0 CURVE SMOOTH",
"305 0 LINE SMOOTH",
"329 1 OFFCURVE",
"352 2 OFFCURVE",
"375 2 CURVE SMOOTH",
"422 2 OFFCURVE",
"468 0 OFFCURVE",
"515 0 CURVE SMOOTH",
"523 0 OFFCURVE",
"531 8 OFFCURVE",
"531 13 CURVE SMOOTH",
"531 15 OFFCURVE",
"530 17 OFFCURVE",
"526 17 CURVE SMOOTH",
"525 17 LINE SMOOTH",
"509 16 OFFCURVE",
"463 17 OFFCURVE",
"441 21 CURVE SMOOTH",
"418 25 OFFCURVE",
"412 54 OFFCURVE",
"412 85 CURVE SMOOTH",
"412 113 OFFCURVE",
"417 142 OFFCURVE",
"418 156 CURVE SMOOTH",
"423 214 OFFCURVE",
"433 272 OFFCURVE",
"446 330 CURVE SMOOTH",
"448 340 OFFCURVE",
"449 349 OFFCURVE",
"449 358 CURVE SMOOTH",
"449 434 OFFCURVE",
"371 472 OFFCURVE",
"285 467 CURVE SMOOTH",
"227 464 OFFCURVE",
"117 434 OFFCURVE",
"83 378 CURVE SMOOTH",
"77 368 OFFCURVE",
"74 327 OFFCURVE",
"70 298 CURVE SMOOTH",
"67 277 OFFCURVE",
"75 270 OFFCURVE",
"85 270 CURVE SMOOTH",
"96 270 OFFCURVE",
"110 278 OFFCURVE",
"117 282 CURVE SMOOTH",
"138 295 OFFCURVE",
"150 296 OFFCURVE",
"167 313 CURVE SMOOTH",
"189 333 OFFCURVE",
"183 390 OFFCURVE",
"220 425 CURVE SMOOTH",
"236 439 OFFCURVE",
"260 453 OFFCURVE",
"285 453 CURVE SMOOTH",
"325 453 OFFCURVE",
"334 406 OFFCURVE",
"334 357 CURVE SMOOTH",
"334 322 OFFCURVE",
"329 287 OFFCURVE",
"327 268 CURVE SMOOTH",
"326 261 OFFCURVE",
"320 258 OFFCURVE",
"314 258 CURVE SMOOTH",
"312 258 OFFCURVE",
"311 258 OFFCURVE",
"309 259 CURVE",
"309 259 OFFCURVE",
"313 289 OFFCURVE",
"315 310 CURVE SMOOTH",
"316 319 OFFCURVE",
"316 327 OFFCURVE",
"316 336 CURVE SMOOTH",
"316 361 OFFCURVE",
"313 385 OFFCURVE",
"303 400 CURVE SMOOTH",
"299 406 OFFCURVE",
"295 411 OFFCURVE",
"290 411 CURVE SMOOTH",
"289 411 OFFCURVE",
"287 411 OFFCURVE",
"286 410 CURVE",
"276 406 OFFCURVE",
"288 393 OFFCURVE",
"291 389 CURVE SMOOTH",
"304 368 OFFCURVE",
"305 335 OFFCURVE",
"304 311 CURVE SMOOTH",
"303 292 OFFCURVE",
"298 259 OFFCURVE",
"298 259 CURVE",
"200 261 OFFCURVE",
"17 239 OFFCURVE",
"17 93 CURVE SMOOTH",
"17 69 OFFCURVE",
"31 -6 OFFCURVE",
"82 -6 CURVE SMOOTH"
);
},
{
closed = 1;
nodes = (
"169 57 OFFCURVE",
"150 66 OFFCURVE",
"141 88 CURVE SMOOTH",
"136 99 OFFCURVE",
"134 110 OFFCURVE",
"134 121 CURVE SMOOTH",
"134 161 OFFCURVE",
"158 202 OFFCURVE",
"188 224 CURVE SMOOTH",
"210 240 OFFCURVE",
"241 251 OFFCURVE",
"276 251 CURVE SMOOTH",
"283 251 OFFCURVE",
"290 251 OFFCURVE",
"298 250 CURVE",
"296 237 OFFCURVE",
"281 128 OFFCURVE",
"239 80 CURVE SMOOTH",
"226 65 OFFCURVE",
"207 57 OFFCURVE",
"189 57 CURVE SMOOTH"
);
}
);
width = 535;
}
);
note = a;
unicode = 0061;
},
{
glyphname = ae;
lastChange = "2022-03-21 18:59:40 +0000";
layers = (
{
background = {
paths = (
{
closed = 1;
nodes = (
"741 269 OFFCURVE",
"746 283 OFFCURVE",
"725 286 CURVE SMOOTH",
"695 291 OFFCURVE",
"625 283 OFFCURVE",
"613 281 CURVE",
"620 320 OFFCURVE",
"644 362 OFFCURVE",
"661 384 CURVE SMOOTH",
"667 391 OFFCURVE",
"666 401 OFFCURVE",
"660 410 CURVE SMOOTH",
"653 421 OFFCURVE",
"645 431 OFFCURVE",
"632 442 CURVE SMOOTH",
"571 493 OFFCURVE",
"490 473 OFFCURVE",
"426 421 CURVE",
"396 454 OFFCURVE",
"342 470 OFFCURVE",
"285 467 CURVE SMOOTH",
"227 463 OFFCURVE",
"117 434 OFFCURVE",
"83 378 CURVE SMOOTH",
"77 368 OFFCURVE",
"74 327 OFFCURVE",
"70 298 CURVE SMOOTH",
"64 254 OFFCURVE",
"104 274 OFFCURVE",
"117 282 CURVE SMOOTH",
"138 295 OFFCURVE",
"150 296 OFFCURVE",
"167 313 CURVE SMOOTH",
"189 333 OFFCURVE",
"183 390 OFFCURVE",
"220 425 CURVE SMOOTH",
"236 439 OFFCURVE",
"260 453 OFFCURVE",
"285 453 CURVE SMOOTH",
"353 453 OFFCURVE",
"332 313 OFFCURVE",
"327 268 CURVE",
"325 259 OFFCURVE",
"315 256 OFFCURVE",
"309 259 CURVE",
"309 259 OFFCURVE",
"313 289 OFFCURVE",
"315 310 CURVE SMOOTH",
"318 343 OFFCURVE",
"316 380 OFFCURVE",
"303 400 CURVE SMOOTH",
"298 408 OFFCURVE",
"293 413 OFFCURVE",
"286 410 CURVE SMOOTH",
"276 406 OFFCURVE",
"288 393 OFFCURVE",
"291 389 CURVE SMOOTH",
"304 368 OFFCURVE",
"305 335 OFFCURVE",
"304 311 CURVE SMOOTH",
"303 292 OFFCURVE",
"298 259 OFFCURVE",
"298 259 CURVE",
"200 261 OFFCURVE",
"17 239 OFFCURVE",
"17 93 CURVE SMOOTH",
"17 69 OFFCURVE",
"31 -6 OFFCURVE",
"82 -6 CURVE SMOOTH",
"187 -6 LINE SMOOTH",
"234 -6 OFFCURVE",
"295 135 OFFCURVE",
"308 249 CURVE",
"313 247 OFFCURVE",
"322 247 OFFCURVE",
"323 239 CURVE",
"322 231 OFFCURVE",
"321 222 OFFCURVE",
"320 214 CURVE SMOOTH",
"315 170 OFFCURVE",
"301 76 OFFCURVE",
"288 28 CURVE SMOOTH",
"281 0 OFFCURVE",
"277 -1 OFFCURVE",
"305 0 CURVE SMOOTH",
"342 2 OFFCURVE",
"378 2 OFFCURVE",
"414 1 CURVE",
"448 -11 OFFCURVE",
"488 -12 OFFCURVE",
"516 0 CURVE",
"519 0 OFFCURVE",
"523 2 OFFCURVE",
"525 4 CURVE",
"554 17 OFFCURVE",
"572 55 OFFCURVE",
"597 71 CURVE SMOOTH",
"614 82 OFFCURVE",
"642 103 OFFCURVE",
"649 115 CURVE SMOOTH",
"651 120 OFFCURVE",
"649 129 OFFCURVE",
"642 121 CURVE SMOOTH",
"599 74 OFFCURVE",
"454 17 OFFCURVE",
"409 198 CURVE",
"461 227 OFFCURVE",
"523 251 OFFCURVE",
"598 264 CURVE",
"597 257 LINE SMOOTH",
"594 235 OFFCURVE",
"610 243 OFFCURVE",
"612 259 CURVE SMOOTH",
"612 262 OFFCURVE",
"612 264 OFFCURVE",
"612 266 CURVE",
"623 268 OFFCURVE",
"700 281 OFFCURVE",
"725 274 CURVE SMOOTH"
);
},
{
closed = 1;
nodes = (
"531 270 OFFCURVE",
"465 250 OFFCURVE",
"404 227 CURVE",
"398 280 OFFCURVE",
"406 323 OFFCURVE",
"421 355 CURVE",
"429 366 OFFCURVE",
"436 376 OFFCURVE",
"440 385 CURVE",
"499 457 OFFCURVE",
"606 428 OFFCURVE",
"600 280 CURVE"
);
},
{
closed = 1;
nodes = (
"296 237 OFFCURVE",
"281 128 OFFCURVE",
"239 80 CURVE SMOOTH",
"213 50 OFFCURVE",
"159 46 OFFCURVE",
"141 88 CURVE SMOOTH",
"121 134 OFFCURVE",
"149 196 OFFCURVE",
"188 224 CURVE SMOOTH",
"215 243 OFFCURVE",
"253 256 OFFCURVE",
"298 250 CURVE"
);
}
);
};
layerId = "404CF7D8-B1FB-4D32-849A-66F5CDD10145";
paths = (
{
closed = 1;
nodes = (
"486 -9 OFFCURVE",
"503 -6 OFFCURVE",
"516 0 CURVE",
"519 0 OFFCURVE",
"523 2 OFFCURVE",
"525 4 CURVE",
"554 17 OFFCURVE",
"572 55 OFFCURVE",
"597 71 CURVE SMOOTH",
"616 83 OFFCURVE",
"650 109 OFFCURVE",
"650 120 CURVE SMOOTH",
"650 122 OFFCURVE",
"649 124 OFFCURVE",
"647 124 CURVE SMOOTH",
"646 124 OFFCURVE",
"644 123 OFFCURVE",
"642 121 CURVE SMOOTH",
"621 99 OFFCURVE",
"578 74 OFFCURVE",
"533 74 CURVE SMOOTH",
"483 74 OFFCURVE",
"433 103 OFFCURVE",
"409 198 CURVE",
"461 227 OFFCURVE",
"523 251 OFFCURVE",
"598 264 CURVE",
"597 257 LINE SMOOTH",
"596 247 OFFCURVE",
"598 244 OFFCURVE",
"601 244 CURVE SMOOTH",
"605 244 OFFCURVE",
"611 250 OFFCURVE",
"612 259 CURVE SMOOTH",
"612 266 LINE",
"621 268 OFFCURVE",
"671 276 OFFCURVE",
"704 276 CURVE SMOOTH",
"712 276 OFFCURVE",
"720 275 OFFCURVE",
"725 274 CURVE SMOOTH",
"734 271 OFFCURVE",
"739 274 OFFCURVE",
"739 278 CURVE SMOOTH",
"739 281 OFFCURVE",
"735 285 OFFCURVE",
"725 286 CURVE SMOOTH",
"718 287 OFFCURVE",
"709 288 OFFCURVE",
"699 288 CURVE SMOOTH",
"666 288 OFFCURVE",
"622 283 OFFCURVE",
"613 281 CURVE",
"620 320 OFFCURVE",
"644 362 OFFCURVE",
"661 384 CURVE SMOOTH",
"664 387 OFFCURVE",
"665 391 OFFCURVE",
"665 395 CURVE SMOOTH",
"665 400 OFFCURVE",
"663 405 OFFCURVE",
"660 410 CURVE SMOOTH",
"653 421 OFFCURVE",
"645 431 OFFCURVE",
"632 442 CURVE SMOOTH",
"607 463 OFFCURVE",
"579 472 OFFCURVE",
"551 472 CURVE SMOOTH",
"508 472 OFFCURVE",
"464 452 OFFCURVE",
"426 421 CURVE",
"398 451 OFFCURVE",
"350 467 OFFCURVE",
"298 467 CURVE SMOOTH",
"246 467 OFFCURVE",
"120 439 OFFCURVE",
"83 378 CURVE SMOOTH",
"77 368 OFFCURVE",
"74 327 OFFCURVE",
"70 298 CURVE SMOOTH",
"67 277 OFFCURVE",
"75 270 OFFCURVE",
"85 270 CURVE SMOOTH",
"96 270 OFFCURVE",
"110 278 OFFCURVE",
"117 282 CURVE SMOOTH",
"138 295 OFFCURVE",
"150 296 OFFCURVE",
"167 313 CURVE SMOOTH",
"189 333 OFFCURVE",
"183 390 OFFCURVE",
"220 425 CURVE SMOOTH",
"236 439 OFFCURVE",
"260 453 OFFCURVE",
"285 453 CURVE SMOOTH",
"325 453 OFFCURVE",
"334 406 OFFCURVE",
"334 357 CURVE SMOOTH",
"334 322 OFFCURVE",
"329 287 OFFCURVE",
"327 268 CURVE SMOOTH",
"326 261 OFFCURVE",
"320 258 OFFCURVE",
"314 258 CURVE SMOOTH",
"312 258 OFFCURVE",
"311 258 OFFCURVE",
"309 259 CURVE",
"309 259 OFFCURVE",
"313 289 OFFCURVE",
"315 310 CURVE SMOOTH",
"316 319 OFFCURVE",
"316 327 OFFCURVE",
"316 336 CURVE SMOOTH",
"316 361 OFFCURVE",
"313 385 OFFCURVE",
"303 400 CURVE SMOOTH",
"299 406 OFFCURVE",
"295 411 OFFCURVE",
"290 411 CURVE SMOOTH",
"289 411 OFFCURVE",
"287 411 OFFCURVE",
"286 410 CURVE",
"276 406 OFFCURVE",
"288 393 OFFCURVE",
"291 389 CURVE SMOOTH",
"304 368 OFFCURVE",
"305 335 OFFCURVE",
"304 311 CURVE SMOOTH",
"303 292 OFFCURVE",
"298 259 OFFCURVE",
"298 259 CURVE",
"200 261 OFFCURVE",
"17 239 OFFCURVE",
"17 93 CURVE SMOOTH",
"17 69 OFFCURVE",
"31 -6 OFFCURVE",
"82 -6 CURVE SMOOTH",
"187 -6 LINE SMOOTH",
"234 -6 OFFCURVE",
"295 135 OFFCURVE",
"308 249 CURVE",
"313 247 OFFCURVE",
"322 247 OFFCURVE",
"323 239 CURVE",
"320 214 LINE SMOOTH",
"315 170 OFFCURVE",
"301 76 OFFCURVE",
"288 28 CURVE SMOOTH",
"285 17 OFFCURVE",
"283 10 OFFCURVE",
"283 6 CURVE SMOOTH",
"283 1 OFFCURVE",
"286 0 OFFCURVE",
"295 0 CURVE SMOOTH",
"305 0 LINE SMOOTH",
"327 1 OFFCURVE",
"348 2 OFFCURVE",
"369 2 CURVE SMOOTH",
"384 2 OFFCURVE",
"399 1 OFFCURVE",
"414 1 CURVE",
"432 -5 OFFCURVE",
"451 -9 OFFCURVE",
"469 -9 CURVE SMOOTH"
);
},
{
closed = 1;
nodes = (
"169 57 OFFCURVE",
"150 66 OFFCURVE",
"141 88 CURVE SMOOTH",
"136 99 OFFCURVE",
"134 110 OFFCURVE",
"134 121 CURVE SMOOTH",
"134 161 OFFCURVE",
"158 202 OFFCURVE",
"188 224 CURVE SMOOTH",
"210 240 OFFCURVE",
"241 251 OFFCURVE",
"276 251 CURVE SMOOTH",
"283 251 OFFCURVE",
"290 251 OFFCURVE",
"298 250 CURVE",
"296 237 OFFCURVE",
"281 128 OFFCURVE",
"239 80 CURVE SMOOTH",
"226 65 OFFCURVE",
"207 57 OFFCURVE",
"189 57 CURVE SMOOTH"
);
},
{
closed = 1;
nodes = (
"403 239 OFFCURVE",
"402 251 OFFCURVE",
"402 262 CURVE SMOOTH",
"402 299 OFFCURVE",
"409 330 OFFCURVE",
"421 355 CURVE",
"429 366 OFFCURVE",
"436 376 OFFCURVE",
"440 385 CURVE",
"460 410 OFFCURVE",
"487 423 OFFCURVE",
"512 423 CURVE SMOOTH",
"559 423 OFFCURVE",
"604 377 OFFCURVE",
"600 280 CURVE",
"531 270 OFFCURVE",
"465 250 OFFCURVE",
"404 227 CURVE"
);
}
);
width = 669;
}
);
note = ae;
unicode = 00E6;
},
{
glyphname = b;
lastChange = "2022-03-21 18:59:40 +0000";
layers = (
{
background = {
paths = (
{
closed = 1;
nodes = (
"182 465 OFFCURVE",
"195 207 OFFCURVE",
"170 22 CURVE",
"164 26 OFFCURVE",
"159 33 OFFCURVE",
"159 44 CURVE SMOOTH",
"163 149 OFFCURVE",
"192 362 OFFCURVE",
"213 501 CURVE SMOOTH",
"218 537 OFFCURVE",
"226 586 OFFCURVE",
"229 608 CURVE SMOOTH",
"231 619 OFFCURVE",
"235 632 OFFCURVE",
"221 631 CURVE SMOOTH",
"185 630 OFFCURVE",
"150 631 OFFCURVE",
"85 632 CURVE SMOOTH",
"78 632 OFFCURVE",
"35 633 OFFCURVE",
"24 634 CURVE SMOOTH",
"12 634 OFFCURVE",
"-6 616 OFFCURVE",
"19 616 CURVE SMOOTH",
"87 616 OFFCURVE",
"117 623 OFFCURVE",
"112 548 CURVE SMOOTH",
"106 457 OFFCURVE",
"94 274 OFFCURVE",
"71 140 CURVE SMOOTH",
"49 10 OFFCURVE",
"57 18 OFFCURVE",
"-27 18 CURVE SMOOTH",
"-35 18 OFFCURVE",
"-49 -2 OFFCURVE",
"-38 0 CURVE",
"33 -2 OFFCURVE",
"59 3 OFFCURVE",
"91 3 CURVE SMOOTH",
"159 3 OFFCURVE",
"234 -20 OFFCURVE",
"296 7 CURVE SMOOTH",
"469 81 OFFCURVE",
"491 465 OFFCURVE",
"312 465 CURVE SMOOTH"
);
},
{
closed = 1;
nodes = (
"337 235 OFFCURVE",
"327 134 OFFCURVE",
"320 110 CURVE SMOOTH",
"298 36 OFFCURVE",
"260 5 OFFCURVE",
"180 19 CURVE",
"187 97 OFFCURVE",
"197 284 OFFCURVE",
"235 370 CURVE SMOOTH",
"282 477 OFFCURVE",
"321 374 OFFCURVE",
"328 312 CURVE SMOOTH"
);
}
);
};
layerId = "404CF7D8-B1FB-4D32-849A-66F5CDD10145";
paths = (
{
closed = 1;
nodes = (
"248 -6 OFFCURVE",
"273 -3 OFFCURVE",
"296 7 CURVE SMOOTH",
"387 46 OFFCURVE",
"436 171 OFFCURVE",
"436 281 CURVE SMOOTH",
"436 379 OFFCURVE",
"397 465 OFFCURVE",
"312 465 CURVE SMOOTH",
"182 465 OFFCURVE",
"195 207 OFFCURVE",
"170 22 CURVE",
"164 26 OFFCURVE",
"159 33 OFFCURVE",
"159 44 CURVE SMOOTH",
"163 149 OFFCURVE",
"192 362 OFFCURVE",
"213 501 CURVE SMOOTH",
"218 537 OFFCURVE",
"226 586 OFFCURVE",
"229 608 CURVE SMOOTH",
"230 613 OFFCURVE",
"231 618 OFFCURVE",
"231 622 CURVE SMOOTH",
"231 627 OFFCURVE",
"229 631 OFFCURVE",
"222 631 CURVE",
"222 631 OFFCURVE",
"222 631 OFFCURVE",
"221 631 CURVE SMOOTH",
"189 631 LINE SMOOTH",
"162 631 OFFCURVE",
"131 631 OFFCURVE",
"85 632 CURVE SMOOTH",
"78 632 OFFCURVE",
"35 633 OFFCURVE",
"24 634 CURVE SMOOTH",
"16 634 OFFCURVE",
"6 627 OFFCURVE",
"6 622 CURVE SMOOTH",
"6 618 OFFCURVE",
"10 616 OFFCURVE",
"19 616 CURVE SMOOTH",
"87 616 OFFCURVE",
"117 623 OFFCURVE",
"112 548 CURVE SMOOTH",
"106 457 OFFCURVE",
"94 274 OFFCURVE",
"71 140 CURVE SMOOTH",
"49 10 OFFCURVE",
"57 18 OFFCURVE",
"-27 18 CURVE SMOOTH",
"-33 18 OFFCURVE",
"-42 8 OFFCURVE",
"-42 3 CURVE SMOOTH",
"-42 1 OFFCURVE",
"-41 0 OFFCURVE",
"-39 0 CURVE",
"-39 0 OFFCURVE",
"-39 0 OFFCURVE",
"-38 0 CURVE SMOOTH",
"-6 0 LINE SMOOTH",
"42 0 OFFCURVE",
"64 3 OFFCURVE",
"91 3 CURVE SMOOTH",
"134 3 OFFCURVE",
"179 -6 OFFCURVE",
"223 -6 CURVE SMOOTH"
);
},
{
closed = 1;
nodes = (
"204 16 OFFCURVE",
"192 17 OFFCURVE",
"180 19 CURVE",
"187 97 OFFCURVE",
"197 284 OFFCURVE",
"235 370 CURVE SMOOTH",
"250 404 OFFCURVE",
"264 416 OFFCURVE",
"276 416 CURVE SMOOTH",
"303 416 OFFCURVE",
"323 355 OFFCURVE",
"328 312 CURVE SMOOTH",
"331 290 OFFCURVE",
"332 266 OFFCURVE",
"332 243 CURVE SMOOTH",
"332 184 OFFCURVE",
"325 127 OFFCURVE",
"320 110 CURVE SMOOTH",
"301 48 OFFCURVE",
"271 16 OFFCURVE",
"214 16 CURVE SMOOTH"
);
}
);
width = 469;
}
);
note = b;
unicode = 0062;
},
{
glyphname = c;
lastChange = "2022-03-21 18:59:40 +0000";
layers = (
{
background = {
paths = (
{
closed = 1;
nodes = (
"388 402 OFFCURVE",
"356 430 OFFCURVE",
"344 442 CURVE SMOOTH",
"272 514 OFFCURVE",
"30 451 OFFCURVE",
"30 176 CURVE SMOOTH",
"30 77 OFFCURVE",
"76 -11 OFFCURVE",
"179 -11 CURVE SMOOTH",
"248 -11 OFFCURVE",
"248 35 OFFCURVE",
"294 64 CURVE SMOOTH",
"311 75 OFFCURVE",
"339 96 OFFCURVE",
"346 108 CURVE SMOOTH",
"349 113 OFFCURVE",
"346 122 OFFCURVE",
"339 114 CURVE SMOOTH",
"316 89 OFFCURVE",
"285 76 OFFCURVE",
"254 76 CURVE SMOOTH",
"153 76 OFFCURVE",
"116 165 OFFCURVE",
"116 259 CURVE SMOOTH",
"116 416 OFFCURVE",
"240 485 OFFCURVE",
"294 366 CURVE SMOOTH",
"301 350 OFFCURVE",
"303 322 OFFCURVE",
"302 305 CURVE SMOOTH",
"302 292 OFFCURVE",
"295 270 OFFCURVE",
"300 268 CURVE SMOOTH",
"310 264 OFFCURVE",
"310 280 OFFCURVE",
"314 292 CURVE SMOOTH",
"332 342 OFFCURVE",
"352 359 OFFCURVE",
"373 384 CURVE SMOOTH"
);
}
);
};
layerId = "404CF7D8-B1FB-4D32-849A-66F5CDD10145";
paths = (
{
closed = 1;
nodes = (
"248 -11 OFFCURVE",
"248 35 OFFCURVE",
"294 64 CURVE SMOOTH",
"313 76 OFFCURVE",
"347 102 OFFCURVE",
"347 112 CURVE SMOOTH",
"347 115 OFFCURVE",
"346 117 OFFCURVE",
"344 117 CURVE SMOOTH",
"343 117 OFFCURVE",
"341 116 OFFCURVE",
"339 114 CURVE SMOOTH",
"316 89 OFFCURVE",
"285 76 OFFCURVE",
"254 76 CURVE SMOOTH",
"153 76 OFFCURVE",
"116 165 OFFCURVE",
"116 259 CURVE SMOOTH",
"116 361 OFFCURVE",
"169 426 OFFCURVE",
"220 426 CURVE SMOOTH",
"248 426 OFFCURVE",
"275 408 OFFCURVE",
"294 366 CURVE SMOOTH",
"301 350 OFFCURVE",
"303 322 OFFCURVE",
"302 305 CURVE SMOOTH",
"302 292 OFFCURVE",
"295 270 OFFCURVE",
"300 268 CURVE SMOOTH",
"310 264 OFFCURVE",
"310 280 OFFCURVE",
"314 292 CURVE SMOOTH",
"332 342 OFFCURVE",
"352 359 OFFCURVE",
"373 384 CURVE SMOOTH",
"376 387 OFFCURVE",
"377 391 OFFCURVE",
"377 395 CURVE SMOOTH",
"377 412 OFFCURVE",
"354 432 OFFCURVE",
"344 442 CURVE SMOOTH",
"326 460 OFFCURVE",
"298 469 OFFCURVE",
"265 469 CURVE SMOOTH",
"166 469 OFFCURVE",
"30 383 OFFCURVE",
"30 176 CURVE SMOOTH",
"30 77 OFFCURVE",
"76 -11 OFFCURVE",
"179 -11 CURVE SMOOTH"
);
}
);
width = 353;
}
);
note = c;
unicode = 0063;
},
{
glyphname = d;
lastChange = "2022-03-21 18:59:40 +0000";
layers = (
{
background = {
paths = (
{
closed = 1;
nodes = (
"488 16 OFFCURVE",
"442 18 OFFCURVE",
"420 22 CURVE SMOOTH",
"407 24 OFFCURVE",
"386 37 OFFCURVE",
"388 65 CURVE SMOOTH",
"389 92 OFFCURVE",
"394 116 OFFCURVE",
"407 210 CURVE SMOOTH",
"419 298 OFFCURVE",
"437 408 OFFCURVE",
"437 408 CURVE",
"468 419 OFFCURVE",
"483 450 OFFCURVE",
"474 455 CURVE",
"445 455 LINE",
"453 500 OFFCURVE",
"461 544 OFFCURVE",
"468 589 CURVE SMOOTH",
"474 630 OFFCURVE",
"475 631 OFFCURVE",
"457 631 CURVE SMOOTH",
"397 629 OFFCURVE",
"343 627 OFFCURVE",
"257 629 CURVE SMOOTH",
"245 629 OFFCURVE",
"246 611 OFFCURVE",
"257 613 CURVE SMOOTH",
"285 617 OFFCURVE",
"305 618 OFFCURVE",
"319 618 CURVE SMOOTH",
"363 616 OFFCURVE",
"356 585 OFFCURVE",
"355 552 CURVE SMOOTH",
"353 517 OFFCURVE",
"348 472 OFFCURVE",
"347 458 CURVE",
"347 458 LINE",
"325 459 OFFCURVE",
"306 458 OFFCURVE",
"292 458 CURVE SMOOTH",
"178 461 OFFCURVE",
"80 382 OFFCURVE",
"42 276 CURVE SMOOTH",
"5 175 OFFCURVE",
"7 0 OFFCURVE",
"142 -8 CURVE SMOOTH",
"226 -13 OFFCURVE",
"259 81 OFFCURVE",
"279 170 CURVE SMOOTH",
"297 253 OFFCURVE",
"312 340 OFFCURVE",
"324 425 CURVE",
"327 424 OFFCURVE",
"333 422 OFFCURVE",
"342 420 CURVE",
"325 297 OFFCURVE",
"300 138 OFFCURVE",
"279 45 CURVE SMOOTH",
"271 9 OFFCURVE",
"258 -7 OFFCURVE",
"309 0 CURVE SMOOTH",
"324 2 OFFCURVE",
"347 3 OFFCURVE",
"365 3 CURVE SMOOTH",
"408 3 OFFCURVE",
"450 0 OFFCURVE",
"494 0 CURVE SMOOTH",
"505 0 OFFCURVE",
"518 18 OFFCURVE",
"504 17 CURVE SMOOTH"
);
},
{
closed = 1;
nodes = (
"310 400 OFFCURVE",
"271 52 OFFCURVE",
"190 52 CURVE SMOOTH",
"112 52 OFFCURVE",
"102 231 OFFCURVE",
"145 344 CURVE SMOOTH",
"175 423 OFFCURVE",
"240 444 OFFCURVE",
"314 426 CURVE"
);
}
);
};
layerId = "404CF7D8-B1FB-4D32-849A-66F5CDD10145";
paths = (
{
closed = 1;
nodes = (
"228 -8 OFFCURVE",
"260 83 OFFCURVE",
"279 170 CURVE SMOOTH",
"297 253 OFFCURVE",
"312 340 OFFCURVE",
"324 425 CURVE",
"327 424 OFFCURVE",
"333 422 OFFCURVE",
"342 420 CURVE",
"325 297 OFFCURVE",
"300 138 OFFCURVE",
"279 45 CURVE SMOOTH",
"276 30 OFFCURVE",
"271 19 OFFCURVE",
"271 11 CURVE SMOOTH",
"271 2 OFFCURVE",
"276 -2 OFFCURVE",
"290 -2 CURVE SMOOTH",
"295 -2 OFFCURVE",
"301 -1 OFFCURVE",
"309 0 CURVE SMOOTH",
"324 2 OFFCURVE",
"347 3 OFFCURVE",
"365 3 CURVE SMOOTH",
"408 3 OFFCURVE",
"450 0 OFFCURVE",
"494 0 CURVE SMOOTH",
"502 0 OFFCURVE",
"510 8 OFFCURVE",
"510 13 CURVE SMOOTH",
"510 16 OFFCURVE",
"509 17 OFFCURVE",
"505 17 CURVE SMOOTH",
"504 17 LINE SMOOTH",
"488 16 OFFCURVE",
"442 18 OFFCURVE",
"420 22 CURVE SMOOTH",
"408 24 OFFCURVE",
"388 36 OFFCURVE",
"388 61 CURVE SMOOTH",
"388 90 OFFCURVE",
"393 112 OFFCURVE",
"407 210 CURVE SMOOTH",
"419 298 OFFCURVE",
"437 408 OFFCURVE",
"437 408 CURVE",
"468 419 OFFCURVE",
"483 450 OFFCURVE",
"474 455 CURVE",
"445 455 LINE",
"453 500 OFFCURVE",
"461 544 OFFCURVE",
"468 589 CURVE SMOOTH",
"470 605 OFFCURVE",
"472 615 OFFCURVE",
"472 621 CURVE SMOOTH",
"472 631 OFFCURVE",
"468 631 OFFCURVE",
"457 631 CURVE SMOOTH",
"415 630 OFFCURVE",
"375 628 OFFCURVE",
"325 628 CURVE SMOOTH",
"305 628 OFFCURVE",
"282 628 OFFCURVE",
"257 629 CURVE SMOOTH",
"251 629 OFFCURVE",
"248 625 OFFCURVE",
"248 620 CURVE SMOOTH",
"248 617 OFFCURVE",
"251 613 OFFCURVE",
"255 613 CURVE SMOOTH",
"257 613 LINE SMOOTH",
"285 617 OFFCURVE",
"305 618 OFFCURVE",
"319 618 CURVE SMOOTH",
"351 617 OFFCURVE",
"356 600 OFFCURVE",
"356 578 CURVE SMOOTH",
"356 545 OFFCURVE",
"348 476 OFFCURVE",
"347 458 CURVE",
"322 459 OFFCURVE",
"300 458 OFFCURVE",
"286 458 CURVE SMOOTH",
"174 458 OFFCURVE",
"79 380 OFFCURVE",
"42 276 CURVE SMOOTH",
"29 242 OFFCURVE",
"21 199 OFFCURVE",
"21 157 CURVE SMOOTH",
"21 73 OFFCURVE",
"54 -8 OFFCURVE",
"148 -8 CURVE SMOOTH"
);
},
{
closed = 1;
nodes = (
"142 52 OFFCURVE",
"120 120 OFFCURVE",
"120 198 CURVE SMOOTH",
"120 247 OFFCURVE",
"128 301 OFFCURVE",
"145 344 CURVE SMOOTH",
"168 406 OFFCURVE",
"213 432 OFFCURVE",
"267 432 CURVE SMOOTH",
"282 432 OFFCURVE",
"298 430 OFFCURVE",
"314 426 CURVE",
"310 400 OFFCURVE",
"271 52 OFFCURVE",
"190 52 CURVE SMOOTH"
);
}
);
width = 508;
}
);
note = d;
unicode = 0064;
},
{
glyphname = e;
lastChange = "2022-03-21 18:59:40 +0000";
layers = (
{
background = {
paths = (
{
closed = 1;
nodes = (
"430 270 OFFCURVE",
"436 283 OFFCURVE",
"414 286 CURVE SMOOTH",
"385 291 OFFCURVE",
"314 283 OFFCURVE",
"302 281 CURVE",
"310 320 OFFCURVE",
"333 362 OFFCURVE",
"350 384 CURVE",
"357 391 OFFCURVE",
"356 401 OFFCURVE",
"350 410 CURVE SMOOTH",
"342 421 OFFCURVE",
"334 431 OFFCURVE",
"321 442 CURVE SMOOTH",
"228 520 OFFCURVE",
"86 431 OFFCURVE",
"34 316 CURVE SMOOTH",
"-3 233 OFFCURVE",
"-1 113 OFFCURVE",
"48 42 CURVE SMOOTH",
"85 -10 OFFCURVE",
"164 -17 OFFCURVE",
"210 2 CURVE SMOOTH",
"240 14 OFFCURVE",
"260 54 OFFCURVE",
"287 71 CURVE SMOOTH",
"303 82 OFFCURVE",
"331 103 OFFCURVE",
"338 115 CURVE SMOOTH",
"341 120 OFFCURVE",
"338 129 OFFCURVE",
"331 121 CURVE SMOOTH",
"288 74 OFFCURVE",
"144 17 OFFCURVE",
"98 198 CURVE",
"151 227 OFFCURVE",
"212 251 OFFCURVE",
"287 264 CURVE",
"287 261 OFFCURVE",
"287 259 OFFCURVE",
"286 257 CURVE",
"284 235 OFFCURVE",
"300 243 OFFCURVE",
"301 259 CURVE",
"302 262 OFFCURVE",
"302 264 OFFCURVE",
"302 266 CURVE",
"313 268 OFFCURVE",
"389 282 OFFCURVE",
"415 274 CURVE SMOOTH"
);
},
{
closed = 1;
nodes = (
"220 270 OFFCURVE",
"154 250 OFFCURVE",
"94 227 CURVE",
"67 458 OFFCURVE",
"298 496 OFFCURVE",
"290 280 CURVE"
);
}
);
};
layerId = "404CF7D8-B1FB-4D32-849A-66F5CDD10145";
paths = (
{
closed = 1;
nodes = (
"176 -8 OFFCURVE",
"195 -4 OFFCURVE",
"210 2 CURVE SMOOTH",
"240 14 OFFCURVE",
"260 54 OFFCURVE",
"287 71 CURVE SMOOTH",
"305 83 OFFCURVE",
"339 109 OFFCURVE",
"339 119 CURVE SMOOTH",
"339 122 OFFCURVE",
"338 124 OFFCURVE",
"336 124 CURVE SMOOTH",
"335 124 OFFCURVE",
"333 123 OFFCURVE",
"331 121 CURVE SMOOTH",
"310 99 OFFCURVE",
"267 74 OFFCURVE",
"222 74 CURVE SMOOTH",
"173 74 OFFCURVE",
"122 103 OFFCURVE",
"98 198 CURVE",
"151 227 OFFCURVE",
"212 251 OFFCURVE",
"287 264 CURVE",
"287 261 OFFCURVE",
"287 259 OFFCURVE",
"286 257 CURVE",
"285 247 OFFCURVE",
"288 244 OFFCURVE",
"291 244 CURVE SMOOTH",
"295 244 OFFCURVE",
"300 250 OFFCURVE",
"301 259 CURVE",
"302 262 OFFCURVE",
"302 264 OFFCURVE",
"302 266 CURVE",
"311 268 OFFCURVE",
"359 276 OFFCURVE",
"392 276 CURVE SMOOTH",
"401 276 OFFCURVE",
"409 276 OFFCURVE",
"415 274 CURVE SMOOTH",
"423 272 OFFCURVE",
"428 275 OFFCURVE",
"428 278 CURVE SMOOTH",
"428 281 OFFCURVE",
"424 285 OFFCURVE",
"414 286 CURVE SMOOTH",
"407 287 OFFCURVE",
"398 288 OFFCURVE",
"388 288 CURVE SMOOTH",
"355 288 OFFCURVE",
"311 283 OFFCURVE",
"302 281 CURVE",
"310 320 OFFCURVE",
"333 362 OFFCURVE",
"350 384 CURVE SMOOTH",
"353 387 OFFCURVE",
"355 391 OFFCURVE",
"355 396 CURVE SMOOTH",
"355 400 OFFCURVE",
"353 405 OFFCURVE",
"350 410 CURVE SMOOTH",
"342 421 OFFCURVE",
"334 431 OFFCURVE",
"321 442 CURVE SMOOTH",
"297 462 OFFCURVE",
"269 471 OFFCURVE",
"240 471 CURVE SMOOTH",
"160 471 OFFCURVE",
"72 401 OFFCURVE",
"34 316 CURVE SMOOTH",
"17 278 OFFCURVE",
"8 233 OFFCURVE",
"8 188 CURVE SMOOTH",
"8 134 OFFCURVE",
"21 81 OFFCURVE",
"48 42 CURVE SMOOTH",
"73 7 OFFCURVE",
"117 -8 OFFCURVE",
"157 -8 CURVE SMOOTH"
);
},
{
closed = 1;
nodes = (
"92 240 OFFCURVE",
"92 252 OFFCURVE",
"92 264 CURVE SMOOTH",
"92 367 OFFCURVE",
"148 423 OFFCURVE",
"201 423 CURVE SMOOTH",
"249 423 OFFCURVE",
"294 377 OFFCURVE",
"290 280 CURVE",
"220 270 OFFCURVE",
"154 250 OFFCURVE",
"94 227 CURVE"
);
}
);
width = 353;
}
);
note = e;
unicode = 0065;
},
{
glyphname = schwa;
lastChange = "2022-03-21 18:59:40 +0000";
layers = (
{
background = {
paths = (
{
closed = 1;
nodes = (
"31 196 OFFCURVE",
"30 181 OFFCURVE",
"42 183 CURVE",
"34 144 OFFCURVE",
"11 102 OFFCURVE",
"-6 80 CURVE",
"-13 73 OFFCURVE",
"-12 63 OFFCURVE",
"-6 54 CURVE SMOOTH",
"2 43 OFFCURVE",
"10 33 OFFCURVE",
"23 22 CURVE SMOOTH",
"116 -56 OFFCURVE",
"258 33 OFFCURVE",
"310 148 CURVE SMOOTH",
"347 231 OFFCURVE",
"345 351 OFFCURVE",
"296 422 CURVE SMOOTH",
"259 474 OFFCURVE",
"180 481 OFFCURVE",
"134 462 CURVE SMOOTH",
"104 450 OFFCURVE",
"84 410 OFFCURVE",
"57 393 CURVE SMOOTH",
"41 382 OFFCURVE",
"13 361 OFFCURVE",
"6 349 CURVE SMOOTH",
"3 344 OFFCURVE",
"6 335 OFFCURVE",
"13 343 CURVE SMOOTH",
"56 390 OFFCURVE",
"200 447 OFFCURVE",
"246 266 CURVE",
"193 237 OFFCURVE",
"132 213 OFFCURVE",
"57 200 CURVE",
"57 203 OFFCURVE",
"57 205 OFFCURVE",
"58 207 CURVE",
"60 229 OFFCURVE",
"44 221 OFFCURVE",
"43 205 CURVE",
"42 202 OFFCURVE",
"42 200 OFFCURVE",
"42 198 CURVE"
);
},
{
closed = 1;
nodes = (
"124 194 OFFCURVE",
"190 214 OFFCURVE",
"250 237 CURVE",
"277 6 OFFCURVE",
"46 -32 OFFCURVE",
"54 184 CURVE"
);
}
);
};
layerId = "404CF7D8-B1FB-4D32-849A-66F5CDD10145";
paths = (
{
closed = 1;
nodes = (
"184 -7 OFFCURVE",
"272 63 OFFCURVE",
"310 148 CURVE SMOOTH",
"327 186 OFFCURVE",
"336 231 OFFCURVE",
"336 276 CURVE SMOOTH",
"336 330 OFFCURVE",
"323 383 OFFCURVE",
"296 422 CURVE SMOOTH",
"271 457 OFFCURVE",
"227 472 OFFCURVE",
"187 472 CURVE SMOOTH",
"168 472 OFFCURVE",
"149 468 OFFCURVE",
"134 462 CURVE SMOOTH",
"104 450 OFFCURVE",
"84 410 OFFCURVE",
"57 393 CURVE SMOOTH",
"39 381 OFFCURVE",
"5 355 OFFCURVE",
"5 345 CURVE SMOOTH",
"5 342 OFFCURVE",
"6 340 OFFCURVE",
"8 340 CURVE SMOOTH",
"9 340 OFFCURVE",
"11 341 OFFCURVE",
"13 343 CURVE SMOOTH",
"34 365 OFFCURVE",
"77 390 OFFCURVE",
"122 390 CURVE SMOOTH",
"171 390 OFFCURVE",
"222 361 OFFCURVE",
"246 266 CURVE",
"193 237 OFFCURVE",
"132 213 OFFCURVE",
"57 200 CURVE",
"57 203 OFFCURVE",
"57 205 OFFCURVE",
"58 207 CURVE",
"59 217 OFFCURVE",
"56 220 OFFCURVE",
"53 220 CURVE SMOOTH",
"49 220 OFFCURVE",
"44 214 OFFCURVE",
"43 205 CURVE",
"42 202 OFFCURVE",
"42 200 OFFCURVE",
"42 198 CURVE",
"37 197 OFFCURVE",
"33 192 OFFCURVE",
"33 189 CURVE SMOOTH",
"33 186 OFFCURVE",
"35 183 OFFCURVE",
"40 183 CURVE SMOOTH",
"42 183 LINE",
"34 144 OFFCURVE",
"11 102 OFFCURVE",
"-6 80 CURVE SMOOTH",
"-9 77 OFFCURVE",
"-11 73 OFFCURVE",
"-11 68 CURVE SMOOTH",
"-11 64 OFFCURVE",
"-9 59 OFFCURVE",
"-6 54 CURVE SMOOTH",
"2 43 OFFCURVE",
"10 33 OFFCURVE",
"23 22 CURVE SMOOTH",
"47 2 OFFCURVE",
"75 -7 OFFCURVE",
"104 -7 CURVE SMOOTH"
);
},
{
closed = 1;
nodes = (
"95 41 OFFCURVE",
"50 87 OFFCURVE",
"54 184 CURVE",
"124 194 OFFCURVE",
"190 214 OFFCURVE",
"250 237 CURVE",
"252 224 OFFCURVE",
"252 212 OFFCURVE",
"252 200 CURVE SMOOTH",
"252 97 OFFCURVE",
"196 41 OFFCURVE",
"143 41 CURVE SMOOTH"
);
}
);
width = 323;
}
);
unicode = 0259;
},
{
glyphname = f;
lastChange = "2022-03-21 18:59:40 +0000";
layers = (
{
background = {
paths = (
{
closed = 1;
nodes = (
"552 644 OFFCURVE",
"510 689 OFFCURVE",
"438 689 CURVE SMOOTH",
"400 689 OFFCURVE",
"390 677 OFFCURVE",
"360 653 CURVE SMOOTH",
"352 647 OFFCURVE",
"324 626 OFFCURVE",
"318 615 CURVE SMOOTH",
"296 573 OFFCURVE",
"283 513 OFFCURVE",
"273 451 CURVE",
"245 451 LINE",
"252 501 LINE SMOOTH",
"257 537 OFFCURVE",
"278 617 OFFCURVE",
"290 626 CURVE SMOOTH",
"303 635 OFFCURVE",
"299 642 OFFCURVE",
"285 638 CURVE",
"276 634 OFFCURVE",
"261 631 OFFCURVE",
"255 631 CURVE SMOOTH",
"182 628 OFFCURVE",
"154 577 OFFCURVE",
"149 514 CURVE SMOOTH",
"147 495 OFFCURVE",
"146 474 OFFCURVE",
"144 451 CURVE",
"89 451 LINE SMOOTH",
"80 451 OFFCURVE",
"61 419 OFFCURVE",
"69 419 CURVE SMOOTH",
"141 419 LINE",
"133 331 OFFCURVE",
"123 227 OFFCURVE",
"111 142 CURVE SMOOTH",
"90 1 OFFCURVE",
"96 18 OFFCURVE",
"12 18 CURVE SMOOTH",
"4 18 OFFCURVE",
"-10 -2 OFFCURVE",
"1 0 CURVE",
"72 -2 OFFCURVE",
"98 2 OFFCURVE",
"130 3 CURVE SMOOTH",
"201 6 OFFCURVE",
"266 0 OFFCURVE",
"336 0 CURVE SMOOTH",
"348 0 OFFCURVE",
"360 18 OFFCURVE",
"346 17 CURVE SMOOTH",
"330 16 OFFCURVE",
"283 17 OFFCURVE",
"261 20 CURVE SMOOTH",
"242 23 OFFCURVE",
"233 29 OFFCURVE",
"235 47 CURVE SMOOTH",
"251 171 OFFCURVE",
"277 389 OFFCURVE",
"282 419 CURVE",
"365 419 LINE SMOOTH",
"375 419 OFFCURVE",
"399 451 OFFCURVE",
"385 451 CURVE SMOOTH",
"288 451 LINE",
"303 535 OFFCURVE",
"343 631 OFFCURVE",
"384 636 CURVE SMOOTH",
"420 640 OFFCURVE",
"455 612 OFFCURVE",
"454 532 CURVE SMOOTH",
"454 520 OFFCURVE",
"448 498 OFFCURVE",
"452 496 CURVE SMOOTH",
"462 491 OFFCURVE",
"463 508 OFFCURVE",
"467 519 CURVE SMOOTH",
"484 570 OFFCURVE",
"506 586 OFFCURVE",
"526 611 CURVE SMOOTH"
);
},
{
closed = 1;
nodes = (
"269 419 LINE",
"263 375 OFFCURVE",
"259 332 OFFCURVE",
"254 294 CURVE SMOOTH",
"244 213 OFFCURVE",
"230 99 OFFCURVE",
"222 44 CURVE SMOOTH",
"219 21 OFFCURVE",
"197 19 OFFCURVE",
"198 44 CURVE SMOOTH",
"199 93 OFFCURVE",
"215 202 OFFCURVE",
"226 296 CURVE SMOOTH",
"234 364 OFFCURVE",
"240 419 OFFCURVE",
"240 419 CURVE"
);
}
);
};
layerId = "404CF7D8-B1FB-4D32-849A-66F5CDD10145";
paths = (
{
closed = 1;
nodes = (
"82 -1 OFFCURVE",
"104 2 OFFCURVE",
"130 3 CURVE SMOOTH",
"144 4 OFFCURVE",
"158 4 OFFCURVE",
"172 4 CURVE SMOOTH",
"227 4 OFFCURVE",
"280 0 OFFCURVE",
"336 0 CURVE SMOOTH",
"344 0 OFFCURVE",
"352 8 OFFCURVE",
"352 13 CURVE SMOOTH",
"352 15 OFFCURVE",
"351 17 OFFCURVE",
"347 17 CURVE SMOOTH",
"346 17 LINE SMOOTH",
"330 16 OFFCURVE",
"283 17 OFFCURVE",
"261 20 CURVE SMOOTH",
"242 23 OFFCURVE",
"233 29 OFFCURVE",
"235 47 CURVE SMOOTH",
"251 171 OFFCURVE",
"277 389 OFFCURVE",
"282 419 CURVE",
"365 419 LINE SMOOTH",
"375 419 OFFCURVE",
"399 451 OFFCURVE",
"385 451 CURVE SMOOTH",
"288 451 LINE",
"303 535 OFFCURVE",
"343 631 OFFCURVE",
"384 636 CURVE SMOOTH",
"419 640 OFFCURVE",
"454 613 OFFCURVE",
"454 535 CURVE SMOOTH",
"454 525 OFFCURVE",
"448 498 OFFCURVE",
"452 496 CURVE SMOOTH",
"462 491 OFFCURVE",
"463 508 OFFCURVE",
"467 519 CURVE SMOOTH",
"484 570 OFFCURVE",
"506 586 OFFCURVE",
"526 611 CURVE SMOOTH",
"531 618 OFFCURVE",
"534 625 OFFCURVE",
"534 632 CURVE SMOOTH",
"534 660 OFFCURVE",
"495 689 OFFCURVE",
"438 689 CURVE SMOOTH",
"400 689 OFFCURVE",
"390 677 OFFCURVE",
"360 653 CURVE SMOOTH",
"352 647 OFFCURVE",
"324 626 OFFCURVE",
"318 615 CURVE SMOOTH",
"296 573 OFFCURVE",
"283 513 OFFCURVE",
"273 451 CURVE",
"245 451 LINE",
"252 501 LINE SMOOTH",
"257 537 OFFCURVE",
"278 617 OFFCURVE",
"290 626 CURVE SMOOTH",
"295 630 OFFCURVE",
"298 633 OFFCURVE",
"298 636 CURVE SMOOTH",
"298 638 OFFCURVE",
"296 639 OFFCURVE",
"292 639 CURVE SMOOTH",
"290 639 OFFCURVE",
"288 639 OFFCURVE",
"285 638 CURVE SMOOTH",
"276 634 OFFCURVE",
"261 631 OFFCURVE",
"255 631 CURVE SMOOTH",
"182 628 OFFCURVE",
"154 577 OFFCURVE",
"149 514 CURVE SMOOTH",
"147 495 OFFCURVE",
"146 474 OFFCURVE",
"144 451 CURVE",
"89 451 LINE SMOOTH",
"80 451 OFFCURVE",
"61 419 OFFCURVE",
"69 419 CURVE SMOOTH",
"141 419 LINE",
"133 331 OFFCURVE",
"123 227 OFFCURVE",
"111 142 CURVE SMOOTH",
"94 28 OFFCURVE",
"95 17 OFFCURVE",
"52 17 CURVE SMOOTH",
"41 17 OFFCURVE",
"28 18 OFFCURVE",
"12 18 CURVE SMOOTH",
"6 18 OFFCURVE",
"-3 8 OFFCURVE",
"-3 3 CURVE SMOOTH",
"-3 1 OFFCURVE",
"-2 0 OFFCURVE",
"0 0 CURVE SMOOTH",
"1 0 LINE SMOOTH",
"15 0 OFFCURVE",
"27 -1 OFFCURVE",
"38 -1 CURVE SMOOTH"
);
},
{
closed = 1;
nodes = (
"203 26 OFFCURVE",
"198 31 OFFCURVE",
"198 42 CURVE SMOOTH",
"198 44 LINE SMOOTH",
"199 93 OFFCURVE",
"215 202 OFFCURVE",
"226 296 CURVE SMOOTH",
"240 419 LINE",
"269 419 LINE",
"263 375 OFFCURVE",
"259 332 OFFCURVE",
"254 294 CURVE SMOOTH",
"244 213 OFFCURVE",
"230 99 OFFCURVE",
"222 44 CURVE SMOOTH",
"220 32 OFFCURVE",
"214 26 OFFCURVE",
"208 26 CURVE SMOOTH"
);
}
);
width = 359;
}
);
note = f;
unicode = 0066;
},
{
glyphname = g;
lastChange = "2022-03-21 20:02:27 +0000";
layers = (
{
background = {
paths = (
{
closed = 1;
nodes = (
"479 457 OFFCURVE",
"380 453 OFFCURVE",
"292 458 CURVE SMOOTH",
"178 465 OFFCURVE",
"81 382 OFFCURVE",
"42 276 CURVE SMOOTH",
"6 175 OFFCURVE",
"7 0 OFFCURVE",
"142 -8 CURVE SMOOTH",
"226 -13 OFFCURVE",
"260 81 OFFCURVE",
"279 170 CURVE SMOOTH",
"298 253 OFFCURVE",
"312 340 OFFCURVE",
"324 425 CURVE",
"327 424 OFFCURVE",
"334 422 OFFCURVE",
"342 420 CURVE",
"341 415 OFFCURVE",
"341 410 OFFCURVE",
"340 403 CURVE SMOOTH",
"330 259 OFFCURVE",
"310 108 OFFCURVE",
"284 -35 CURVE SMOOTH",
"280 -60 OFFCURVE",
"272 -114 OFFCURVE",
"260 -144 CURVE SMOOTH",
"240 -200 OFFCURVE",
"188 -221 OFFCURVE",
"144 -169 CURVE SMOOTH",
"134 -157 OFFCURVE",
"127 -140 OFFCURVE",
"127 -121 CURVE SMOOTH",
"126 -110 OFFCURVE",
"133 -98 OFFCURVE",
"127 -96 CURVE SMOOTH",
"118 -93 OFFCURVE",
"110 -117 OFFCURVE",
"105 -126 CURVE SMOOTH",
"94 -148 OFFCURVE",
"87 -155 OFFCURVE",
"70 -178 CURVE SMOOTH",
"58 -195 OFFCURVE",
"86 -217 OFFCURVE",
"97 -225 CURVE SMOOTH",
"109 -234 OFFCURVE",
"131 -238 OFFCURVE",
"156 -238 CURVE SMOOTH",
"211 -238 OFFCURVE",
"253 -220 OFFCURVE",
"289 -195 CURVE SMOOTH",
"365 -144 OFFCURVE",
"386 -69 OFFCURVE",
"394 17 CURVE SMOOTH",
"404 111 OFFCURVE",
"422 249 OFFCURVE",
"438 362 CURVE SMOOTH",
"447 425 OFFCURVE",
"467 440 OFFCURVE",
"558 440 CURVE SMOOTH",
"569 440 OFFCURVE",
"581 457 OFFCURVE",
"569 457 CURVE SMOOTH"
);
},
{
closed = 1;
nodes = (
"310 400 OFFCURVE",
"271 52 OFFCURVE",
"190 52 CURVE SMOOTH",
"112 52 OFFCURVE",
"102 231 OFFCURVE",
"145 344 CURVE SMOOTH",
"175 423 OFFCURVE",
"240 444 OFFCURVE",
"314 426 CURVE"
);
}
);
};
layerId = "404CF7D8-B1FB-4D32-849A-66F5CDD10145";
paths = (
{
closed = 1;
nodes = (
"211 -228 OFFCURVE",
"253 -210 OFFCURVE",
"289 -185 CURVE SMOOTH",
"365 -134 OFFCURVE",
"386 -65 OFFCURVE",
"394 17 CURVE SMOOTH",
"404 111 OFFCURVE",
"422 249 OFFCURVE",
"438 362 CURVE SMOOTH",
"447 425 OFFCURVE",
"467 440 OFFCURVE",
"558 440 CURVE SMOOTH",
"566 440 OFFCURVE",
"574 448 OFFCURVE",
"574 453 CURVE SMOOTH",
"574 456 OFFCURVE",
"573 457 OFFCURVE",
"569 457 CURVE SMOOTH",
"514 457 OFFCURVE",
"455 455 OFFCURVE",
"397 455 CURVE SMOOTH",
"361 455 OFFCURVE",
"326 456 OFFCURVE",
"292 458 CURVE SMOOTH",
"178 465 OFFCURVE",
"81 382 OFFCURVE",
"42 276 CURVE SMOOTH",
"30 242 OFFCURVE",
"22 199 OFFCURVE",
"22 157 CURVE SMOOTH",
"22 73 OFFCURVE",
"54 -8 OFFCURVE",
"148 -8 CURVE SMOOTH",
"228 -8 OFFCURVE",
"260 83 OFFCURVE",
"279 170 CURVE SMOOTH",
"298 253 OFFCURVE",
"312 340 OFFCURVE",
"324 425 CURVE",
"342 420 LINE",
"341 415 OFFCURVE",
"341 410 OFFCURVE",
"340 403 CURVE SMOOTH",
"330 262 OFFCURVE",
"309 115 OFFCURVE",
"284 -25 CURVE SMOOTH",
"280 -50 OFFCURVE",
"272 -104 OFFCURVE",
"260 -134 CURVE SMOOTH",
"248 -168 OFFCURVE",
"224 -189 OFFCURVE",
"198 -189 CURVE SMOOTH",
"180 -189 OFFCURVE",
"161 -180 OFFCURVE",
"144 -159 CURVE SMOOTH",
"133 -146 OFFCURVE",
"127 -128 OFFCURVE",
"127 -108 CURVE SMOOTH",
"127 -101 OFFCURVE",
"129 -94 OFFCURVE",
"129 -91 CURVE SMOOTH",
"129 -88 OFFCURVE",
"128 -86 OFFCURVE",
"125 -86 CURVE SMOOTH",
"117 -86 OFFCURVE",
"110 -108 OFFCURVE",
"105 -116 CURVE SMOOTH",
"94 -138 OFFCURVE",
"87 -145 OFFCURVE",
"70 -168 CURVE SMOOTH",
"68 -171 OFFCURVE",
"67 -174 OFFCURVE",
"67 -177 CURVE SMOOTH",
"67 -192 OFFCURVE",
"88 -208 OFFCURVE",
"97 -215 CURVE SMOOTH",
"109 -224 OFFCURVE",
"131 -228 OFFCURVE",
"156 -228 CURVE SMOOTH"
);
},
{
closed = 1;
nodes = (
"142 52 OFFCURVE",
"120 120 OFFCURVE",
"120 198 CURVE SMOOTH",
"120 247 OFFCURVE",
"128 301 OFFCURVE",
"145 344 CURVE SMOOTH",
"168 406 OFFCURVE",
"213 432 OFFCURVE",
"267 432 CURVE SMOOTH",
"282 432 OFFCURVE",
"298 430 OFFCURVE",
"314 426 CURVE",
"310 400 OFFCURVE",
"271 52 OFFCURVE",
"190 52 CURVE SMOOTH"
);
}
);
width = 446;
}
);
note = g;
unicode = 0067;
},
{
glyphname = h;
lastChange = "2022-03-21 18:59:40 +0000";
layers = (
{
background = {
paths = (
{
closed = 1;
nodes = (
"538 16 OFFCURVE",
"492 18 OFFCURVE",
"470 22 CURVE SMOOTH",
"426 29 OFFCURVE",
"444 126 OFFCURVE",
"447 156 CURVE SMOOTH",
"454 226 OFFCURVE",
"468 299 OFFCURVE",
"478 366 CURVE SMOOTH",
"487 428 OFFCURVE",
"464 463 OFFCURVE",
"405 463 CURVE SMOOTH",
"302 463 OFFCURVE",
"246 361 OFFCURVE",
"227 247 CURVE SMOOTH",
"215 170 OFFCURVE",
"200 91 OFFCURVE",
"194 47 CURVE SMOOTH",
"192 36 OFFCURVE",
"192 21 OFFCURVE",
"184 21 CURVE",
"181 20 OFFCURVE",
"173 23 OFFCURVE",
"174 39 CURVE SMOOTH",
"177 144 OFFCURVE",
"207 362 OFFCURVE",
"228 501 CURVE SMOOTH",
"233 537 OFFCURVE",
"236 559 OFFCURVE",
"242 595 CURVE SMOOTH",
"246 615 OFFCURVE",
"250 632 OFFCURVE",
"236 631 CURVE SMOOTH",
"200 630 OFFCURVE",
"165 631 OFFCURVE",
"100 632 CURVE SMOOTH",
"93 632 OFFCURVE",
"50 633 OFFCURVE",
"39 634 CURVE SMOOTH",
"27 634 OFFCURVE",
"9 616 OFFCURVE",
"34 616 CURVE SMOOTH",
"102 616 OFFCURVE",
"132 623 OFFCURVE",
"127 548 CURVE SMOOTH",
"120 436 OFFCURVE",
"98 201 OFFCURVE",
"76 71 CURVE SMOOTH",
"72 46 OFFCURVE",
"67 24 OFFCURVE",
"39 19 CURVE SMOOTH",
"24 17 OFFCURVE",
"4 18 OFFCURVE",
"-24 18 CURVE SMOOTH",
"-32 18 OFFCURVE",
"-45 -2 OFFCURVE",
"-34 0 CURVE",
"37 -2 OFFCURVE",
"63 2 OFFCURVE",
"95 3 CURVE SMOOTH",
"147 5 OFFCURVE",
"197 2 OFFCURVE",
"249 0 CURVE SMOOTH",
"256 -1 OFFCURVE",
"269 19 OFFCURVE",
"256 17 CURVE",
"243 17 OFFCURVE",
"232 17 OFFCURVE",
"224 17 CURVE SMOOTH",
"209 18 OFFCURVE",
"202 17 OFFCURVE",
"206 40 CURVE SMOOTH",
"208 52 OFFCURVE",
"231 192 OFFCURVE",
"238 232 CURVE SMOOTH",
"249 298 OFFCURVE",
"280 381 OFFCURVE",
"331 381 CURVE SMOOTH",
"383 381 OFFCURVE",
"361 255 OFFCURVE",
"356 220 CURVE SMOOTH",
"346 155 OFFCURVE",
"329 69 OFFCURVE",
"317 29 CURVE SMOOTH",
"309 2 OFFCURVE",
"310 1 OFFCURVE",
"338 3 CURVE SMOOTH",
"409 7 OFFCURVE",
"474 0 OFFCURVE",
"544 0 CURVE SMOOTH",
"556 0 OFFCURVE",
"568 18 OFFCURVE",
"554 17 CURVE SMOOTH"
);
}
);
};
layerId = "404CF7D8-B1FB-4D32-849A-66F5CDD10145";
paths = (
{
closed = 1;
nodes = (
"47 -1 OFFCURVE",
"69 2 OFFCURVE",
"95 3 CURVE SMOOTH",
"107 3 OFFCURVE",
"119 4 OFFCURVE",
"131 4 CURVE SMOOTH",
"170 4 OFFCURVE",
"209 2 OFFCURVE",
"249 0 CURVE",
"254 -1 OFFCURVE",
"262 9 OFFCURVE",
"262 14 CURVE SMOOTH",
"262 16 OFFCURVE",
"261 17 OFFCURVE",
"258 17 CURVE SMOOTH",
"257 17 OFFCURVE",
"257 17 OFFCURVE",
"256 17 CURVE SMOOTH",
"224 17 LINE SMOOTH",
"212 18 OFFCURVE",
"205 17 OFFCURVE",
"205 29 CURVE SMOOTH",
"205 32 OFFCURVE",
"205 36 OFFCURVE",
"206 40 CURVE SMOOTH",
"208 52 OFFCURVE",
"231 192 OFFCURVE",
"238 232 CURVE SMOOTH",
"249 298 OFFCURVE",
"280 381 OFFCURVE",
"331 381 CURVE SMOOTH",
"358 381 OFFCURVE",
"365 348 OFFCURVE",
"365 311 CURVE SMOOTH",
"365 276 OFFCURVE",
"358 237 OFFCURVE",
"356 220 CURVE SMOOTH",
"346 155 OFFCURVE",
"329 69 OFFCURVE",
"317 29 CURVE SMOOTH",
"315 20 OFFCURVE",
"313 14 OFFCURVE",
"313 10 CURVE SMOOTH",
"313 4 OFFCURVE",
"316 2 OFFCURVE",
"325 2 CURVE SMOOTH",
"328 2 OFFCURVE",
"333 3 OFFCURVE",
"338 3 CURVE SMOOTH",
"354 4 OFFCURVE",
"369 4 OFFCURVE",
"385 4 CURVE SMOOTH",
"438 4 OFFCURVE",
"490 0 OFFCURVE",
"544 0 CURVE SMOOTH",
"552 0 OFFCURVE",
"560 8 OFFCURVE",
"560 13 CURVE SMOOTH",
"560 15 OFFCURVE",
"559 17 OFFCURVE",
"555 17 CURVE SMOOTH",
"554 17 LINE SMOOTH",
"538 16 OFFCURVE",
"492 18 OFFCURVE",
"470 22 CURVE SMOOTH",
"447 26 OFFCURVE",
"441 54 OFFCURVE",
"441 85 CURVE SMOOTH",
"441 113 OFFCURVE",
"446 142 OFFCURVE",
"447 156 CURVE SMOOTH",
"454 226 OFFCURVE",
"468 299 OFFCURVE",
"478 366 CURVE SMOOTH",
"479 375 OFFCURVE",
"480 383 OFFCURVE",
"480 390 CURVE SMOOTH",
"480 437 OFFCURVE",
"456 463 OFFCURVE",
"405 463 CURVE SMOOTH",
"302 463 OFFCURVE",
"246 361 OFFCURVE",
"227 247 CURVE SMOOTH",
"215 170 OFFCURVE",
"200 91 OFFCURVE",
"194 47 CURVE SMOOTH",
"192 36 OFFCURVE",
"192 21 OFFCURVE",
"184 21 CURVE",
"181 20 OFFCURVE",
"174 23 OFFCURVE",
"174 36 CURVE SMOOTH",
"174 39 LINE SMOOTH",
"177 144 OFFCURVE",
"207 362 OFFCURVE",
"228 501 CURVE SMOOTH",
"233 537 OFFCURVE",
"236 559 OFFCURVE",
"242 595 CURVE SMOOTH",
"244 604 OFFCURVE",
"246 613 OFFCURVE",
"246 620 CURVE SMOOTH",
"246 626 OFFCURVE",
"244 631 OFFCURVE",
"237 631 CURVE SMOOTH",
"204 631 LINE SMOOTH",
"177 631 OFFCURVE",
"146 631 OFFCURVE",
"100 632 CURVE SMOOTH",
"93 632 OFFCURVE",
"50 633 OFFCURVE",
"39 634 CURVE SMOOTH",
"31 634 OFFCURVE",
"21 627 OFFCURVE",
"21 622 CURVE SMOOTH",
"21 618 OFFCURVE",
"25 616 OFFCURVE",
"34 616 CURVE SMOOTH",
"102 616 OFFCURVE",
"132 623 OFFCURVE",
"127 548 CURVE SMOOTH",
"120 436 OFFCURVE",
"98 201 OFFCURVE",
"76 71 CURVE SMOOTH",
"72 46 OFFCURVE",
"67 24 OFFCURVE",
"39 19 CURVE SMOOTH",
"32 18 OFFCURVE",
"23 18 OFFCURVE",
"12 18 CURVE SMOOTH",
"-24 18 LINE SMOOTH",
"-30 18 OFFCURVE",
"-38 8 OFFCURVE",
"-38 3 CURVE SMOOTH",
"-38 1 OFFCURVE",
"-37 0 OFFCURVE",
"-35 0 CURVE SMOOTH",
"-34 0 LINE SMOOTH",
"-20 0 OFFCURVE",
"-8 -1 OFFCURVE",
"3 -1 CURVE SMOOTH"
);
}
);
width = 531;
}
);
note = h;
unicode = 0068;
},
{
glyphname = i;
lastChange = "2022-03-21 18:59:40 +0000";
layers = (
{
background = {
paths = (
{
closed = 1;
nodes = (
"347 633 OFFCURVE",
"336 634 OFFCURVE",
"325 634 CURVE SMOOTH",
"301 634 OFFCURVE",
"283 633 OFFCURVE",
"260 631 CURVE SMOOTH",
"227 629 OFFCURVE",
"203 603 OFFCURVE",
"185 561 CURVE SMOOTH",
"183 557 OFFCURVE",
"176 542 OFFCURVE",
"171 535 CURVE SMOOTH",
"164 525 OFFCURVE",
"181 534 OFFCURVE",
"187 537 CURVE SMOOTH",
"194 539 OFFCURVE",
"212 540 OFFCURVE",
"217 540 CURVE SMOOTH",
"243 539 OFFCURVE",
"267 532 OFFCURVE",
"290 543 CURVE SMOOTH",
"306 551 OFFCURVE",
"329 611 OFFCURVE",
"347 615 CURVE SMOOTH",
"362 619 OFFCURVE",
"364 633 OFFCURVE",
"357 633 CURVE SMOOTH"
);
},
{
closed = 1;
nodes = (
"337 16 OFFCURVE",
"291 18 OFFCURVE",
"269 22 CURVE SMOOTH",
"256 24 OFFCURVE",
"236 37 OFFCURVE",
"237 65 CURVE SMOOTH",
"238 78 OFFCURVE",
"243 129 OFFCURVE",
"246 152 CURVE SMOOTH",
"257 239 OFFCURVE",
"275 347 OFFCURVE",
"291 433 CURVE SMOOTH",
"293 444 OFFCURVE",
"297 457 OFFCURVE",
"283 456 CURVE SMOOTH",
"246 454 OFFCURVE",
"182 456 OFFCURVE",
"117 457 CURVE SMOOTH",
"109 457 OFFCURVE",
"67 458 OFFCURVE",
"56 458 CURVE SMOOTH",
"44 459 OFFCURVE",
"26 441 OFFCURVE",
"51 441 CURVE SMOOTH",
"119 441 OFFCURVE",
"180 448 OFFCURVE",
"174 373 CURVE SMOOTH",
"172 342 OFFCURVE",
"161 221 OFFCURVE",
"145 141 CURVE SMOOTH",
"117 1 OFFCURVE",
"104 18 OFFCURVE",
"19 18 CURVE SMOOTH",
"11 18 OFFCURVE",
"-3 -2 OFFCURVE",
"8 0 CURVE",
"79 -2 OFFCURVE",
"105 2 OFFCURVE",
"138 3 CURVE SMOOTH",
"209 6 OFFCURVE",
"273 0 OFFCURVE",
"343 0 CURVE SMOOTH",
"355 0 OFFCURVE",
"367 18 OFFCURVE",
"353 17 CURVE SMOOTH"
);
}
);
};
layerId = "404CF7D8-B1FB-4D32-849A-66F5CDD10145";
paths = (
{
closed = 1;
nodes = (
"89 -1 OFFCURVE",
"111 2 OFFCURVE",
"138 3 CURVE SMOOTH",
"152 4 OFFCURVE",
"166 4 OFFCURVE",
"180 4 CURVE SMOOTH",
"235 4 OFFCURVE",
"287 0 OFFCURVE",
"343 0 CURVE SMOOTH",
"351 0 OFFCURVE",
"359 8 OFFCURVE",
"359 13 CURVE SMOOTH",
"359 15 OFFCURVE",
"358 17 OFFCURVE",
"354 17 CURVE SMOOTH",
"353 17 LINE SMOOTH",
"337 16 OFFCURVE",
"291 18 OFFCURVE",
"269 22 CURVE SMOOTH",
"256 24 OFFCURVE",
"237 36 OFFCURVE",
"237 63 CURVE SMOOTH",
"237 72 OFFCURVE",
"243 128 OFFCURVE",
"246 152 CURVE SMOOTH",
"257 239 OFFCURVE",
"275 347 OFFCURVE",
"291 433 CURVE SMOOTH",
"292 438 OFFCURVE",
"293 443 OFFCURVE",
"293 447 CURVE SMOOTH",
"293 452 OFFCURVE",
"291 456 OFFCURVE",
"284 456 CURVE SMOOTH",
"283 456 LINE SMOOTH",
"272 455 OFFCURVE",
"257 455 OFFCURVE",
"242 455 CURVE SMOOTH",
"206 455 OFFCURVE",
"162 456 OFFCURVE",
"117 457 CURVE SMOOTH",
"54 458 LINE SMOOTH",
"47 458 OFFCURVE",
"38 452 OFFCURVE",
"38 446 CURVE SMOOTH",
"38 443 OFFCURVE",
"42 441 OFFCURVE",
"51 441 CURVE SMOOTH",
"82 441 LINE SMOOTH",
"137 441 OFFCURVE",
"179 436 OFFCURVE",
"174 373 CURVE SMOOTH",
"172 342 OFFCURVE",
"161 221 OFFCURVE",
"145 141 CURVE SMOOTH",
"122 28 OFFCURVE",
"110 17 OFFCURVE",
"61 17 CURVE SMOOTH",
"49 17 OFFCURVE",
"36 18 OFFCURVE",
"19 18 CURVE SMOOTH",
"13 18 OFFCURVE",
"4 8 OFFCURVE",
"4 3 CURVE SMOOTH",
"4 1 OFFCURVE",
"5 0 OFFCURVE",
"7 0 CURVE SMOOTH",
"8 0 LINE SMOOTH",
"22 0 OFFCURVE",
"34 -1 OFFCURVE",
"45 -1 CURVE SMOOTH"
);
},
{
closed = 1;
nodes = (
"164 525 OFFCURVE",
"181 534 OFFCURVE",
"187 537 CURVE SMOOTH",
"194 539 OFFCURVE",
"212 540 OFFCURVE",
"217 540 CURVE SMOOTH",
"232 539 OFFCURVE",
"246 537 OFFCURVE",
"260 537 CURVE SMOOTH",
"270 537 OFFCURVE",
"280 538 OFFCURVE",
"290 543 CURVE SMOOTH",
"306 551 OFFCURVE",
"329 611 OFFCURVE",
"347 615 CURVE SMOOTH",
"357 618 OFFCURVE",
"361 624 OFFCURVE",
"361 629 CURVE SMOOTH",
"361 631 OFFCURVE",
"360 633 OFFCURVE",
"357 633 CURVE SMOOTH",
"347 633 OFFCURVE",
"336 634 OFFCURVE",
"325 634 CURVE SMOOTH",
"301 634 OFFCURVE",
"283 633 OFFCURVE",
"260 631 CURVE SMOOTH",
"227 629 OFFCURVE",
"203 603 OFFCURVE",
"185 561 CURVE SMOOTH",
"183 557 OFFCURVE",
"176 542 OFFCURVE",
"171 535 CURVE SMOOTH"
);
}
);
width = 344;
}
);
note = i;
unicode = 0069;
},
{
color = 11;
glyphname = idotless;
lastChange = "2022-03-21 18:59:40 +0000";
layers = (
{
background = {
paths = (
{
closed = 1;
nodes = (
"337 16 OFFCURVE",
"291 18 OFFCURVE",
"269 22 CURVE SMOOTH",
"256 24 OFFCURVE",
"236 37 OFFCURVE",
"237 65 CURVE SMOOTH",
"238 78 OFFCURVE",
"243 129 OFFCURVE",
"246 152 CURVE SMOOTH",
"257 239 OFFCURVE",
"275 347 OFFCURVE",
"291 433 CURVE SMOOTH",
"293 444 OFFCURVE",
"297 457 OFFCURVE",
"283 456 CURVE SMOOTH",
"246 454 OFFCURVE",
"178 452 OFFCURVE",
"113 454 CURVE SMOOTH",
"105 454 OFFCURVE",
"62 453 OFFCURVE",
"50 454 CURVE SMOOTH",
"39 454 OFFCURVE",
"32 431 OFFCURVE",
"56 435 CURVE SMOOTH",
"76 438 OFFCURVE",
"119 442 OFFCURVE",
"143 442 CURVE SMOOTH",
"180 441 OFFCURVE",
"176 406 OFFCURVE",
"175 387 CURVE SMOOTH",
"171 333 OFFCURVE",
"161 221 OFFCURVE",
"145 141 CURVE SMOOTH",
"117 1 OFFCURVE",
"104 18 OFFCURVE",
"19 18 CURVE SMOOTH",
"11 18 OFFCURVE",
"-3 -2 OFFCURVE",
"8 0 CURVE",
"79 -2 OFFCURVE",
"105 2 OFFCURVE",
"138 3 CURVE SMOOTH",
"209 6 OFFCURVE",
"273 0 OFFCURVE",
"343 0 CURVE SMOOTH",
"355 0 OFFCURVE",
"367 18 OFFCURVE",
"353 17 CURVE SMOOTH"
);
}
);
};
layerId = "404CF7D8-B1FB-4D32-849A-66F5CDD10145";
paths = (
{
closed = 1;
nodes = (
"89 -1 OFFCURVE",
"111 2 OFFCURVE",
"138 3 CURVE SMOOTH",
"152 4 OFFCURVE",
"166 4 OFFCURVE",
"180 4 CURVE SMOOTH",
"235 4 OFFCURVE",
"287 0 OFFCURVE",
"343 0 CURVE SMOOTH",
"351 0 OFFCURVE",
"359 8 OFFCURVE",
"359 13 CURVE SMOOTH",
"359 15 OFFCURVE",
"358 17 OFFCURVE",
"354 17 CURVE SMOOTH",
"353 17 LINE SMOOTH",
"337 16 OFFCURVE",
"291 18 OFFCURVE",
"269 22 CURVE SMOOTH",
"256 24 OFFCURVE",
"237 36 OFFCURVE",
"237 63 CURVE SMOOTH",
"237 72 OFFCURVE",
"243 128 OFFCURVE",
"246 152 CURVE SMOOTH",
"257 239 OFFCURVE",
"275 347 OFFCURVE",
"291 433 CURVE SMOOTH",
"292 438 OFFCURVE",
"293 443 OFFCURVE",
"293 447 CURVE SMOOTH",
"293 452 OFFCURVE",
"291 456 OFFCURVE",
"284 456 CURVE SMOOTH",
"283 456 LINE SMOOTH",
"257 455 OFFCURVE",
"215 453 OFFCURVE",
"170 453 CURVE SMOOTH",
"151 453 OFFCURVE",
"132 453 OFFCURVE",
"113 454 CURVE SMOOTH",
"105 454 OFFCURVE",
"62 453 OFFCURVE",
"50 454 CURVE SMOOTH",
"44 454 OFFCURVE",
"40 448 OFFCURVE",
"40 443 CURVE SMOOTH",
"40 439 OFFCURVE",
"43 435 OFFCURVE",
"51 435 CURVE SMOOTH",
"56 435 LINE",
"76 438 OFFCURVE",
"119 442 OFFCURVE",
"143 442 CURVE SMOOTH",
"180 441 OFFCURVE",
"176 406 OFFCURVE",
"175 387 CURVE SMOOTH",
"171 333 OFFCURVE",
"161 221 OFFCURVE",
"145 141 CURVE SMOOTH",
"122 28 OFFCURVE",
"110 17 OFFCURVE",
"61 17 CURVE SMOOTH",
"49 17 OFFCURVE",
"36 18 OFFCURVE",
"19 18 CURVE SMOOTH",
"13 18 OFFCURVE",
"4 8 OFFCURVE",
"4 3 CURVE SMOOTH",
"4 1 OFFCURVE",
"5 0 OFFCURVE",
"7 0 CURVE SMOOTH",
"8 0 LINE SMOOTH",
"22 0 OFFCURVE",
"34 -1 OFFCURVE",
"45 -1 CURVE SMOOTH"
);
}
);
width = 344;
}
);
note = dotlessi;
unicode = 0131;
},
{
glyphname = j;
lastChange = "2022-03-21 18:59:40 +0000";
layers = (
{
background = {
paths = (
{
closed = 1;
nodes = (
"347 633 OFFCURVE",
"336 634 OFFCURVE",
"325 634 CURVE SMOOTH",
"301 634 OFFCURVE",
"283 633 OFFCURVE",
"260 631 CURVE SMOOTH",
"227 629 OFFCURVE",
"203 603 OFFCURVE",
"185 561 CURVE SMOOTH",
"183 557 OFFCURVE",
"176 542 OFFCURVE",
"171 535 CURVE SMOOTH",
"164 525 OFFCURVE",
"181 534 OFFCURVE",
"187 537 CURVE SMOOTH",
"194 539 OFFCURVE",
"212 540 OFFCURVE",
"217 540 CURVE SMOOTH",
"243 539 OFFCURVE",
"267 532 OFFCURVE",
"290 543 CURVE SMOOTH",
"306 551 OFFCURVE",
"329 611 OFFCURVE",
"347 615 CURVE SMOOTH",
"362 619 OFFCURVE",
"364 633 OFFCURVE",
"357 633 CURVE SMOOTH"
);
},
{
closed = 1;
nodes = (
"293 444 OFFCURVE",
"297 457 OFFCURVE",
"283 456 CURVE SMOOTH",
"246 454 OFFCURVE",
"182 456 OFFCURVE",
"117 457 CURVE SMOOTH",
"109 457 OFFCURVE",
"67 458 OFFCURVE",
"56 458 CURVE SMOOTH",
"44 459 OFFCURVE",
"26 441 OFFCURVE",
"51 441 CURVE SMOOTH",
"119 441 OFFCURVE",
"179 448 OFFCURVE",
"174 373 CURVE SMOOTH",
"164 238 OFFCURVE",
"145 97 OFFCURVE",
"121 -35 CURVE SMOOTH",
"116 -60 OFFCURVE",
"110 -94 OFFCURVE",
"99 -124 CURVE SMOOTH",
"78 -180 OFFCURVE",
"27 -201 OFFCURVE",
"-17 -149 CURVE SMOOTH",
"-27 -137 OFFCURVE",
"-34 -120 OFFCURVE",
"-34 -101 CURVE SMOOTH",
"-34 -90 OFFCURVE",
"-28 -78 OFFCURVE",
"-34 -76 CURVE SMOOTH",
"-43 -73 OFFCURVE",
"-51 -97 OFFCURVE",
"-56 -106 CURVE SMOOTH",
"-67 -128 OFFCURVE",
"-74 -135 OFFCURVE",
"-90 -158 CURVE SMOOTH",
"-103 -175 OFFCURVE",
"-75 -197 OFFCURVE",
"-64 -205 CURVE SMOOTH",
"-52 -214 OFFCURVE",
"-30 -218 OFFCURVE",
"-5 -218 CURVE SMOOTH",
"50 -218 OFFCURVE",
"92 -199 OFFCURVE",
"128 -175 CURVE SMOOTH",
"189 -134 OFFCURVE",
"219 -77 OFFCURVE",
"226 -18 CURVE SMOOTH",
"243 132 OFFCURVE",
"257 285 OFFCURVE",
"291 433 CURVE SMOOTH"
);
}
);
};
layerId = "404CF7D8-B1FB-4D32-849A-66F5CDD10145";
paths = (
{
closed = 1;
nodes = (
"50 -218 OFFCURVE",
"92 -199 OFFCURVE",
"128 -175 CURVE SMOOTH",
"189 -134 OFFCURVE",
"219 -77 OFFCURVE",
"226 -18 CURVE SMOOTH",
"243 132 OFFCURVE",
"257 285 OFFCURVE",
"291 433 CURVE SMOOTH",
"292 438 OFFCURVE",
"293 443 OFFCURVE",
"293 447 CURVE SMOOTH",
"293 452 OFFCURVE",
"291 456 OFFCURVE",
"284 456 CURVE SMOOTH",
"283 456 LINE SMOOTH",
"272 455 OFFCURVE",
"257 455 OFFCURVE",
"242 455 CURVE SMOOTH",
"206 455 OFFCURVE",
"162 456 OFFCURVE",
"117 457 CURVE SMOOTH",
"54 458 LINE SMOOTH",
"47 458 OFFCURVE",
"38 452 OFFCURVE",
"38 446 CURVE SMOOTH",
"38 443 OFFCURVE",
"42 441 OFFCURVE",
"51 441 CURVE SMOOTH",
"82 441 LINE SMOOTH",
"136 441 OFFCURVE",
"178 436 OFFCURVE",
"174 373 CURVE SMOOTH",
"164 238 OFFCURVE",
"145 97 OFFCURVE",
"121 -35 CURVE SMOOTH",
"116 -60 OFFCURVE",
"110 -94 OFFCURVE",
"99 -124 CURVE SMOOTH",
"86 -158 OFFCURVE",
"63 -179 OFFCURVE",
"36 -179 CURVE SMOOTH",
"19 -179 OFFCURVE",
"0 -170 OFFCURVE",
"-17 -149 CURVE SMOOTH",
"-27 -137 OFFCURVE",
"-34 -120 OFFCURVE",
"-34 -101 CURVE SMOOTH",
"-34 -94 OFFCURVE",
"-31 -86 OFFCURVE",
"-31 -81 CURVE SMOOTH",
"-31 -78 OFFCURVE",
"-32 -76 OFFCURVE",
"-36 -76 CURVE SMOOTH",
"-44 -76 OFFCURVE",
"-51 -98 OFFCURVE",
"-56 -106 CURVE SMOOTH",
"-67 -128 OFFCURVE",
"-74 -135 OFFCURVE",
"-90 -158 CURVE SMOOTH",
"-92 -161 OFFCURVE",
"-93 -164 OFFCURVE",
"-93 -168 CURVE SMOOTH",
"-93 -183 OFFCURVE",
"-73 -198 OFFCURVE",
"-64 -205 CURVE SMOOTH",
"-52 -214 OFFCURVE",
"-30 -218 OFFCURVE",
"-5 -218 CURVE SMOOTH"
);
},
{
closed = 1;
nodes = (
"164 525 OFFCURVE",
"181 534 OFFCURVE",
"187 537 CURVE SMOOTH",
"194 539 OFFCURVE",
"212 540 OFFCURVE",
"217 540 CURVE SMOOTH",
"232 539 OFFCURVE",
"246 537 OFFCURVE",
"260 537 CURVE SMOOTH",
"270 537 OFFCURVE",
"280 538 OFFCURVE",
"290 543 CURVE SMOOTH",
"306 551 OFFCURVE",
"329 611 OFFCURVE",
"347 615 CURVE SMOOTH",
"357 618 OFFCURVE",
"361 624 OFFCURVE",
"361 629 CURVE SMOOTH",
"361 631 OFFCURVE",
"360 633 OFFCURVE",
"357 633 CURVE SMOOTH",
"347 633 OFFCURVE",
"336 634 OFFCURVE",
"325 634 CURVE SMOOTH",
"301 634 OFFCURVE",
"283 633 OFFCURVE",
"260 631 CURVE SMOOTH",
"227 629 OFFCURVE",
"203 603 OFFCURVE",
"185 561 CURVE SMOOTH",
"183 557 OFFCURVE",
"176 542 OFFCURVE",
"171 535 CURVE SMOOTH"
);
}
);
width = 344;
}
);
note = j;
unicode = 006A;
},
